ISO-10303-21;
HEADER;
/* Generated by software containing ST-Developer
 * from STEP Tools, Inc. (www.steptools.com) 
 */

FILE_DESCRIPTION(
/* description */ (''),
/* implementation_level */ '2;1');

FILE_NAME(
/* name */ 'Desk.step',
/* time_stamp */ '2026-08-18T21:38:26+02:00',
/* author */ (''),
/* organization */ (''),
/* preprocessor_version */ 'ST-DEVELOPER v20.1',
/* originating_system */ 'Autodesk Translation Framework v15.8.0.0',
/* authorisation */ '');

FILE_SCHEMA (('AUTOMOTIVE_DESIGN { 1 0 10303 214 3 1 1 }'));
ENDSEC;

DATA;
#10=MECHANICAL_DESIGN_GEOMETRIC_PRESENTATION_REPRESENTATION('',(#13),#1294);
#11=SHAPE_REPRESENTATION_RELATIONSHIP('SRR','None',#1301,#12);
#12=ADVANCED_BREP_SHAPE_REPRESENTATION('',(#14),#1293);
#13=STYLED_ITEM('',(#1310),#14);
#14=MANIFOLD_SOLID_BREP('Body1',#810);
#15=CYLINDRICAL_SURFACE('',#834,2.);
#16=FACE_BOUND('',#66,.T.);
#17=FACE_BOUND('',#85,.T.);
#18=CIRCLE('',#829,2.);
#19=CIRCLE('',#835,2.);
#20=FACE_OUTER_BOUND('',#61,.T.);
#21=FACE_OUTER_BOUND('',#62,.T.);
#22=FACE_OUTER_BOUND('',#63,.T.);
#23=FACE_OUTER_BOUND('',#64,.T.);
#24=FACE_OUTER_BOUND('',#65,.T.);
#25=FACE_OUTER_BOUND('',#67,.T.);
#26=FACE_OUTER_BOUND('',#68,.T.);
#27=FACE_OUTER_BOUND('',#69,.T.);
#28=FACE_OUTER_BOUND('',#70,.T.);
#29=FACE_OUTER_BOUND('',#71,.T.);
#30=FACE_OUTER_BOUND('',#72,.T.);
#31=FACE_OUTER_BOUND('',#73,.T.);
#32=FACE_OUTER_BOUND('',#74,.T.);
#33=FACE_OUTER_BOUND('',#75,.T.);
#34=FACE_OUTER_BOUND('',#76,.T.);
#35=FACE_OUTER_BOUND('',#77,.T.);
#36=FACE_OUTER_BOUND('',#78,.T.);
#37=FACE_OUTER_BOUND('',#79,.T.);
#38=FACE_OUTER_BOUND('',#80,.T.);
#39=FACE_OUTER_BOUND('',#81,.T.);
#40=FACE_OUTER_BOUND('',#82,.T.);
#41=FACE_OUTER_BOUND('',#83,.T.);
#42=FACE_OUTER_BOUND('',#84,.T.);
#43=FACE_OUTER_BOUND('',#86,.T.);
#44=FACE_OUTER_BOUND('',#87,.T.);
#45=FACE_OUTER_BOUND('',#88,.T.);
#46=FACE_OUTER_BOUND('',#89,.T.);
#47=FACE_OUTER_BOUND('',#90,.T.);
#48=FACE_OUTER_BOUND('',#91,.T.);
#49=FACE_OUTER_BOUND('',#92,.T.);
#50=FACE_OUTER_BOUND('',#93,.T.);
#51=FACE_OUTER_BOUND('',#94,.T.);
#52=FACE_OUTER_BOUND('',#95,.T.);
#53=FACE_OUTER_BOUND('',#96,.T.);
#54=FACE_OUTER_BOUND('',#97,.T.);
#55=FACE_OUTER_BOUND('',#98,.T.);
#56=FACE_OUTER_BOUND('',#99,.T.);
#57=FACE_OUTER_BOUND('',#100,.T.);
#58=FACE_OUTER_BOUND('',#101,.T.);
#59=FACE_OUTER_BOUND('',#102,.T.);
#60=FACE_OUTER_BOUND('',#103,.T.);
#61=EDGE_LOOP('',(#507,#508,#509,#510));
#62=EDGE_LOOP('',(#511,#512,#513,#514));
#63=EDGE_LOOP('',(#515,#516,#517,#518));
#64=EDGE_LOOP('',(#519,#520,#521,#522));
#65=EDGE_LOOP('',(#523,#524,#525,#526,#527,#528,#529,#530,#531,#532,#533,
#534));
#66=EDGE_LOOP('',(#535));
#67=EDGE_LOOP('',(#536,#537,#538,#539));
#68=EDGE_LOOP('',(#540,#541,#542,#543));
#69=EDGE_LOOP('',(#544,#545,#546,#547));
#70=EDGE_LOOP('',(#548,#549,#550,#551));
#71=EDGE_LOOP('',(#552,#553,#554,#555));
#72=EDGE_LOOP('',(#556,#557,#558,#559));
#73=EDGE_LOOP('',(#560,#561,#562,#563,#564,#565));
#74=EDGE_LOOP('',(#566,#567,#568,#569,#570,#571));
#75=EDGE_LOOP('',(#572,#573,#574,#575));
#76=EDGE_LOOP('',(#576,#577,#578,#579,#580,#581));
#77=EDGE_LOOP('',(#582,#583,#584,#585,#586,#587));
#78=EDGE_LOOP('',(#588,#589,#590,#591));
#79=EDGE_LOOP('',(#592,#593,#594,#595,#596,#597));
#80=EDGE_LOOP('',(#598,#599,#600,#601,#602,#603));
#81=EDGE_LOOP('',(#604,#605,#606,#607));
#82=EDGE_LOOP('',(#608,#609,#610,#611,#612,#613));
#83=EDGE_LOOP('',(#614,#615,#616,#617,#618,#619));
#84=EDGE_LOOP('',(#620,#621,#622,#623,#624,#625,#626,#627,#628,#629,#630,
#631));
#85=EDGE_LOOP('',(#632,#633,#634,#635,#636,#637,#638,#639,#640,#641,#642,
#643));
#86=EDGE_LOOP('',(#644,#645,#646,#647));
#87=EDGE_LOOP('',(#648,#649,#650,#651));
#88=EDGE_LOOP('',(#652,#653,#654,#655));
#89=EDGE_LOOP('',(#656));
#90=EDGE_LOOP('',(#657,#658,#659,#660));
#91=EDGE_LOOP('',(#661,#662,#663,#664));
#92=EDGE_LOOP('',(#665,#666,#667,#668));
#93=EDGE_LOOP('',(#669,#670,#671,#672));
#94=EDGE_LOOP('',(#673,#674,#675,#676));
#95=EDGE_LOOP('',(#677,#678,#679,#680));
#96=EDGE_LOOP('',(#681,#682,#683,#684));
#97=EDGE_LOOP('',(#685,#686,#687,#688));
#98=EDGE_LOOP('',(#689,#690,#691,#692));
#99=EDGE_LOOP('',(#693,#694,#695,#696,#697,#698,#699,#700));
#100=EDGE_LOOP('',(#701,#702,#703,#704,#705,#706,#707,#708));
#101=EDGE_LOOP('',(#709,#710,#711,#712,#713,#714,#715,#716));
#102=EDGE_LOOP('',(#717,#718,#719,#720,#721,#722,#723,#724));
#103=EDGE_LOOP('',(#725,#726,#727,#728));
#104=LINE('',#1068,#213);
#105=LINE('',#1070,#214);
#106=LINE('',#1072,#215);
#107=LINE('',#1073,#216);
#108=LINE('',#1077,#217);
#109=LINE('',#1078,#218);
#110=LINE('',#1079,#219);
#111=LINE('',#1083,#220);
#112=LINE('',#1085,#221);
#113=LINE('',#1087,#222);
#114=LINE('',#1088,#223);
#115=LINE('',#1091,#224);
#116=LINE('',#1093,#225);
#117=LINE('',#1094,#226);
#118=LINE('',#1097,#227);
#119=LINE('',#1098,#228);
#120=LINE('',#1100,#229);
#121=LINE('',#1102,#230);
#122=LINE('',#1104,#231);
#123=LINE('',#1106,#232);
#124=LINE('',#1108,#233);
#125=LINE('',#1110,#234);
#126=LINE('',#1112,#235);
#127=LINE('',#1113,#236);
#128=LINE('',#1118,#237);
#129=LINE('',#1120,#238);
#130=LINE('',#1121,#239);
#131=LINE('',#1124,#240);
#132=LINE('',#1126,#241);
#133=LINE('',#1127,#242);
#134=LINE('',#1130,#243);
#135=LINE('',#1132,#244);
#136=LINE('',#1133,#245);
#137=LINE('',#1136,#246);
#138=LINE('',#1138,#247);
#139=LINE('',#1139,#248);
#140=LINE('',#1142,#249);
#141=LINE('',#1147,#250);
#142=LINE('',#1148,#251);
#143=LINE('',#1149,#252);
#144=LINE('',#1152,#253);
#145=LINE('',#1153,#254);
#146=LINE('',#1156,#255);
#147=LINE('',#1157,#256);
#148=LINE('',#1160,#257);
#149=LINE('',#1161,#258);
#150=LINE('',#1164,#259);
#151=LINE('',#1165,#260);
#152=LINE('',#1168,#261);
#153=LINE('',#1169,#262);
#154=LINE('',#1172,#263);
#155=LINE('',#1173,#264);
#156=LINE('',#1176,#265);
#157=LINE('',#1177,#266);
#158=LINE('',#1180,#267);
#159=LINE('',#1181,#268);
#160=LINE('',#1184,#269);
#161=LINE('',#1185,#270);
#162=LINE('',#1188,#271);
#163=LINE('',#1189,#272);
#164=LINE('',#1191,#273);
#165=LINE('',#1195,#274);
#166=LINE('',#1197,#275);
#167=LINE('',#1199,#276);
#168=LINE('',#1201,#277);
#169=LINE('',#1203,#278);
#170=LINE('',#1205,#279);
#171=LINE('',#1207,#280);
#172=LINE('',#1209,#281);
#173=LINE('',#1211,#282);
#174=LINE('',#1213,#283);
#175=LINE('',#1215,#284);
#176=LINE('',#1216,#285);
#177=LINE('',#1219,#286);
#178=LINE('',#1221,#287);
#179=LINE('',#1222,#288);
#180=LINE('',#1225,#289);
#181=LINE('',#1226,#290);
#182=LINE('',#1229,#291);
#183=LINE('',#1230,#292);
#184=LINE('',#1234,#293);
#185=LINE('',#1236,#294);
#186=LINE('',#1237,#295);
#187=LINE('',#1240,#296);
#188=LINE('',#1241,#297);
#189=LINE('',#1244,#298);
#190=LINE('',#1245,#299);
#191=LINE('',#1248,#300);
#192=LINE('',#1250,#301);
#193=LINE('',#1251,#302);
#194=LINE('',#1254,#303);
#195=LINE('',#1255,#304);
#196=LINE('',#1258,#305);
#197=LINE('',#1259,#306);
#198=LINE('',#1262,#307);
#199=LINE('',#1264,#308);
#200=LINE('',#1265,#309);
#201=LINE('',#1268,#310);
#202=LINE('',#1269,#311);
#203=LINE('',#1272,#312);
#204=LINE('',#1273,#313);
#205=LINE('',#1277,#314);
#206=LINE('',#1278,#315);
#207=LINE('',#1279,#316);
#208=LINE('',#1282,#317);
#209=LINE('',#1283,#318);
#210=LINE('',#1286,#319);
#211=LINE('',#1287,#320);
#212=LINE('',#1289,#321);
#213=VECTOR('',#871,10.);
#214=VECTOR('',#872,10.);
#215=VECTOR('',#873,10.);
#216=VECTOR('',#874,10.);
#217=VECTOR('',#877,10.);
#218=VECTOR('',#878,10.);
#219=VECTOR('',#879,10.);
#220=VECTOR('',#882,10.);
#221=VECTOR('',#883,10.);
#222=VECTOR('',#884,10.);
#223=VECTOR('',#885,10.);
#224=VECTOR('',#888,10.);
#225=VECTOR('',#889,10.);
#226=VECTOR('',#890,10.);
#227=VECTOR('',#893,10.);
#228=VECTOR('',#894,10.);
#229=VECTOR('',#895,10.);
#230=VECTOR('',#896,10.);
#231=VECTOR('',#897,10.);
#232=VECTOR('',#898,10.);
#233=VECTOR('',#899,10.);
#234=VECTOR('',#900,10.);
#235=VECTOR('',#901,10.);
#236=VECTOR('',#902,10.);
#237=VECTOR('',#907,10.);
#238=VECTOR('',#908,10.);
#239=VECTOR('',#909,10.);
#240=VECTOR('',#912,10.);
#241=VECTOR('',#913,10.);
#242=VECTOR('',#914,10.);
#243=VECTOR('',#917,10.);
#244=VECTOR('',#918,10.);
#245=VECTOR('',#919,10.);
#246=VECTOR('',#922,10.);
#247=VECTOR('',#923,10.);
#248=VECTOR('',#924,10.);
#249=VECTOR('',#927,2.);
#250=VECTOR('',#932,10.);
#251=VECTOR('',#933,10.);
#252=VECTOR('',#934,10.);
#253=VECTOR('',#937,10.);
#254=VECTOR('',#938,10.);
#255=VECTOR('',#941,10.);
#256=VECTOR('',#942,10.);
#257=VECTOR('',#945,10.);
#258=VECTOR('',#946,10.);
#259=VECTOR('',#949,10.);
#260=VECTOR('',#950,10.);
#261=VECTOR('',#953,10.);
#262=VECTOR('',#954,10.);
#263=VECTOR('',#957,10.);
#264=VECTOR('',#958,10.);
#265=VECTOR('',#961,10.);
#266=VECTOR('',#962,10.);
#267=VECTOR('',#965,10.);
#268=VECTOR('',#966,10.);
#269=VECTOR('',#969,10.);
#270=VECTOR('',#970,10.);
#271=VECTOR('',#973,10.);
#272=VECTOR('',#974,10.);
#273=VECTOR('',#977,10.);
#274=VECTOR('',#980,10.);
#275=VECTOR('',#981,10.);
#276=VECTOR('',#982,10.);
#277=VECTOR('',#983,10.);
#278=VECTOR('',#984,10.);
#279=VECTOR('',#985,10.);
#280=VECTOR('',#986,10.);
#281=VECTOR('',#987,10.);
#282=VECTOR('',#988,10.);
#283=VECTOR('',#989,10.);
#284=VECTOR('',#990,10.);
#285=VECTOR('',#991,10.);
#286=VECTOR('',#994,10.);
#287=VECTOR('',#995,10.);
#288=VECTOR('',#996,10.);
#289=VECTOR('',#999,10.);
#290=VECTOR('',#1000,10.);
#291=VECTOR('',#1003,10.);
#292=VECTOR('',#1004,10.);
#293=VECTOR('',#1009,10.);
#294=VECTOR('',#1010,10.);
#295=VECTOR('',#1011,10.);
#296=VECTOR('',#1014,10.);
#297=VECTOR('',#1015,10.);
#298=VECTOR('',#1018,10.);
#299=VECTOR('',#1019,10.);
#300=VECTOR('',#1022,10.);
#301=VECTOR('',#1023,10.);
#302=VECTOR('',#1024,10.);
#303=VECTOR('',#1027,10.);
#304=VECTOR('',#1028,10.);
#305=VECTOR('',#1031,10.);
#306=VECTOR('',#1032,10.);
#307=VECTOR('',#1035,10.);
#308=VECTOR('',#1036,10.);
#309=VECTOR('',#1037,10.);
#310=VECTOR('',#1040,10.);
#311=VECTOR('',#1041,10.);
#312=VECTOR('',#1044,10.);
#313=VECTOR('',#1045,10.);
#314=VECTOR('',#1048,10.);
#315=VECTOR('',#1049,10.);
#316=VECTOR('',#1050,10.);
#317=VECTOR('',#1053,10.);
#318=VECTOR('',#1054,10.);
#319=VECTOR('',#1057,10.);
#320=VECTOR('',#1058,10.);
#321=VECTOR('',#1061,10.);
#322=VERTEX_POINT('',#1066);
#323=VERTEX_POINT('',#1067);
#324=VERTEX_POINT('',#1069);
#325=VERTEX_POINT('',#1071);
#326=VERTEX_POINT('',#1075);
#327=VERTEX_POINT('',#1076);
#328=VERTEX_POINT('',#1081);
#329=VERTEX_POINT('',#1082);
#330=VERTEX_POINT('',#1084);
#331=VERTEX_POINT('',#1086);
#332=VERTEX_POINT('',#1090);
#333=VERTEX_POINT('',#1092);
#334=VERTEX_POINT('',#1096);
#335=VERTEX_POINT('',#1099);
#336=VERTEX_POINT('',#1101);
#337=VERTEX_POINT('',#1103);
#338=VERTEX_POINT('',#1105);
#339=VERTEX_POINT('',#1107);
#340=VERTEX_POINT('',#1109);
#341=VERTEX_POINT('',#1111);
#342=VERTEX_POINT('',#1114);
#343=VERTEX_POINT('',#1117);
#344=VERTEX_POINT('',#1119);
#345=VERTEX_POINT('',#1123);
#346=VERTEX_POINT('',#1125);
#347=VERTEX_POINT('',#1129);
#348=VERTEX_POINT('',#1131);
#349=VERTEX_POINT('',#1135);
#350=VERTEX_POINT('',#1137);
#351=VERTEX_POINT('',#1141);
#352=VERTEX_POINT('',#1145);
#353=VERTEX_POINT('',#1146);
#354=VERTEX_POINT('',#1151);
#355=VERTEX_POINT('',#1155);
#356=VERTEX_POINT('',#1159);
#357=VERTEX_POINT('',#1163);
#358=VERTEX_POINT('',#1167);
#359=VERTEX_POINT('',#1171);
#360=VERTEX_POINT('',#1175);
#361=VERTEX_POINT('',#1179);
#362=VERTEX_POINT('',#1183);
#363=VERTEX_POINT('',#1187);
#364=VERTEX_POINT('',#1193);
#365=VERTEX_POINT('',#1194);
#366=VERTEX_POINT('',#1196);
#367=VERTEX_POINT('',#1198);
#368=VERTEX_POINT('',#1200);
#369=VERTEX_POINT('',#1202);
#370=VERTEX_POINT('',#1204);
#371=VERTEX_POINT('',#1206);
#372=VERTEX_POINT('',#1208);
#373=VERTEX_POINT('',#1210);
#374=VERTEX_POINT('',#1212);
#375=VERTEX_POINT('',#1214);
#376=VERTEX_POINT('',#1218);
#377=VERTEX_POINT('',#1220);
#378=VERTEX_POINT('',#1224);
#379=VERTEX_POINT('',#1228);
#380=VERTEX_POINT('',#1233);
#381=VERTEX_POINT('',#1235);
#382=VERTEX_POINT('',#1239);
#383=VERTEX_POINT('',#1243);
#384=VERTEX_POINT('',#1247);
#385=VERTEX_POINT('',#1249);
#386=VERTEX_POINT('',#1253);
#387=VERTEX_POINT('',#1257);
#388=VERTEX_POINT('',#1261);
#389=VERTEX_POINT('',#1263);
#390=VERTEX_POINT('',#1267);
#391=VERTEX_POINT('',#1271);
#392=VERTEX_POINT('',#1275);
#393=VERTEX_POINT('',#1276);
#394=VERTEX_POINT('',#1281);
#395=VERTEX_POINT('',#1285);
#396=EDGE_CURVE('',#322,#323,#104,.T.);
#397=EDGE_CURVE('',#322,#324,#105,.T.);
#398=EDGE_CURVE('',#325,#324,#106,.T.);
#399=EDGE_CURVE('',#323,#325,#107,.T.);
#400=EDGE_CURVE('',#326,#327,#108,.T.);
#401=EDGE_CURVE('',#327,#325,#109,.T.);
#402=EDGE_CURVE('',#324,#326,#110,.T.);
#403=EDGE_CURVE('',#328,#329,#111,.T.);
#404=EDGE_CURVE('',#328,#330,#112,.T.);
#405=EDGE_CURVE('',#331,#330,#113,.T.);
#406=EDGE_CURVE('',#329,#331,#114,.T.);
#407=EDGE_CURVE('',#330,#332,#115,.T.);
#408=EDGE_CURVE('',#332,#333,#116,.T.);
#409=EDGE_CURVE('',#333,#331,#117,.T.);
#410=EDGE_CURVE('',#323,#334,#118,.T.);
#411=EDGE_CURVE('',#334,#328,#119,.T.);
#412=EDGE_CURVE('',#329,#335,#120,.T.);
#413=EDGE_CURVE('',#335,#336,#121,.T.);
#414=EDGE_CURVE('',#336,#337,#122,.T.);
#415=EDGE_CURVE('',#337,#338,#123,.T.);
#416=EDGE_CURVE('',#338,#339,#124,.T.);
#417=EDGE_CURVE('',#339,#340,#125,.T.);
#418=EDGE_CURVE('',#340,#341,#126,.T.);
#419=EDGE_CURVE('',#341,#322,#127,.T.);
#420=EDGE_CURVE('',#342,#342,#18,.T.);
#421=EDGE_CURVE('',#339,#343,#128,.T.);
#422=EDGE_CURVE('',#344,#343,#129,.T.);
#423=EDGE_CURVE('',#340,#344,#130,.T.);
#424=EDGE_CURVE('',#343,#345,#131,.T.);
#425=EDGE_CURVE('',#345,#346,#132,.T.);
#426=EDGE_CURVE('',#346,#344,#133,.T.);
#427=EDGE_CURVE('',#336,#347,#134,.T.);
#428=EDGE_CURVE('',#348,#347,#135,.T.);
#429=EDGE_CURVE('',#337,#348,#136,.T.);
#430=EDGE_CURVE('',#349,#348,#137,.T.);
#431=EDGE_CURVE('',#347,#350,#138,.T.);
#432=EDGE_CURVE('',#350,#349,#139,.T.);
#433=EDGE_CURVE('',#342,#351,#140,.T.);
#434=EDGE_CURVE('',#351,#351,#19,.T.);
#435=EDGE_CURVE('',#352,#353,#141,.T.);
#436=EDGE_CURVE('',#352,#349,#142,.T.);
#437=EDGE_CURVE('',#353,#350,#143,.T.);
#438=EDGE_CURVE('',#353,#354,#144,.T.);
#439=EDGE_CURVE('',#354,#335,#145,.T.);
#440=EDGE_CURVE('',#354,#355,#146,.T.);
#441=EDGE_CURVE('',#355,#333,#147,.T.);
#442=EDGE_CURVE('',#355,#356,#148,.T.);
#443=EDGE_CURVE('',#356,#332,#149,.T.);
#444=EDGE_CURVE('',#356,#357,#150,.T.);
#445=EDGE_CURVE('',#357,#334,#151,.T.);
#446=EDGE_CURVE('',#357,#358,#152,.T.);
#447=EDGE_CURVE('',#358,#327,#153,.T.);
#448=EDGE_CURVE('',#358,#359,#154,.T.);
#449=EDGE_CURVE('',#359,#326,#155,.T.);
#450=EDGE_CURVE('',#359,#360,#156,.T.);
#451=EDGE_CURVE('',#360,#341,#157,.T.);
#452=EDGE_CURVE('',#360,#361,#158,.T.);
#453=EDGE_CURVE('',#361,#346,#159,.T.);
#454=EDGE_CURVE('',#361,#362,#160,.T.);
#455=EDGE_CURVE('',#362,#345,#161,.T.);
#456=EDGE_CURVE('',#362,#363,#162,.T.);
#457=EDGE_CURVE('',#363,#338,#163,.T.);
#458=EDGE_CURVE('',#363,#352,#164,.T.);
#459=EDGE_CURVE('',#364,#365,#165,.T.);
#460=EDGE_CURVE('',#365,#366,#166,.T.);
#461=EDGE_CURVE('',#366,#367,#167,.T.);
#462=EDGE_CURVE('',#367,#368,#168,.T.);
#463=EDGE_CURVE('',#368,#369,#169,.T.);
#464=EDGE_CURVE('',#369,#370,#170,.T.);
#465=EDGE_CURVE('',#370,#371,#171,.T.);
#466=EDGE_CURVE('',#371,#372,#172,.T.);
#467=EDGE_CURVE('',#372,#373,#173,.T.);
#468=EDGE_CURVE('',#373,#374,#174,.T.);
#469=EDGE_CURVE('',#374,#375,#175,.T.);
#470=EDGE_CURVE('',#375,#364,#176,.T.);
#471=EDGE_CURVE('',#364,#376,#177,.T.);
#472=EDGE_CURVE('',#377,#376,#178,.T.);
#473=EDGE_CURVE('',#365,#377,#179,.T.);
#474=EDGE_CURVE('',#378,#377,#180,.T.);
#475=EDGE_CURVE('',#366,#378,#181,.T.);
#476=EDGE_CURVE('',#376,#379,#182,.T.);
#477=EDGE_CURVE('',#379,#378,#183,.T.);
#478=EDGE_CURVE('',#370,#380,#184,.T.);
#479=EDGE_CURVE('',#381,#380,#185,.T.);
#480=EDGE_CURVE('',#371,#381,#186,.T.);
#481=EDGE_CURVE('',#382,#381,#187,.T.);
#482=EDGE_CURVE('',#372,#382,#188,.T.);
#483=EDGE_CURVE('',#380,#383,#189,.T.);
#484=EDGE_CURVE('',#383,#382,#190,.T.);
#485=EDGE_CURVE('',#373,#384,#191,.T.);
#486=EDGE_CURVE('',#385,#384,#192,.T.);
#487=EDGE_CURVE('',#374,#385,#193,.T.);
#488=EDGE_CURVE('',#386,#385,#194,.T.);
#489=EDGE_CURVE('',#375,#386,#195,.T.);
#490=EDGE_CURVE('',#384,#387,#196,.T.);
#491=EDGE_CURVE('',#387,#386,#197,.T.);
#492=EDGE_CURVE('',#367,#388,#198,.T.);
#493=EDGE_CURVE('',#389,#388,#199,.T.);
#494=EDGE_CURVE('',#368,#389,#200,.T.);
#495=EDGE_CURVE('',#390,#389,#201,.T.);
#496=EDGE_CURVE('',#369,#390,#202,.T.);
#497=EDGE_CURVE('',#388,#391,#203,.T.);
#498=EDGE_CURVE('',#391,#390,#204,.T.);
#499=EDGE_CURVE('',#392,#393,#205,.T.);
#500=EDGE_CURVE('',#392,#387,#206,.T.);
#501=EDGE_CURVE('',#393,#383,#207,.T.);
#502=EDGE_CURVE('',#393,#394,#208,.T.);
#503=EDGE_CURVE('',#394,#391,#209,.T.);
#504=EDGE_CURVE('',#394,#395,#210,.T.);
#505=EDGE_CURVE('',#395,#379,#211,.T.);
#506=EDGE_CURVE('',#395,#392,#212,.T.);
#507=ORIENTED_EDGE('',*,*,#396,.F.);
#508=ORIENTED_EDGE('',*,*,#397,.T.);
#509=ORIENTED_EDGE('',*,*,#398,.F.);
#510=ORIENTED_EDGE('',*,*,#399,.F.);
#511=ORIENTED_EDGE('',*,*,#400,.T.);
#512=ORIENTED_EDGE('',*,*,#401,.T.);
#513=ORIENTED_EDGE('',*,*,#398,.T.);
#514=ORIENTED_EDGE('',*,*,#402,.T.);
#515=ORIENTED_EDGE('',*,*,#403,.F.);
#516=ORIENTED_EDGE('',*,*,#404,.T.);
#517=ORIENTED_EDGE('',*,*,#405,.F.);
#518=ORIENTED_EDGE('',*,*,#406,.F.);
#519=ORIENTED_EDGE('',*,*,#405,.T.);
#520=ORIENTED_EDGE('',*,*,#407,.T.);
#521=ORIENTED_EDGE('',*,*,#408,.T.);
#522=ORIENTED_EDGE('',*,*,#409,.T.);
#523=ORIENTED_EDGE('',*,*,#396,.T.);
#524=ORIENTED_EDGE('',*,*,#410,.T.);
#525=ORIENTED_EDGE('',*,*,#411,.T.);
#526=ORIENTED_EDGE('',*,*,#403,.T.);
#527=ORIENTED_EDGE('',*,*,#412,.T.);
#528=ORIENTED_EDGE('',*,*,#413,.T.);
#529=ORIENTED_EDGE('',*,*,#414,.T.);
#530=ORIENTED_EDGE('',*,*,#415,.T.);
#531=ORIENTED_EDGE('',*,*,#416,.T.);
#532=ORIENTED_EDGE('',*,*,#417,.T.);
#533=ORIENTED_EDGE('',*,*,#418,.T.);
#534=ORIENTED_EDGE('',*,*,#419,.T.);
#535=ORIENTED_EDGE('',*,*,#420,.T.);
#536=ORIENTED_EDGE('',*,*,#417,.F.);
#537=ORIENTED_EDGE('',*,*,#421,.T.);
#538=ORIENTED_EDGE('',*,*,#422,.F.);
#539=ORIENTED_EDGE('',*,*,#423,.F.);
#540=ORIENTED_EDGE('',*,*,#422,.T.);
#541=ORIENTED_EDGE('',*,*,#424,.T.);
#542=ORIENTED_EDGE('',*,*,#425,.T.);
#543=ORIENTED_EDGE('',*,*,#426,.T.);
#544=ORIENTED_EDGE('',*,*,#414,.F.);
#545=ORIENTED_EDGE('',*,*,#427,.T.);
#546=ORIENTED_EDGE('',*,*,#428,.F.);
#547=ORIENTED_EDGE('',*,*,#429,.F.);
#548=ORIENTED_EDGE('',*,*,#430,.T.);
#549=ORIENTED_EDGE('',*,*,#428,.T.);
#550=ORIENTED_EDGE('',*,*,#431,.T.);
#551=ORIENTED_EDGE('',*,*,#432,.T.);
#552=ORIENTED_EDGE('',*,*,#420,.F.);
#553=ORIENTED_EDGE('',*,*,#433,.T.);
#554=ORIENTED_EDGE('',*,*,#434,.F.);
#555=ORIENTED_EDGE('',*,*,#433,.F.);
#556=ORIENTED_EDGE('',*,*,#435,.F.);
#557=ORIENTED_EDGE('',*,*,#436,.T.);
#558=ORIENTED_EDGE('',*,*,#432,.F.);
#559=ORIENTED_EDGE('',*,*,#437,.F.);
#560=ORIENTED_EDGE('',*,*,#438,.F.);
#561=ORIENTED_EDGE('',*,*,#437,.T.);
#562=ORIENTED_EDGE('',*,*,#431,.F.);
#563=ORIENTED_EDGE('',*,*,#427,.F.);
#564=ORIENTED_EDGE('',*,*,#413,.F.);
#565=ORIENTED_EDGE('',*,*,#439,.F.);
#566=ORIENTED_EDGE('',*,*,#440,.F.);
#567=ORIENTED_EDGE('',*,*,#439,.T.);
#568=ORIENTED_EDGE('',*,*,#412,.F.);
#569=ORIENTED_EDGE('',*,*,#406,.T.);
#570=ORIENTED_EDGE('',*,*,#409,.F.);
#571=ORIENTED_EDGE('',*,*,#441,.F.);
#572=ORIENTED_EDGE('',*,*,#442,.F.);
#573=ORIENTED_EDGE('',*,*,#441,.T.);
#574=ORIENTED_EDGE('',*,*,#408,.F.);
#575=ORIENTED_EDGE('',*,*,#443,.F.);
#576=ORIENTED_EDGE('',*,*,#444,.F.);
#577=ORIENTED_EDGE('',*,*,#443,.T.);
#578=ORIENTED_EDGE('',*,*,#407,.F.);
#579=ORIENTED_EDGE('',*,*,#404,.F.);
#580=ORIENTED_EDGE('',*,*,#411,.F.);
#581=ORIENTED_EDGE('',*,*,#445,.F.);
#582=ORIENTED_EDGE('',*,*,#446,.F.);
#583=ORIENTED_EDGE('',*,*,#445,.T.);
#584=ORIENTED_EDGE('',*,*,#410,.F.);
#585=ORIENTED_EDGE('',*,*,#399,.T.);
#586=ORIENTED_EDGE('',*,*,#401,.F.);
#587=ORIENTED_EDGE('',*,*,#447,.F.);
#588=ORIENTED_EDGE('',*,*,#448,.F.);
#589=ORIENTED_EDGE('',*,*,#447,.T.);
#590=ORIENTED_EDGE('',*,*,#400,.F.);
#591=ORIENTED_EDGE('',*,*,#449,.F.);
#592=ORIENTED_EDGE('',*,*,#450,.F.);
#593=ORIENTED_EDGE('',*,*,#449,.T.);
#594=ORIENTED_EDGE('',*,*,#402,.F.);
#595=ORIENTED_EDGE('',*,*,#397,.F.);
#596=ORIENTED_EDGE('',*,*,#419,.F.);
#597=ORIENTED_EDGE('',*,*,#451,.F.);
#598=ORIENTED_EDGE('',*,*,#452,.F.);
#599=ORIENTED_EDGE('',*,*,#451,.T.);
#600=ORIENTED_EDGE('',*,*,#418,.F.);
#601=ORIENTED_EDGE('',*,*,#423,.T.);
#602=ORIENTED_EDGE('',*,*,#426,.F.);
#603=ORIENTED_EDGE('',*,*,#453,.F.);
#604=ORIENTED_EDGE('',*,*,#454,.F.);
#605=ORIENTED_EDGE('',*,*,#453,.T.);
#606=ORIENTED_EDGE('',*,*,#425,.F.);
#607=ORIENTED_EDGE('',*,*,#455,.F.);
#608=ORIENTED_EDGE('',*,*,#456,.F.);
#609=ORIENTED_EDGE('',*,*,#455,.T.);
#610=ORIENTED_EDGE('',*,*,#424,.F.);
#611=ORIENTED_EDGE('',*,*,#421,.F.);
#612=ORIENTED_EDGE('',*,*,#416,.F.);
#613=ORIENTED_EDGE('',*,*,#457,.F.);
#614=ORIENTED_EDGE('',*,*,#458,.F.);
#615=ORIENTED_EDGE('',*,*,#457,.T.);
#616=ORIENTED_EDGE('',*,*,#415,.F.);
#617=ORIENTED_EDGE('',*,*,#429,.T.);
#618=ORIENTED_EDGE('',*,*,#430,.F.);
#619=ORIENTED_EDGE('',*,*,#436,.F.);
#620=ORIENTED_EDGE('',*,*,#459,.T.);
#621=ORIENTED_EDGE('',*,*,#460,.T.);
#622=ORIENTED_EDGE('',*,*,#461,.T.);
#623=ORIENTED_EDGE('',*,*,#462,.T.);
#624=ORIENTED_EDGE('',*,*,#463,.T.);
#625=ORIENTED_EDGE('',*,*,#464,.T.);
#626=ORIENTED_EDGE('',*,*,#465,.T.);
#627=ORIENTED_EDGE('',*,*,#466,.T.);
#628=ORIENTED_EDGE('',*,*,#467,.T.);
#629=ORIENTED_EDGE('',*,*,#468,.T.);
#630=ORIENTED_EDGE('',*,*,#469,.T.);
#631=ORIENTED_EDGE('',*,*,#470,.T.);
#632=ORIENTED_EDGE('',*,*,#435,.T.);
#633=ORIENTED_EDGE('',*,*,#438,.T.);
#634=ORIENTED_EDGE('',*,*,#440,.T.);
#635=ORIENTED_EDGE('',*,*,#442,.T.);
#636=ORIENTED_EDGE('',*,*,#444,.T.);
#637=ORIENTED_EDGE('',*,*,#446,.T.);
#638=ORIENTED_EDGE('',*,*,#448,.T.);
#639=ORIENTED_EDGE('',*,*,#450,.T.);
#640=ORIENTED_EDGE('',*,*,#452,.T.);
#641=ORIENTED_EDGE('',*,*,#454,.T.);
#642=ORIENTED_EDGE('',*,*,#456,.T.);
#643=ORIENTED_EDGE('',*,*,#458,.T.);
#644=ORIENTED_EDGE('',*,*,#459,.F.);
#645=ORIENTED_EDGE('',*,*,#471,.T.);
#646=ORIENTED_EDGE('',*,*,#472,.F.);
#647=ORIENTED_EDGE('',*,*,#473,.F.);
#648=ORIENTED_EDGE('',*,*,#460,.F.);
#649=ORIENTED_EDGE('',*,*,#473,.T.);
#650=ORIENTED_EDGE('',*,*,#474,.F.);
#651=ORIENTED_EDGE('',*,*,#475,.F.);
#652=ORIENTED_EDGE('',*,*,#474,.T.);
#653=ORIENTED_EDGE('',*,*,#472,.T.);
#654=ORIENTED_EDGE('',*,*,#476,.T.);
#655=ORIENTED_EDGE('',*,*,#477,.T.);
#656=ORIENTED_EDGE('',*,*,#434,.T.);
#657=ORIENTED_EDGE('',*,*,#465,.F.);
#658=ORIENTED_EDGE('',*,*,#478,.T.);
#659=ORIENTED_EDGE('',*,*,#479,.F.);
#660=ORIENTED_EDGE('',*,*,#480,.F.);
#661=ORIENTED_EDGE('',*,*,#466,.F.);
#662=ORIENTED_EDGE('',*,*,#480,.T.);
#663=ORIENTED_EDGE('',*,*,#481,.F.);
#664=ORIENTED_EDGE('',*,*,#482,.F.);
#665=ORIENTED_EDGE('',*,*,#481,.T.);
#666=ORIENTED_EDGE('',*,*,#479,.T.);
#667=ORIENTED_EDGE('',*,*,#483,.T.);
#668=ORIENTED_EDGE('',*,*,#484,.T.);
#669=ORIENTED_EDGE('',*,*,#468,.F.);
#670=ORIENTED_EDGE('',*,*,#485,.T.);
#671=ORIENTED_EDGE('',*,*,#486,.F.);
#672=ORIENTED_EDGE('',*,*,#487,.F.);
#673=ORIENTED_EDGE('',*,*,#469,.F.);
#674=ORIENTED_EDGE('',*,*,#487,.T.);
#675=ORIENTED_EDGE('',*,*,#488,.F.);
#676=ORIENTED_EDGE('',*,*,#489,.F.);
#677=ORIENTED_EDGE('',*,*,#490,.T.);
#678=ORIENTED_EDGE('',*,*,#491,.T.);
#679=ORIENTED_EDGE('',*,*,#488,.T.);
#680=ORIENTED_EDGE('',*,*,#486,.T.);
#681=ORIENTED_EDGE('',*,*,#462,.F.);
#682=ORIENTED_EDGE('',*,*,#492,.T.);
#683=ORIENTED_EDGE('',*,*,#493,.F.);
#684=ORIENTED_EDGE('',*,*,#494,.F.);
#685=ORIENTED_EDGE('',*,*,#463,.F.);
#686=ORIENTED_EDGE('',*,*,#494,.T.);
#687=ORIENTED_EDGE('',*,*,#495,.F.);
#688=ORIENTED_EDGE('',*,*,#496,.F.);
#689=ORIENTED_EDGE('',*,*,#497,.T.);
#690=ORIENTED_EDGE('',*,*,#498,.T.);
#691=ORIENTED_EDGE('',*,*,#495,.T.);
#692=ORIENTED_EDGE('',*,*,#493,.T.);
#693=ORIENTED_EDGE('',*,*,#499,.F.);
#694=ORIENTED_EDGE('',*,*,#500,.T.);
#695=ORIENTED_EDGE('',*,*,#490,.F.);
#696=ORIENTED_EDGE('',*,*,#485,.F.);
#697=ORIENTED_EDGE('',*,*,#467,.F.);
#698=ORIENTED_EDGE('',*,*,#482,.T.);
#699=ORIENTED_EDGE('',*,*,#484,.F.);
#700=ORIENTED_EDGE('',*,*,#501,.F.);
#701=ORIENTED_EDGE('',*,*,#502,.F.);
#702=ORIENTED_EDGE('',*,*,#501,.T.);
#703=ORIENTED_EDGE('',*,*,#483,.F.);
#704=ORIENTED_EDGE('',*,*,#478,.F.);
#705=ORIENTED_EDGE('',*,*,#464,.F.);
#706=ORIENTED_EDGE('',*,*,#496,.T.);
#707=ORIENTED_EDGE('',*,*,#498,.F.);
#708=ORIENTED_EDGE('',*,*,#503,.F.);
#709=ORIENTED_EDGE('',*,*,#504,.F.);
#710=ORIENTED_EDGE('',*,*,#503,.T.);
#711=ORIENTED_EDGE('',*,*,#497,.F.);
#712=ORIENTED_EDGE('',*,*,#492,.F.);
#713=ORIENTED_EDGE('',*,*,#461,.F.);
#714=ORIENTED_EDGE('',*,*,#475,.T.);
#715=ORIENTED_EDGE('',*,*,#477,.F.);
#716=ORIENTED_EDGE('',*,*,#505,.F.);
#717=ORIENTED_EDGE('',*,*,#506,.F.);
#718=ORIENTED_EDGE('',*,*,#505,.T.);
#719=ORIENTED_EDGE('',*,*,#476,.F.);
#720=ORIENTED_EDGE('',*,*,#471,.F.);
#721=ORIENTED_EDGE('',*,*,#470,.F.);
#722=ORIENTED_EDGE('',*,*,#489,.T.);
#723=ORIENTED_EDGE('',*,*,#491,.F.);
#724=ORIENTED_EDGE('',*,*,#500,.F.);
#725=ORIENTED_EDGE('',*,*,#506,.T.);
#726=ORIENTED_EDGE('',*,*,#499,.T.);
#727=ORIENTED_EDGE('',*,*,#502,.T.);
#728=ORIENTED_EDGE('',*,*,#504,.T.);
#729=PLANE('',#824);
#730=PLANE('',#825);
#731=PLANE('',#826);
#732=PLANE('',#827);
#733=PLANE('',#828);
#734=PLANE('',#830);
#735=PLANE('',#831);
#736=PLANE('',#832);
#737=PLANE('',#833);
#738=PLANE('',#836);
#739=PLANE('',#837);
#740=PLANE('',#838);
#741=PLANE('',#839);
#742=PLANE('',#840);
#743=PLANE('',#841);
#744=PLANE('',#842);
#745=PLANE('',#843);
#746=PLANE('',#844);
#747=PLANE('',#845);
#748=PLANE('',#846);
#749=PLANE('',#847);
#750=PLANE('',#848);
#751=PLANE('',#849);
#752=PLANE('',#850);
#753=PLANE('',#851);
#754=PLANE('',#852);
#755=PLANE('',#853);
#756=PLANE('',#854);
#757=PLANE('',#855);
#758=PLANE('',#856);
#759=PLANE('',#857);
#760=PLANE('',#858);
#761=PLANE('',#859);
#762=PLANE('',#860);
#763=PLANE('',#861);
#764=PLANE('',#862);
#765=PLANE('',#863);
#766=PLANE('',#864);
#767=PLANE('',#865);
#768=PLANE('',#866);
#769=ADVANCED_FACE('',(#20),#729,.T.);
#770=ADVANCED_FACE('',(#21),#730,.T.);
#771=ADVANCED_FACE('',(#22),#731,.T.);
#772=ADVANCED_FACE('',(#23),#732,.T.);
#773=ADVANCED_FACE('',(#24,#16),#733,.T.);
#774=ADVANCED_FACE('',(#25),#734,.T.);
#775=ADVANCED_FACE('',(#26),#735,.T.);
#776=ADVANCED_FACE('',(#27),#736,.T.);
#777=ADVANCED_FACE('',(#28),#737,.T.);
#778=ADVANCED_FACE('',(#29),#15,.F.);
#779=ADVANCED_FACE('',(#30),#738,.T.);
#780=ADVANCED_FACE('',(#31),#739,.T.);
#781=ADVANCED_FACE('',(#32),#740,.T.);
#782=ADVANCED_FACE('',(#33),#741,.T.);
#783=ADVANCED_FACE('',(#34),#742,.T.);
#784=ADVANCED_FACE('',(#35),#743,.T.);
#785=ADVANCED_FACE('',(#36),#744,.T.);
#786=ADVANCED_FACE('',(#37),#745,.T.);
#787=ADVANCED_FACE('',(#38),#746,.T.);
#788=ADVANCED_FACE('',(#39),#747,.T.);
#789=ADVANCED_FACE('',(#40),#748,.T.);
#790=ADVANCED_FACE('',(#41),#749,.T.);
#791=ADVANCED_FACE('',(#42,#17),#750,.T.);
#792=ADVANCED_FACE('',(#43),#751,.T.);
#793=ADVANCED_FACE('',(#44),#752,.T.);
#794=ADVANCED_FACE('',(#45),#753,.T.);
#795=ADVANCED_FACE('',(#46),#754,.T.);
#796=ADVANCED_FACE('',(#47),#755,.T.);
#797=ADVANCED_FACE('',(#48),#756,.T.);
#798=ADVANCED_FACE('',(#49),#757,.T.);
#799=ADVANCED_FACE('',(#50),#758,.T.);
#800=ADVANCED_FACE('',(#51),#759,.T.);
#801=ADVANCED_FACE('',(#52),#760,.T.);
#802=ADVANCED_FACE('',(#53),#761,.T.);
#803=ADVANCED_FACE('',(#54),#762,.T.);
#804=ADVANCED_FACE('',(#55),#763,.T.);
#805=ADVANCED_FACE('',(#56),#764,.T.);
#806=ADVANCED_FACE('',(#57),#765,.T.);
#807=ADVANCED_FACE('',(#58),#766,.T.);
#808=ADVANCED_FACE('',(#59),#767,.T.);
#809=ADVANCED_FACE('',(#60),#768,.F.);
#810=CLOSED_SHELL('',(#769,#770,#771,#772,#773,#774,#775,#776,#777,#778,
#779,#780,#781,#782,#783,#784,#785,#786,#787,#788,#789,#790,#791,#792,#793,
#794,#795,#796,#797,#798,#799,#800,#801,#802,#803,#804,#805,#806,#807,#808,
#809));
#811=DERIVED_UNIT_ELEMENT(#813,1.);
#812=DERIVED_UNIT_ELEMENT(#1296,-3.);
#813=(
MASS_UNIT()
NAMED_UNIT(*)
SI_UNIT(.KILO.,.GRAM.)
);
#814=DERIVED_UNIT((#811,#812));
#815=MEASURE_REPRESENTATION_ITEM('density measure',
POSITIVE_RATIO_MEASURE(7850.),#814);
#816=PROPERTY_DEFINITION_REPRESENTATION(#821,#818);
#817=PROPERTY_DEFINITION_REPRESENTATION(#822,#819);
#818=REPRESENTATION('material name',(#820),#1293);
#819=REPRESENTATION('density',(#815),#1293);
#820=DESCRIPTIVE_REPRESENTATION_ITEM('Steel','Steel');
#821=PROPERTY_DEFINITION('material property','material name',#1303);
#822=PROPERTY_DEFINITION('material property','density of part',#1303);
#823=AXIS2_PLACEMENT_3D('',#1064,#867,#868);
#824=AXIS2_PLACEMENT_3D('',#1065,#869,#870);
#825=AXIS2_PLACEMENT_3D('',#1074,#875,#876);
#826=AXIS2_PLACEMENT_3D('',#1080,#880,#881);
#827=AXIS2_PLACEMENT_3D('',#1089,#886,#887);
#828=AXIS2_PLACEMENT_3D('',#1095,#891,#892);
#829=AXIS2_PLACEMENT_3D('',#1115,#903,#904);
#830=AXIS2_PLACEMENT_3D('',#1116,#905,#906);
#831=AXIS2_PLACEMENT_3D('',#1122,#910,#911);
#832=AXIS2_PLACEMENT_3D('',#1128,#915,#916);
#833=AXIS2_PLACEMENT_3D('',#1134,#920,#921);
#834=AXIS2_PLACEMENT_3D('',#1140,#925,#926);
#835=AXIS2_PLACEMENT_3D('',#1143,#928,#929);
#836=AXIS2_PLACEMENT_3D('',#1144,#930,#931);
#837=AXIS2_PLACEMENT_3D('',#1150,#935,#936);
#838=AXIS2_PLACEMENT_3D('',#1154,#939,#940);
#839=AXIS2_PLACEMENT_3D('',#1158,#943,#944);
#840=AXIS2_PLACEMENT_3D('',#1162,#947,#948);
#841=AXIS2_PLACEMENT_3D('',#1166,#951,#952);
#842=AXIS2_PLACEMENT_3D('',#1170,#955,#956);
#843=AXIS2_PLACEMENT_3D('',#1174,#959,#960);
#844=AXIS2_PLACEMENT_3D('',#1178,#963,#964);
#845=AXIS2_PLACEMENT_3D('',#1182,#967,#968);
#846=AXIS2_PLACEMENT_3D('',#1186,#971,#972);
#847=AXIS2_PLACEMENT_3D('',#1190,#975,#976);
#848=AXIS2_PLACEMENT_3D('',#1192,#978,#979);
#849=AXIS2_PLACEMENT_3D('',#1217,#992,#993);
#850=AXIS2_PLACEMENT_3D('',#1223,#997,#998);
#851=AXIS2_PLACEMENT_3D('',#1227,#1001,#1002);
#852=AXIS2_PLACEMENT_3D('',#1231,#1005,#1006);
#853=AXIS2_PLACEMENT_3D('',#1232,#1007,#1008);
#854=AXIS2_PLACEMENT_3D('',#1238,#1012,#1013);
#855=AXIS2_PLACEMENT_3D('',#1242,#1016,#1017);
#856=AXIS2_PLACEMENT_3D('',#1246,#1020,#1021);
#857=AXIS2_PLACEMENT_3D('',#1252,#1025,#1026);
#858=AXIS2_PLACEMENT_3D('',#1256,#1029,#1030);
#859=AXIS2_PLACEMENT_3D('',#1260,#1033,#1034);
#860=AXIS2_PLACEMENT_3D('',#1266,#1038,#1039);
#861=AXIS2_PLACEMENT_3D('',#1270,#1042,#1043);
#862=AXIS2_PLACEMENT_3D('',#1274,#1046,#1047);
#863=AXIS2_PLACEMENT_3D('',#1280,#1051,#1052);
#864=AXIS2_PLACEMENT_3D('',#1284,#1055,#1056);
#865=AXIS2_PLACEMENT_3D('',#1288,#1059,#1060);
#866=AXIS2_PLACEMENT_3D('',#1290,#1062,#1063);
#867=DIRECTION('axis',(0.,0.,1.));
#868=DIRECTION('refdir',(1.,0.,0.));
#869=DIRECTION('center_axis',(1.,0.,0.));
#870=DIRECTION('ref_axis',(0.,1.,0.));
#871=DIRECTION('',(0.,-1.,0.));
#872=DIRECTION('',(0.,0.,1.));
#873=DIRECTION('',(0.,1.,0.));
#874=DIRECTION('',(0.,0.,1.));
#875=DIRECTION('center_axis',(0.,0.,1.));
#876=DIRECTION('ref_axis',(1.,0.,0.));
#877=DIRECTION('',(0.,-1.,0.));
#878=DIRECTION('',(1.,0.,0.));
#879=DIRECTION('',(-1.,0.,0.));
#880=DIRECTION('center_axis',(0.,1.,0.));
#881=DIRECTION('ref_axis',(-1.,0.,0.));
#882=DIRECTION('',(1.,0.,0.));
#883=DIRECTION('',(0.,0.,1.));
#884=DIRECTION('',(-1.,0.,0.));
#885=DIRECTION('',(0.,0.,1.));
#886=DIRECTION('center_axis',(0.,0.,1.));
#887=DIRECTION('ref_axis',(1.,0.,0.));
#888=DIRECTION('',(0.,-1.,0.));
#889=DIRECTION('',(1.,0.,0.));
#890=DIRECTION('',(0.,1.,0.));
#891=DIRECTION('center_axis',(0.,0.,1.));
#892=DIRECTION('ref_axis',(-1.,0.,0.));
#893=DIRECTION('',(1.,0.,0.));
#894=DIRECTION('',(0.,-1.,0.));
#895=DIRECTION('',(0.,1.,0.));
#896=DIRECTION('',(1.,0.,0.));
#897=DIRECTION('',(0.,1.,0.));
#898=DIRECTION('',(-1.,0.,0.));
#899=DIRECTION('',(0.,1.,0.));
#900=DIRECTION('',(-1.,0.,0.));
#901=DIRECTION('',(0.,-1.,0.));
#902=DIRECTION('',(-1.,0.,0.));
#903=DIRECTION('center_axis',(0.,0.,-1.));
#904=DIRECTION('ref_axis',(-1.,0.,0.));
#905=DIRECTION('center_axis',(0.,-1.,0.));
#906=DIRECTION('ref_axis',(1.,0.,0.));
#907=DIRECTION('',(0.,0.,1.));
#908=DIRECTION('',(1.,0.,0.));
#909=DIRECTION('',(0.,0.,1.));
#910=DIRECTION('center_axis',(0.,0.,1.));
#911=DIRECTION('ref_axis',(1.,0.,0.));
#912=DIRECTION('',(0.,1.,0.));
#913=DIRECTION('',(-1.,5.55111512312578E-16,0.));
#914=DIRECTION('',(0.,-1.,0.));
#915=DIRECTION('center_axis',(-1.,0.,0.));
#916=DIRECTION('ref_axis',(0.,-1.,0.));
#917=DIRECTION('',(0.,0.,1.));
#918=DIRECTION('',(0.,-1.,0.));
#919=DIRECTION('',(0.,0.,1.));
#920=DIRECTION('center_axis',(0.,0.,1.));
#921=DIRECTION('ref_axis',(1.,0.,0.));
#922=DIRECTION('',(-1.,0.,0.));
#923=DIRECTION('',(1.,0.,0.));
#924=DIRECTION('',(0.,1.,0.));
#925=DIRECTION('center_axis',(0.,0.,1.));
#926=DIRECTION('ref_axis',(-1.,0.,0.));
#927=DIRECTION('',(0.,0.,-1.));
#928=DIRECTION('center_axis',(0.,0.,1.));
#929=DIRECTION('ref_axis',(-1.,0.,0.));
#930=DIRECTION('center_axis',(1.,0.,0.));
#931=DIRECTION('ref_axis',(0.,1.,0.));
#932=DIRECTION('',(0.,-1.,0.));
#933=DIRECTION('',(0.,0.,1.));
#934=DIRECTION('',(0.,0.,1.));
#935=DIRECTION('center_axis',(0.,-1.,0.));
#936=DIRECTION('ref_axis',(1.,0.,0.));
#937=DIRECTION('',(-1.,0.,0.));
#938=DIRECTION('',(0.,0.,1.));
#939=DIRECTION('center_axis',(1.,0.,0.));
#940=DIRECTION('ref_axis',(0.,1.,0.));
#941=DIRECTION('',(0.,-1.,0.));
#942=DIRECTION('',(0.,0.,1.));
#943=DIRECTION('center_axis',(0.,-1.,0.));
#944=DIRECTION('ref_axis',(1.,0.,0.));
#945=DIRECTION('',(-1.,0.,0.));
#946=DIRECTION('',(0.,0.,1.));
#947=DIRECTION('center_axis',(-1.,0.,0.));
#948=DIRECTION('ref_axis',(0.,-1.,0.));
#949=DIRECTION('',(0.,1.,0.));
#950=DIRECTION('',(0.,0.,1.));
#951=DIRECTION('center_axis',(0.,-1.,0.));
#952=DIRECTION('ref_axis',(1.,0.,0.));
#953=DIRECTION('',(-1.,0.,0.));
#954=DIRECTION('',(0.,0.,1.));
#955=DIRECTION('center_axis',(-1.,0.,0.));
#956=DIRECTION('ref_axis',(0.,-1.,0.));
#957=DIRECTION('',(0.,1.,0.));
#958=DIRECTION('',(0.,0.,1.));
#959=DIRECTION('center_axis',(0.,1.,0.));
#960=DIRECTION('ref_axis',(-1.,0.,0.));
#961=DIRECTION('',(1.,0.,0.));
#962=DIRECTION('',(0.,0.,1.));
#963=DIRECTION('center_axis',(-1.,0.,0.));
#964=DIRECTION('ref_axis',(0.,-1.,0.));
#965=DIRECTION('',(0.,1.,0.));
#966=DIRECTION('',(0.,0.,1.));
#967=DIRECTION('center_axis',(0.,1.,0.));
#968=DIRECTION('ref_axis',(-1.,0.,0.));
#969=DIRECTION('',(1.,0.,0.));
#970=DIRECTION('',(0.,0.,1.));
#971=DIRECTION('center_axis',(1.,0.,0.));
#972=DIRECTION('ref_axis',(0.,1.,0.));
#973=DIRECTION('',(0.,-1.,0.));
#974=DIRECTION('',(0.,0.,1.));
#975=DIRECTION('center_axis',(0.,1.,0.));
#976=DIRECTION('ref_axis',(-1.,0.,0.));
#977=DIRECTION('',(1.,0.,0.));
#978=DIRECTION('center_axis',(0.,0.,1.));
#979=DIRECTION('ref_axis',(1.,0.,0.));
#980=DIRECTION('',(0.,1.,0.));
#981=DIRECTION('',(1.,0.,0.));
#982=DIRECTION('',(0.,1.,0.));
#983=DIRECTION('',(-1.,0.,0.));
#984=DIRECTION('',(0.,1.,0.));
#985=DIRECTION('',(-1.,0.,0.));
#986=DIRECTION('',(0.,-1.,0.));
#987=DIRECTION('',(-1.,0.,0.));
#988=DIRECTION('',(0.,-1.,0.));
#989=DIRECTION('',(1.,0.,0.));
#990=DIRECTION('',(0.,-1.,0.));
#991=DIRECTION('',(1.,0.,0.));
#992=DIRECTION('center_axis',(-1.,0.,0.));
#993=DIRECTION('ref_axis',(0.,-1.,0.));
#994=DIRECTION('',(0.,0.,1.));
#995=DIRECTION('',(0.,-1.,0.));
#996=DIRECTION('',(0.,0.,1.));
#997=DIRECTION('center_axis',(0.,1.,0.));
#998=DIRECTION('ref_axis',(-1.,0.,0.));
#999=DIRECTION('',(-1.,0.,0.));
#1000=DIRECTION('',(0.,0.,1.));
#1001=DIRECTION('center_axis',(0.,0.,1.));
#1002=DIRECTION('ref_axis',(1.,0.,0.));
#1003=DIRECTION('',(1.,0.,0.));
#1004=DIRECTION('',(0.,1.,0.));
#1005=DIRECTION('center_axis',(0.,0.,1.));
#1006=DIRECTION('ref_axis',(1.,0.,0.));
#1007=DIRECTION('center_axis',(1.,0.,0.));
#1008=DIRECTION('ref_axis',(0.,1.,0.));
#1009=DIRECTION('',(0.,0.,1.));
#1010=DIRECTION('',(0.,1.,0.));
#1011=DIRECTION('',(0.,0.,1.));
#1012=DIRECTION('center_axis',(0.,-1.,0.));
#1013=DIRECTION('ref_axis',(1.,0.,0.));
#1014=DIRECTION('',(1.,0.,0.));
#1015=DIRECTION('',(0.,0.,1.));
#1016=DIRECTION('center_axis',(0.,0.,1.));
#1017=DIRECTION('ref_axis',(1.,0.,0.));
#1018=DIRECTION('',(-1.,0.,0.));
#1019=DIRECTION('',(0.,-1.,0.));
#1020=DIRECTION('center_axis',(0.,1.,0.));
#1021=DIRECTION('ref_axis',(-1.,0.,0.));
#1022=DIRECTION('',(0.,0.,1.));
#1023=DIRECTION('',(-1.,0.,0.));
#1024=DIRECTION('',(0.,0.,1.));
#1025=DIRECTION('center_axis',(1.,0.,0.));
#1026=DIRECTION('ref_axis',(0.,1.,0.));
#1027=DIRECTION('',(0.,1.,0.));
#1028=DIRECTION('',(0.,0.,1.));
#1029=DIRECTION('center_axis',(0.,0.,1.));
#1030=DIRECTION('ref_axis',(1.,0.,0.));
#1031=DIRECTION('',(0.,-1.,0.));
#1032=DIRECTION('',(1.,0.,0.));
#1033=DIRECTION('center_axis',(0.,-1.,0.));
#1034=DIRECTION('ref_axis',(1.,0.,0.));
#1035=DIRECTION('',(0.,0.,1.));
#1036=DIRECTION('',(1.,0.,0.));
#1037=DIRECTION('',(0.,0.,1.));
#1038=DIRECTION('center_axis',(-1.,0.,0.));
#1039=DIRECTION('ref_axis',(0.,-1.,0.));
#1040=DIRECTION('',(0.,-1.,0.));
#1041=DIRECTION('',(0.,0.,1.));
#1042=DIRECTION('center_axis',(0.,0.,1.));
#1043=DIRECTION('ref_axis',(1.,0.,0.));
#1044=DIRECTION('',(0.,1.,0.));
#1045=DIRECTION('',(-1.,0.,0.));
#1046=DIRECTION('center_axis',(-1.,0.,0.));
#1047=DIRECTION('ref_axis',(0.,-1.,0.));
#1048=DIRECTION('',(0.,1.,0.));
#1049=DIRECTION('',(0.,0.,1.));
#1050=DIRECTION('',(0.,0.,1.));
#1051=DIRECTION('center_axis',(0.,1.,0.));
#1052=DIRECTION('ref_axis',(-1.,0.,0.));
#1053=DIRECTION('',(1.,0.,0.));
#1054=DIRECTION('',(0.,0.,1.));
#1055=DIRECTION('center_axis',(1.,0.,0.));
#1056=DIRECTION('ref_axis',(0.,1.,0.));
#1057=DIRECTION('',(0.,-1.,0.));
#1058=DIRECTION('',(0.,0.,1.));
#1059=DIRECTION('center_axis',(0.,-1.,0.));
#1060=DIRECTION('ref_axis',(1.,0.,0.));
#1061=DIRECTION('',(-1.,0.,0.));
#1062=DIRECTION('center_axis',(0.,0.,1.));
#1063=DIRECTION('ref_axis',(1.,0.,0.));
#1064=CARTESIAN_POINT('',(0.,0.,0.));
#1065=CARTESIAN_POINT('Origin',(18.3833291298757,-24.7186298295739,6.3));
#1066=CARTESIAN_POINT('',(18.3833291298757,-20.7186298295739,6.3));
#1067=CARTESIAN_POINT('',(18.3833291298757,-24.7186298295739,6.3));
#1068=CARTESIAN_POINT('',(18.3833291298757,-23.7186298295739,6.3));
#1069=CARTESIAN_POINT('',(18.3833291298757,-20.7186298295739,8.3));
#1070=CARTESIAN_POINT('',(18.3833291298757,-20.7186298295739,6.3));
#1071=CARTESIAN_POINT('',(18.3833291298757,-24.7186298295739,8.3));
#1072=CARTESIAN_POINT('',(18.3833291298757,-24.7186298295739,8.3));
#1073=CARTESIAN_POINT('',(18.3833291298757,-24.7186298295739,6.3));
#1074=CARTESIAN_POINT('Origin',(17.3833291298757,-22.7186298295739,8.3));
#1075=CARTESIAN_POINT('',(16.3833291298757,-20.7186298295739,8.3));
#1076=CARTESIAN_POINT('',(16.3833291298757,-24.7186298295739,8.3));
#1077=CARTESIAN_POINT('',(16.3833291298757,-20.7186298295739,8.3));
#1078=CARTESIAN_POINT('',(16.3833291298757,-24.7186298295739,8.3));
#1079=CARTESIAN_POINT('',(18.3833291298757,-20.7186298295739,8.3));
#1080=CARTESIAN_POINT('Origin',(27.1333291298757,-29.4686298295739,6.3));
#1081=CARTESIAN_POINT('',(23.1333291298757,-29.4686298295739,6.3));
#1082=CARTESIAN_POINT('',(27.1333291298757,-29.4686298295739,6.3));
#1083=CARTESIAN_POINT('',(26.1333291298757,-29.4686298295739,6.3));
#1084=CARTESIAN_POINT('',(23.1333291298757,-29.4686298295739,8.3));
#1085=CARTESIAN_POINT('',(23.1333291298757,-29.4686298295739,6.3));
#1086=CARTESIAN_POINT('',(27.1333291298757,-29.4686298295739,8.3));
#1087=CARTESIAN_POINT('',(23.1333291298757,-29.4686298295739,8.3));
#1088=CARTESIAN_POINT('',(27.1333291298757,-29.4686298295739,6.3));
#1089=CARTESIAN_POINT('Origin',(25.1333291298757,-30.4686298295739,8.3));
#1090=CARTESIAN_POINT('',(23.1333291298757,-31.4686298295739,8.3));
#1091=CARTESIAN_POINT('',(23.1333291298757,-31.4686298295739,8.3));
#1092=CARTESIAN_POINT('',(27.1333291298757,-31.4686298295739,8.3));
#1093=CARTESIAN_POINT('',(27.1333291298757,-31.4686298295739,8.3));
#1094=CARTESIAN_POINT('',(27.1333291298757,-29.4686298295739,8.3));
#1095=CARTESIAN_POINT('Origin',(25.1333291298757,-22.7186298295739,6.3));
#1096=CARTESIAN_POINT('',(23.1333291298757,-24.7186298295739,6.3));
#1097=CARTESIAN_POINT('',(33.8833291298757,-24.7186298295739,6.3));
#1098=CARTESIAN_POINT('',(23.1333291298757,-31.4686298295739,6.3));
#1099=CARTESIAN_POINT('',(27.1333291298757,-24.7186298295739,6.3));
#1100=CARTESIAN_POINT('',(27.1333291298757,-13.9686298295739,6.3));
#1101=CARTESIAN_POINT('',(31.8833291298757,-24.7186298295739,6.3));
#1102=CARTESIAN_POINT('',(33.8833291298757,-24.7186298295739,6.3));
#1103=CARTESIAN_POINT('',(31.8833291298757,-20.7186298295739,6.3));
#1104=CARTESIAN_POINT('',(31.8833291298757,-21.7186298295739,6.3));
#1105=CARTESIAN_POINT('',(27.1333291298757,-20.7186298295739,6.3));
#1106=CARTESIAN_POINT('',(16.3833291298757,-20.7186298295739,6.3));
#1107=CARTESIAN_POINT('',(27.1333291298757,-15.9686298295739,6.3));
#1108=CARTESIAN_POINT('',(27.1333291298757,-13.9686298295739,6.3));
#1109=CARTESIAN_POINT('',(23.1333291298757,-15.9686298295739,6.3));
#1110=CARTESIAN_POINT('',(24.1333291298757,-15.9686298295739,6.3));
#1111=CARTESIAN_POINT('',(23.1333291298757,-20.7186298295739,6.3));
#1112=CARTESIAN_POINT('',(23.1333291298757,-31.4686298295739,6.3));
#1113=CARTESIAN_POINT('',(16.3833291298757,-20.7186298295739,6.3));
#1114=CARTESIAN_POINT('',(27.1333291298757,-22.7186298295739,6.3));
#1115=CARTESIAN_POINT('Origin',(25.1333291298757,-22.7186298295739,6.3));
#1116=CARTESIAN_POINT('Origin',(23.1333291298757,-15.9686298295739,6.3));
#1117=CARTESIAN_POINT('',(27.1333291298757,-15.9686298295739,8.3));
#1118=CARTESIAN_POINT('',(27.1333291298757,-15.9686298295739,6.3));
#1119=CARTESIAN_POINT('',(23.1333291298757,-15.9686298295739,8.3));
#1120=CARTESIAN_POINT('',(27.1333291298757,-15.9686298295739,8.3));
#1121=CARTESIAN_POINT('',(23.1333291298757,-15.9686298295739,6.3));
#1122=CARTESIAN_POINT('Origin',(25.1333291298757,-14.9686298295739,8.3));
#1123=CARTESIAN_POINT('',(27.1333291298757,-13.9686298295739,8.3));
#1124=CARTESIAN_POINT('',(27.1333291298757,-13.9686298295739,8.3));
#1125=CARTESIAN_POINT('',(23.1333291298757,-13.9686298295739,8.3));
#1126=CARTESIAN_POINT('',(23.1333291298757,-13.9686298295739,8.3));
#1127=CARTESIAN_POINT('',(23.1333291298757,-15.9686298295739,8.3));
#1128=CARTESIAN_POINT('Origin',(31.8833291298757,-20.7186298295739,6.3));
#1129=CARTESIAN_POINT('',(31.8833291298757,-24.7186298295739,8.3));
#1130=CARTESIAN_POINT('',(31.8833291298757,-24.7186298295739,6.3));
#1131=CARTESIAN_POINT('',(31.8833291298757,-20.7186298295739,8.3));
#1132=CARTESIAN_POINT('',(31.8833291298757,-24.7186298295739,8.3));
#1133=CARTESIAN_POINT('',(31.8833291298757,-20.7186298295739,6.3));
#1134=CARTESIAN_POINT('Origin',(32.8833291298757,-22.7186298295739,8.3));
#1135=CARTESIAN_POINT('',(33.8833291298757,-20.7186298295739,8.3));
#1136=CARTESIAN_POINT('',(31.8833291298757,-20.7186298295739,8.3));
#1137=CARTESIAN_POINT('',(33.8833291298757,-24.7186298295739,8.3));
#1138=CARTESIAN_POINT('',(33.8833291298757,-24.7186298295739,8.3));
#1139=CARTESIAN_POINT('',(33.8833291298757,-20.7186298295739,8.3));
#1140=CARTESIAN_POINT('Origin',(25.1333291298757,-22.7186298295739,3.));
#1141=CARTESIAN_POINT('',(27.1333291298757,-22.7186298295739,3.));
#1142=CARTESIAN_POINT('',(27.1333291298757,-22.7186298295739,3.));
#1143=CARTESIAN_POINT('Origin',(25.1333291298757,-22.7186298295739,3.));
#1144=CARTESIAN_POINT('Origin',(33.8833291298757,-24.7186298295739,3.));
#1145=CARTESIAN_POINT('',(33.8833291298757,-20.7186298295739,3.));
#1146=CARTESIAN_POINT('',(33.8833291298757,-24.7186298295739,3.));
#1147=CARTESIAN_POINT('',(33.8833291298757,-23.7186298295739,3.));
#1148=CARTESIAN_POINT('',(33.8833291298757,-20.7186298295739,3.));
#1149=CARTESIAN_POINT('',(33.8833291298757,-24.7186298295739,3.));
#1150=CARTESIAN_POINT('Origin',(27.1333291298757,-24.7186298295739,3.));
#1151=CARTESIAN_POINT('',(27.1333291298757,-24.7186298295739,3.));
#1152=CARTESIAN_POINT('',(26.1333291298757,-24.7186298295739,3.));
#1153=CARTESIAN_POINT('',(27.1333291298757,-24.7186298295739,3.));
#1154=CARTESIAN_POINT('Origin',(27.1333291298757,-31.4686298295739,3.));
#1155=CARTESIAN_POINT('',(27.1333291298757,-31.4686298295739,3.));
#1156=CARTESIAN_POINT('',(27.1333291298757,-27.0936298295739,3.));
#1157=CARTESIAN_POINT('',(27.1333291298757,-31.4686298295739,3.));
#1158=CARTESIAN_POINT('Origin',(23.1333291298757,-31.4686298295739,3.));
#1159=CARTESIAN_POINT('',(23.1333291298757,-31.4686298295739,3.));
#1160=CARTESIAN_POINT('',(24.1333291298757,-31.4686298295739,3.));
#1161=CARTESIAN_POINT('',(23.1333291298757,-31.4686298295739,3.));
#1162=CARTESIAN_POINT('Origin',(23.1333291298757,-24.7186298295739,3.));
#1163=CARTESIAN_POINT('',(23.1333291298757,-24.7186298295739,3.));
#1164=CARTESIAN_POINT('',(23.1333291298757,-23.7186298295739,3.));
#1165=CARTESIAN_POINT('',(23.1333291298757,-24.7186298295739,3.));
#1166=CARTESIAN_POINT('Origin',(16.3833291298757,-24.7186298295739,3.));
#1167=CARTESIAN_POINT('',(16.3833291298757,-24.7186298295739,3.));
#1168=CARTESIAN_POINT('',(20.7583291298757,-24.7186298295739,3.));
#1169=CARTESIAN_POINT('',(16.3833291298757,-24.7186298295739,3.));
#1170=CARTESIAN_POINT('Origin',(16.3833291298757,-20.7186298295739,3.));
#1171=CARTESIAN_POINT('',(16.3833291298757,-20.7186298295739,3.));
#1172=CARTESIAN_POINT('',(16.3833291298757,-21.7186298295739,3.));
#1173=CARTESIAN_POINT('',(16.3833291298757,-20.7186298295739,3.));
#1174=CARTESIAN_POINT('Origin',(23.1333291298757,-20.7186298295739,3.));
#1175=CARTESIAN_POINT('',(23.1333291298757,-20.7186298295739,3.));
#1176=CARTESIAN_POINT('',(24.1333291298757,-20.7186298295739,3.));
#1177=CARTESIAN_POINT('',(23.1333291298757,-20.7186298295739,3.));
#1178=CARTESIAN_POINT('Origin',(23.1333291298757,-13.9686298295739,3.));
#1179=CARTESIAN_POINT('',(23.1333291298757,-13.9686298295739,3.));
#1180=CARTESIAN_POINT('',(23.1333291298757,-18.3436298295739,3.));
#1181=CARTESIAN_POINT('',(23.1333291298757,-13.9686298295739,3.));
#1182=CARTESIAN_POINT('Origin',(27.1333291298757,-13.9686298295739,3.));
#1183=CARTESIAN_POINT('',(27.1333291298757,-13.9686298295739,3.));
#1184=CARTESIAN_POINT('',(26.1333291298757,-13.9686298295739,3.));
#1185=CARTESIAN_POINT('',(27.1333291298757,-13.9686298295739,3.));
#1186=CARTESIAN_POINT('Origin',(27.1333291298757,-20.7186298295739,3.));
#1187=CARTESIAN_POINT('',(27.1333291298757,-20.7186298295739,3.));
#1188=CARTESIAN_POINT('',(27.1333291298757,-21.7186298295739,3.));
#1189=CARTESIAN_POINT('',(27.1333291298757,-20.7186298295739,3.));
#1190=CARTESIAN_POINT('Origin',(33.8833291298757,-20.7186298295739,3.));
#1191=CARTESIAN_POINT('',(29.5083291298757,-20.7186298295739,3.));
#1192=CARTESIAN_POINT('Origin',(25.1333291298757,-22.7186298295739,3.));
#1193=CARTESIAN_POINT('',(90.1333291298757,-92.7186298295739,3.));
#1194=CARTESIAN_POINT('',(90.1333291298757,-87.7186298295739,3.));
#1195=CARTESIAN_POINT('',(90.1333291298757,-55.2186298295739,3.));
#1196=CARTESIAN_POINT('',(95.1333291298757,-87.7186298295739,3.));
#1197=CARTESIAN_POINT('',(60.1333291298757,-87.7186298295739,3.));
#1198=CARTESIAN_POINT('',(95.1333291298757,42.2813701704261,3.));
#1199=CARTESIAN_POINT('',(95.1333291298757,47.2813701704261,3.));
#1200=CARTESIAN_POINT('',(90.1333291298757,42.2813701704261,3.));
#1201=CARTESIAN_POINT('',(57.6333291298757,42.2813701704261,3.));
#1202=CARTESIAN_POINT('',(90.1333291298757,47.2813701704261,3.));
#1203=CARTESIAN_POINT('',(90.1333291298757,12.2813701704261,3.));
#1204=CARTESIAN_POINT('',(-39.8666708701243,47.2813701704261,3.));
#1205=CARTESIAN_POINT('',(-44.8666708701243,47.2813701704261,3.));
#1206=CARTESIAN_POINT('',(-39.8666708701243,42.2813701704261,3.));
#1207=CARTESIAN_POINT('',(-39.8666708701243,9.78137017042608,3.));
#1208=CARTESIAN_POINT('',(-44.8666708701243,42.2813701704261,3.));
#1209=CARTESIAN_POINT('',(-9.86667087012426,42.2813701704261,3.));
#1210=CARTESIAN_POINT('',(-44.8666708701243,-87.7186298295739,3.));
#1211=CARTESIAN_POINT('',(-44.8666708701243,-92.7186298295739,3.));
#1212=CARTESIAN_POINT('',(-39.8666708701243,-87.7186298295739,3.));
#1213=CARTESIAN_POINT('',(-7.36667087012426,-87.7186298295739,3.));
#1214=CARTESIAN_POINT('',(-39.8666708701243,-92.7186298295739,3.));
#1215=CARTESIAN_POINT('',(-39.8666708701243,-57.7186298295739,3.));
#1216=CARTESIAN_POINT('',(95.1333291298757,-92.7186298295739,3.));
#1217=CARTESIAN_POINT('Origin',(90.1333291298757,-87.7186298295739,3.));
#1218=CARTESIAN_POINT('',(90.1333291298757,-92.7186298295739,51.));
#1219=CARTESIAN_POINT('',(90.1333291298757,-92.7186298295739,3.));
#1220=CARTESIAN_POINT('',(90.1333291298757,-87.7186298295739,51.));
#1221=CARTESIAN_POINT('',(90.1333291298757,-92.7186298295739,51.));
#1222=CARTESIAN_POINT('',(90.1333291298757,-87.7186298295739,3.));
#1223=CARTESIAN_POINT('Origin',(95.1333291298757,-87.7186298295739,3.));
#1224=CARTESIAN_POINT('',(95.1333291298757,-87.7186298295739,51.));
#1225=CARTESIAN_POINT('',(90.1333291298757,-87.7186298295739,51.));
#1226=CARTESIAN_POINT('',(95.1333291298757,-87.7186298295739,3.));
#1227=CARTESIAN_POINT('Origin',(92.6333291298757,-90.2186298295739,51.));
#1228=CARTESIAN_POINT('',(95.1333291298757,-92.7186298295739,51.));
#1229=CARTESIAN_POINT('',(95.1333291298757,-92.7186298295739,51.));
#1230=CARTESIAN_POINT('',(95.1333291298757,-87.7186298295739,51.));
#1231=CARTESIAN_POINT('Origin',(25.1333291298757,-22.7186298295739,3.));
#1232=CARTESIAN_POINT('Origin',(-39.8666708701243,42.2813701704261,3.));
#1233=CARTESIAN_POINT('',(-39.8666708701243,47.2813701704261,51.));
#1234=CARTESIAN_POINT('',(-39.8666708701243,47.2813701704261,3.));
#1235=CARTESIAN_POINT('',(-39.8666708701243,42.2813701704261,51.));
#1236=CARTESIAN_POINT('',(-39.8666708701243,47.2813701704261,51.));
#1237=CARTESIAN_POINT('',(-39.8666708701243,42.2813701704261,3.));
#1238=CARTESIAN_POINT('Origin',(-44.8666708701243,42.2813701704261,3.));
#1239=CARTESIAN_POINT('',(-44.8666708701243,42.2813701704261,51.));
#1240=CARTESIAN_POINT('',(-39.8666708701243,42.2813701704261,51.));
#1241=CARTESIAN_POINT('',(-44.8666708701243,42.2813701704261,3.));
#1242=CARTESIAN_POINT('Origin',(-42.3666708701243,44.7813701704261,51.));
#1243=CARTESIAN_POINT('',(-44.8666708701243,47.2813701704261,51.));
#1244=CARTESIAN_POINT('',(-44.8666708701243,47.2813701704261,51.));
#1245=CARTESIAN_POINT('',(-44.8666708701243,42.2813701704261,51.));
#1246=CARTESIAN_POINT('Origin',(-39.8666708701243,-87.7186298295739,3.));
#1247=CARTESIAN_POINT('',(-44.8666708701243,-87.7186298295739,51.));
#1248=CARTESIAN_POINT('',(-44.8666708701243,-87.7186298295739,3.));
#1249=CARTESIAN_POINT('',(-39.8666708701243,-87.7186298295739,51.));
#1250=CARTESIAN_POINT('',(-39.8666708701243,-87.7186298295739,51.));
#1251=CARTESIAN_POINT('',(-39.8666708701243,-87.7186298295739,3.));
#1252=CARTESIAN_POINT('Origin',(-39.8666708701243,-92.7186298295739,3.));
#1253=CARTESIAN_POINT('',(-39.8666708701243,-92.7186298295739,51.));
#1254=CARTESIAN_POINT('',(-39.8666708701243,-92.7186298295739,51.));
#1255=CARTESIAN_POINT('',(-39.8666708701243,-92.7186298295739,3.));
#1256=CARTESIAN_POINT('Origin',(-42.3666708701243,-90.2186298295739,51.));
#1257=CARTESIAN_POINT('',(-44.8666708701243,-92.7186298295739,51.));
#1258=CARTESIAN_POINT('',(-44.8666708701243,-87.7186298295739,51.));
#1259=CARTESIAN_POINT('',(-44.8666708701243,-92.7186298295739,51.));
#1260=CARTESIAN_POINT('Origin',(90.1333291298757,42.2813701704261,3.));
#1261=CARTESIAN_POINT('',(95.1333291298757,42.2813701704261,51.));
#1262=CARTESIAN_POINT('',(95.1333291298757,42.2813701704261,3.));
#1263=CARTESIAN_POINT('',(90.1333291298757,42.2813701704261,51.));
#1264=CARTESIAN_POINT('',(90.1333291298757,42.2813701704261,51.));
#1265=CARTESIAN_POINT('',(90.1333291298757,42.2813701704261,3.));
#1266=CARTESIAN_POINT('Origin',(90.1333291298757,47.2813701704261,3.));
#1267=CARTESIAN_POINT('',(90.1333291298757,47.2813701704261,51.));
#1268=CARTESIAN_POINT('',(90.1333291298757,47.2813701704261,51.));
#1269=CARTESIAN_POINT('',(90.1333291298757,47.2813701704261,3.));
#1270=CARTESIAN_POINT('Origin',(92.6333291298757,44.7813701704261,51.));
#1271=CARTESIAN_POINT('',(95.1333291298757,47.2813701704261,51.));
#1272=CARTESIAN_POINT('',(95.1333291298757,42.2813701704261,51.));
#1273=CARTESIAN_POINT('',(95.1333291298757,47.2813701704261,51.));
#1274=CARTESIAN_POINT('Origin',(-44.8666708701243,47.2813701704261,0.));
#1275=CARTESIAN_POINT('',(-44.8666708701243,-92.7186298295739,0.));
#1276=CARTESIAN_POINT('',(-44.8666708701243,47.2813701704261,0.));
#1277=CARTESIAN_POINT('',(-44.8666708701243,-92.7186298295739,0.));
#1278=CARTESIAN_POINT('',(-44.8666708701243,-92.7186298295739,0.));
#1279=CARTESIAN_POINT('',(-44.8666708701243,47.2813701704261,0.));
#1280=CARTESIAN_POINT('Origin',(95.1333291298757,47.2813701704261,0.));
#1281=CARTESIAN_POINT('',(95.1333291298757,47.2813701704261,0.));
#1282=CARTESIAN_POINT('',(-44.8666708701243,47.2813701704261,0.));
#1283=CARTESIAN_POINT('',(95.1333291298757,47.2813701704261,0.));
#1284=CARTESIAN_POINT('Origin',(95.1333291298757,-92.7186298295739,0.));
#1285=CARTESIAN_POINT('',(95.1333291298757,-92.7186298295739,0.));
#1286=CARTESIAN_POINT('',(95.1333291298757,47.2813701704261,0.));
#1287=CARTESIAN_POINT('',(95.1333291298757,-92.7186298295739,0.));
#1288=CARTESIAN_POINT('Origin',(-44.8666708701243,-92.7186298295739,0.));
#1289=CARTESIAN_POINT('',(95.1333291298757,-92.7186298295739,0.));
#1290=CARTESIAN_POINT('Origin',(25.1333291298757,-22.7186298295739,0.));
#1291=UNCERTAINTY_MEASURE_WITH_UNIT(LENGTH_MEASURE(0.01),#1295,
'DISTANCE_ACCURACY_VALUE',
'Maximum model space distance between geometric entities at asserted c
onnectivities');
#1292=UNCERTAINTY_MEASURE_WITH_UNIT(LENGTH_MEASURE(0.01),#1295,
'DISTANCE_ACCURACY_VALUE',
'Maximum model space distance between geometric entities at asserted c
onnectivities');
#1293=(
GEOMETRIC_REPRESENTATION_CONTEXT(3)
GLOBAL_UNCERTAINTY_ASSIGNED_CONTEXT((#1291))
GLOBAL_UNIT_ASSIGNED_CONTEXT((#1295,#1297,#1298))
REPRESENTATION_CONTEXT('','3D')
);
#1294=(
GEOMETRIC_REPRESENTATION_CONTEXT(3)
GLOBAL_UNCERTAINTY_ASSIGNED_CONTEXT((#1292))
GLOBAL_UNIT_ASSIGNED_CONTEXT((#1295,#1297,#1298))
REPRESENTATION_CONTEXT('','3D')
);
#1295=(
LENGTH_UNIT()
NAMED_UNIT(*)
SI_UNIT(.MILLI.,.METRE.)
);
#1296=(
LENGTH_UNIT()
NAMED_UNIT(*)
SI_UNIT($,.METRE.)
);
#1297=(
NAMED_UNIT(*)
PLANE_ANGLE_UNIT()
SI_UNIT($,.RADIAN.)
);
#1298=(
NAMED_UNIT(*)
SI_UNIT($,.STERADIAN.)
SOLID_ANGLE_UNIT()
);
#1299=SHAPE_DEFINITION_REPRESENTATION(#1300,#1301);
#1300=PRODUCT_DEFINITION_SHAPE('',$,#1303);
#1301=SHAPE_REPRESENTATION('',(#823),#1293);
#1302=PRODUCT_DEFINITION_CONTEXT('part definition',#1307,'design');
#1303=PRODUCT_DEFINITION('2026-02-08-13-47-04-236','Desk',#1304,#1302);
#1304=PRODUCT_DEFINITION_FORMATION('',$,#1309);
#1305=PRODUCT_RELATED_PRODUCT_CATEGORY('Desk','Desk',(#1309));
#1306=APPLICATION_PROTOCOL_DEFINITION('international standard',
'automotive_design',2009,#1307);
#1307=APPLICATION_CONTEXT(
'Core Data for Automotive Mechanical Design Process');
#1308=PRODUCT_CONTEXT('part definition',#1307,'mechanical');
#1309=PRODUCT('2026-02-08-13-47-04-236','Desk',$,(#1308));
#1310=PRESENTATION_STYLE_ASSIGNMENT((#1311));
#1311=SURFACE_STYLE_USAGE(.BOTH.,#1312);
#1312=SURFACE_SIDE_STYLE('',(#1313));
#1313=SURFACE_STYLE_FILL_AREA(#1314);
#1314=FILL_AREA_STYLE('Steel - Satin',(#1315));
#1315=FILL_AREA_STYLE_COLOUR('Steel - Satin',#1316);
#1316=COLOUR_RGB('Steel - Satin',0.627450980392157,0.627450980392157,0.627450980392157);
ENDSEC;
END-ISO-10303-21;
