ISO-10303-21;
HEADER;
/* Generated by software containing ST-Developer
 * from STEP Tools, Inc. (www.steptools.com) 
 */

FILE_DESCRIPTION(
/* description */ (''),
/* implementation_level */ '2;1');

FILE_NAME(
/* name */ 'Speaker.step',
/* time_stamp */ '2026-08-18T21:37:06+02:00',
/* author */ (''),
/* organization */ (''),
/* preprocessor_version */ 'ST-DEVELOPER v20.1',
/* originating_system */ 'Autodesk Translation Framework v15.8.0.0',
/* authorisation */ '');

FILE_SCHEMA (('AUTOMOTIVE_DESIGN { 1 0 10303 214 3 1 1 }'));
ENDSEC;

DATA;
#10=MECHANICAL_DESIGN_GEOMETRIC_PRESENTATION_REPRESENTATION('',(#13),#411);
#11=SHAPE_REPRESENTATION_RELATIONSHIP('SRR','None',#418,#12);
#12=ADVANCED_BREP_SHAPE_REPRESENTATION('',(#14),#410);
#13=STYLED_ITEM('',(#427),#14);
#14=MANIFOLD_SOLID_BREP('Body1',#63);
#15=FACE_BOUND('',#25,.T.);
#16=FACE_BOUND('',#28,.T.);
#17=PLANE('',#79);
#18=PLANE('',#82);
#19=FACE_OUTER_BOUND('',#23,.T.);
#20=FACE_OUTER_BOUND('',#24,.T.);
#21=FACE_OUTER_BOUND('',#26,.T.);
#22=FACE_OUTER_BOUND('',#27,.T.);
#23=EDGE_LOOP('',(#45,#46,#47,#48));
#24=EDGE_LOOP('',(#49));
#25=EDGE_LOOP('',(#50));
#26=EDGE_LOOP('',(#51,#52,#53,#54));
#27=EDGE_LOOP('',(#55));
#28=EDGE_LOOP('',(#56));
#29=CIRCLE('',#77,8.);
#30=CIRCLE('',#78,80.);
#31=CIRCLE('',#80,85.);
#32=CIRCLE('',#81,10.9999999701977);
#33=(
BOUNDED_CURVE()
B_SPLINE_CURVE(5,(#235,#236,#237,#238,#239,#240,#241,#242,#243,#244,#245,
#246,#247,#248,#249),.UNSPECIFIED.,.F.,.F.)
B_SPLINE_CURVE_WITH_KNOTS((6,1,1,1,1,1,1,1,1,1,6),(0.,0.1,0.2,0.3,0.4,0.5,
0.6,0.7,0.8,0.9,1.),.UNSPECIFIED.)
CURVE()
GEOMETRIC_REPRESENTATION_ITEM()
RATIONAL_B_SPLINE_CURVE((1.,1.,1.,1.,1.,1.,1.,1.,1.,1.,1.,1.,1.,1.,1.))
REPRESENTATION_ITEM('')
);
#34=(
BOUNDED_CURVE()
B_SPLINE_CURVE(5,(#391,#392,#393,#394,#395,#396,#397,#398,#399,#400,#401,
#402,#403,#404,#405),.UNSPECIFIED.,.F.,.F.)
B_SPLINE_CURVE_WITH_KNOTS((6,1,1,1,1,1,1,1,1,1,6),(0.,0.1,0.2,0.3,0.4,0.5,
0.6,0.7,0.8,0.9,1.),.UNSPECIFIED.)
CURVE()
GEOMETRIC_REPRESENTATION_ITEM()
RATIONAL_B_SPLINE_CURVE((1.,1.,1.,1.,1.,1.,1.,1.,1.,1.,1.,1.,1.,1.,1.))
REPRESENTATION_ITEM('')
);
#35=VERTEX_POINT('',#233);
#36=VERTEX_POINT('',#234);
#37=VERTEX_POINT('',#253);
#38=VERTEX_POINT('',#390);
#39=EDGE_CURVE('',#35,#36,#33,.T.);
#40=EDGE_CURVE('',#36,#36,#29,.T.);
#41=EDGE_CURVE('',#35,#35,#30,.T.);
#42=EDGE_CURVE('',#37,#37,#31,.T.);
#43=EDGE_CURVE('',#37,#38,#34,.T.);
#44=EDGE_CURVE('',#38,#38,#32,.T.);
#45=ORIENTED_EDGE('',*,*,#39,.T.);
#46=ORIENTED_EDGE('',*,*,#40,.F.);
#47=ORIENTED_EDGE('',*,*,#39,.F.);
#48=ORIENTED_EDGE('',*,*,#41,.F.);
#49=ORIENTED_EDGE('',*,*,#42,.F.);
#50=ORIENTED_EDGE('',*,*,#41,.T.);
#51=ORIENTED_EDGE('',*,*,#43,.F.);
#52=ORIENTED_EDGE('',*,*,#42,.T.);
#53=ORIENTED_EDGE('',*,*,#43,.T.);
#54=ORIENTED_EDGE('',*,*,#44,.F.);
#55=ORIENTED_EDGE('',*,*,#44,.T.);
#56=ORIENTED_EDGE('',*,*,#40,.T.);
#57=(
BOUNDED_SURFACE()
B_SPLINE_SURFACE(5,2,((#98,#99,#100,#101,#102,#103,#104,#105,#106),(#107,
#108,#109,#110,#111,#112,#113,#114,#115),(#116,#117,#118,#119,#120,#121,
#122,#123,#124),(#125,#126,#127,#128,#129,#130,#131,#132,#133),(#134,#135,
#136,#137,#138,#139,#140,#141,#142),(#143,#144,#145,#146,#147,#148,#149,
#150,#151),(#152,#153,#154,#155,#156,#157,#158,#159,#160),(#161,#162,#163,
#164,#165,#166,#167,#168,#169),(#170,#171,#172,#173,#174,#175,#176,#177,
#178),(#179,#180,#181,#182,#183,#184,#185,#186,#187),(#188,#189,#190,#191,
#192,#193,#194,#195,#196),(#197,#198,#199,#200,#201,#202,#203,#204,#205),
(#206,#207,#208,#209,#210,#211,#212,#213,#214),(#215,#216,#217,#218,#219,
#220,#221,#222,#223),(#224,#225,#226,#227,#228,#229,#230,#231,#232)),
 .UNSPECIFIED.,.F.,.T.,.F.)
B_SPLINE_SURFACE_WITH_KNOTS((6,1,1,1,1,1,1,1,1,1,6),(3,2,2,2,3),(-1.,-0.9,
-0.8,-0.7,-0.6,-0.5,-0.4,-0.3,-0.2,-0.1,0.),(0.,1.5707963267949,3.14159265358979,
4.71238898038469,6.28318530717959),.UNSPECIFIED.)
GEOMETRIC_REPRESENTATION_ITEM()
RATIONAL_B_SPLINE_SURFACE(((1.,0.707106781186548,1.,0.707106781186548,1.,
0.707106781186548,1.,0.707106781186548,1.),(1.,0.707106781186548,1.,0.707106781186548,
1.,0.707106781186548,1.,0.707106781186548,1.),(1.,0.707106781186548,1.,
0.707106781186548,1.,0.707106781186548,1.,0.707106781186548,1.),(1.,0.707106781186548,
1.,0.707106781186548,1.,0.707106781186548,1.,0.707106781186548,1.),(1.,
0.707106781186548,1.,0.707106781186548,1.,0.707106781186548,1.,0.707106781186548,
1.),(1.,0.707106781186548,1.,0.707106781186548,1.,0.707106781186548,1.,
0.707106781186548,1.),(1.,0.707106781186548,1.,0.707106781186548,1.,0.707106781186548,
1.,0.707106781186548,1.),(1.,0.707106781186548,1.,0.707106781186548,1.,
0.707106781186548,1.,0.707106781186548,1.),(1.,0.707106781186548,1.,0.707106781186548,
1.,0.707106781186548,1.,0.707106781186548,1.),(1.,0.707106781186548,1.,
0.707106781186548,1.,0.707106781186548,1.,0.707106781186548,1.),(1.,0.707106781186548,
1.,0.707106781186548,1.,0.707106781186548,1.,0.707106781186548,1.),(1.,
0.707106781186548,1.,0.707106781186548,1.,0.707106781186548,1.,0.707106781186548,
1.),(1.,0.707106781186548,1.,0.707106781186548,1.,0.707106781186548,1.,
0.707106781186548,1.),(1.,0.707106781186548,1.,0.707106781186548,1.,0.707106781186548,
1.,0.707106781186548,1.),(1.,0.707106781186548,1.,0.707106781186548,1.,
0.707106781186548,1.,0.707106781186548,1.)))
REPRESENTATION_ITEM('')
SURFACE()
);
#58=(
BOUNDED_SURFACE()
B_SPLINE_SURFACE(5,2,((#255,#256,#257,#258,#259,#260,#261,#262,#263),(#264,
#265,#266,#267,#268,#269,#270,#271,#272),(#273,#274,#275,#276,#277,#278,
#279,#280,#281),(#282,#283,#284,#285,#286,#287,#288,#289,#290),(#291,#292,
#293,#294,#295,#296,#297,#298,#299),(#300,#301,#302,#303,#304,#305,#306,
#307,#308),(#309,#310,#311,#312,#313,#314,#315,#316,#317),(#318,#319,#320,
#321,#322,#323,#324,#325,#326),(#327,#328,#329,#330,#331,#332,#333,#334,
#335),(#336,#337,#338,#339,#340,#341,#342,#343,#344),(#345,#346,#347,#348,
#349,#350,#351,#352,#353),(#354,#355,#356,#357,#358,#359,#360,#361,#362),
(#363,#364,#365,#366,#367,#368,#369,#370,#371),(#372,#373,#374,#375,#376,
#377,#378,#379,#380),(#381,#382,#383,#384,#385,#386,#387,#388,#389)),
 .UNSPECIFIED.,.F.,.T.,.F.)
B_SPLINE_SURFACE_WITH_KNOTS((6,1,1,1,1,1,1,1,1,1,6),(3,2,2,2,3),(-1.,-0.9,
-0.8,-0.7,-0.6,-0.5,-0.4,-0.3,-0.2,-0.1,0.),(0.,1.5707963267949,3.14159265358979,
4.71238898038469,6.28318530717959),.UNSPECIFIED.)
GEOMETRIC_REPRESENTATION_ITEM()
RATIONAL_B_SPLINE_SURFACE(((1.,0.707106781186548,1.,0.707106781186548,1.,
0.707106781186548,1.,0.707106781186548,1.),(1.,0.707106781186548,1.,0.707106781186548,
1.,0.707106781186548,1.,0.707106781186548,1.),(1.,0.707106781186548,1.,
0.707106781186548,1.,0.707106781186548,1.,0.707106781186548,1.),(1.,0.707106781186548,
1.,0.707106781186548,1.,0.707106781186548,1.,0.707106781186548,1.),(1.,
0.707106781186548,1.,0.707106781186548,1.,0.707106781186548,1.,0.707106781186548,
1.),(1.,0.707106781186548,1.,0.707106781186548,1.,0.707106781186548,1.,
0.707106781186548,1.),(1.,0.707106781186548,1.,0.707106781186548,1.,0.707106781186548,
1.,0.707106781186548,1.),(1.,0.707106781186548,1.,0.707106781186548,1.,
0.707106781186548,1.,0.707106781186548,1.),(1.,0.707106781186548,1.,0.707106781186548,
1.,0.707106781186548,1.,0.707106781186548,1.),(1.,0.707106781186548,1.,
0.707106781186548,1.,0.707106781186548,1.,0.707106781186548,1.),(1.,0.707106781186548,
1.,0.707106781186548,1.,0.707106781186548,1.,0.707106781186548,1.),(1.,
0.707106781186548,1.,0.707106781186548,1.,0.707106781186548,1.,0.707106781186548,
1.),(1.,0.707106781186548,1.,0.707106781186548,1.,0.707106781186548,1.,
0.707106781186548,1.),(1.,0.707106781186548,1.,0.707106781186548,1.,0.707106781186548,
1.,0.707106781186548,1.),(1.,0.707106781186548,1.,0.707106781186548,1.,
0.707106781186548,1.,0.707106781186548,1.)))
REPRESENTATION_ITEM('')
SURFACE()
);
#59=ADVANCED_FACE('',(#19),#57,.F.);
#60=ADVANCED_FACE('',(#20,#15),#17,.T.);
#61=ADVANCED_FACE('',(#21),#58,.T.);
#62=ADVANCED_FACE('',(#22,#16),#18,.T.);
#63=CLOSED_SHELL('',(#59,#60,#61,#62));
#64=DERIVED_UNIT_ELEMENT(#66,1.);
#65=DERIVED_UNIT_ELEMENT(#413,-3.);
#66=(
MASS_UNIT()
NAMED_UNIT(*)
SI_UNIT(.KILO.,.GRAM.)
);
#67=DERIVED_UNIT((#64,#65));
#68=MEASURE_REPRESENTATION_ITEM('density measure',
POSITIVE_RATIO_MEASURE(7850.),#67);
#69=PROPERTY_DEFINITION_REPRESENTATION(#74,#71);
#70=PROPERTY_DEFINITION_REPRESENTATION(#75,#72);
#71=REPRESENTATION('material name',(#73),#410);
#72=REPRESENTATION('density',(#68),#410);
#73=DESCRIPTIVE_REPRESENTATION_ITEM('Steel','Steel');
#74=PROPERTY_DEFINITION('material property','material name',#420);
#75=PROPERTY_DEFINITION('material property','density of part',#420);
#76=AXIS2_PLACEMENT_3D('',#97,#83,#84);
#77=AXIS2_PLACEMENT_3D('',#250,#85,#86);
#78=AXIS2_PLACEMENT_3D('',#251,#87,#88);
#79=AXIS2_PLACEMENT_3D('',#252,#89,#90);
#80=AXIS2_PLACEMENT_3D('',#254,#91,#92);
#81=AXIS2_PLACEMENT_3D('',#406,#93,#94);
#82=AXIS2_PLACEMENT_3D('',#407,#95,#96);
#83=DIRECTION('axis',(0.,0.,1.));
#84=DIRECTION('refdir',(1.,0.,0.));
#85=DIRECTION('center_axis',(0.,-2.22044604925031E-16,-1.));
#86=DIRECTION('ref_axis',(1.,0.,0.));
#87=DIRECTION('center_axis',(0.,2.22044604925031E-16,1.));
#88=DIRECTION('ref_axis',(1.,0.,0.));
#89=DIRECTION('center_axis',(0.,-2.22044604925031E-16,-1.));
#90=DIRECTION('ref_axis',(0.,1.,-2.22044604925031E-16));
#91=DIRECTION('center_axis',(0.,2.22044604925031E-16,1.));
#92=DIRECTION('ref_axis',(1.,0.,0.));
#93=DIRECTION('center_axis',(0.,2.22044604925031E-16,1.));
#94=DIRECTION('ref_axis',(1.,0.,0.));
#95=DIRECTION('center_axis',(0.,2.22044604925031E-16,1.));
#96=DIRECTION('ref_axis',(0.,-1.,2.22044604925031E-16));
#97=CARTESIAN_POINT('',(0.,0.,0.));
#98=CARTESIAN_POINT('Ctrl Pts',(8.,85.0000000000001,170.));
#99=CARTESIAN_POINT('Ctrl Pts',(8.,93.0000000000001,170.));
#100=CARTESIAN_POINT('Ctrl Pts',(0.,93.0000000000001,170.));
#101=CARTESIAN_POINT('Ctrl Pts',(-8.,93.0000000000001,170.));
#102=CARTESIAN_POINT('Ctrl Pts',(-8.,85.0000000000001,170.));
#103=CARTESIAN_POINT('Ctrl Pts',(-8.,77.0000000000001,170.));
#104=CARTESIAN_POINT('Ctrl Pts',(0.,77.0000000000001,170.));
#105=CARTESIAN_POINT('Ctrl Pts',(8.,77.0000000000001,170.));
#106=CARTESIAN_POINT('Ctrl Pts',(8.,85.0000000000001,170.));
#107=CARTESIAN_POINT('Ctrl Pts',(7.74992451603107,85.0000000000001,165.457166883947));
#108=CARTESIAN_POINT('Ctrl Pts',(7.74992451603106,92.7499245160311,165.457166883947));
#109=CARTESIAN_POINT('Ctrl Pts',(0.,92.7499245160311,165.457166883947));
#110=CARTESIAN_POINT('Ctrl Pts',(-7.74992451603106,92.7499245160311,165.457166883947));
#111=CARTESIAN_POINT('Ctrl Pts',(-7.74992451603107,85.0000000000001,165.457166883947));
#112=CARTESIAN_POINT('Ctrl Pts',(-7.74992451603106,77.250075483969,165.457166883947));
#113=CARTESIAN_POINT('Ctrl Pts',(0.,77.250075483969,165.457166883947));
#114=CARTESIAN_POINT('Ctrl Pts',(7.74992451603106,77.250075483969,165.457166883947));
#115=CARTESIAN_POINT('Ctrl Pts',(7.74992451603107,85.0000000000001,165.457166883947));
#116=CARTESIAN_POINT('Ctrl Pts',(7.39412762571645,85.0000000000001,156.469113227083));
#117=CARTESIAN_POINT('Ctrl Pts',(7.39412762571644,92.3941276257165,156.469113227083));
#118=CARTESIAN_POINT('Ctrl Pts',(0.,92.3941276257165,156.469113227083));
#119=CARTESIAN_POINT('Ctrl Pts',(-7.39412762571644,92.3941276257165,156.469113227083));
#120=CARTESIAN_POINT('Ctrl Pts',(-7.39412762571645,85.0000000000001,156.469113227083));
#121=CARTESIAN_POINT('Ctrl Pts',(-7.39412762571644,77.6058723742836,156.469113227083));
#122=CARTESIAN_POINT('Ctrl Pts',(0.,77.6058723742836,156.469113227083));
#123=CARTESIAN_POINT('Ctrl Pts',(7.39412762571644,77.6058723742836,156.469113227083));
#124=CARTESIAN_POINT('Ctrl Pts',(7.39412762571645,85.0000000000001,156.469113227083));
#125=CARTESIAN_POINT('Ctrl Pts',(7.29346892852169,85.0000000000001,143.279853160392));
#126=CARTESIAN_POINT('Ctrl Pts',(7.29346892852168,92.2934689285217,143.279853160392));
#127=CARTESIAN_POINT('Ctrl Pts',(0.,92.2934689285218,143.279853160392));
#128=CARTESIAN_POINT('Ctrl Pts',(-7.29346892852168,92.2934689285217,143.279853160392));
#129=CARTESIAN_POINT('Ctrl Pts',(-7.29346892852169,85.0000000000001,143.279853160392));
#130=CARTESIAN_POINT('Ctrl Pts',(-7.29346892852168,77.7065310714784,143.279853160392));
#131=CARTESIAN_POINT('Ctrl Pts',(0.,77.7065310714784,143.279853160392));
#132=CARTESIAN_POINT('Ctrl Pts',(7.29346892852168,77.7065310714784,143.279853160392));
#133=CARTESIAN_POINT('Ctrl Pts',(7.29346892852169,85.0000000000001,143.279853160392));
#134=CARTESIAN_POINT('Ctrl Pts',(8.03980047697088,85.0000000000001,126.289598468403));
#135=CARTESIAN_POINT('Ctrl Pts',(8.03980047697088,93.0398004769709,126.289598468403));
#136=CARTESIAN_POINT('Ctrl Pts',(0.,93.0398004769709,126.289598468403));
#137=CARTESIAN_POINT('Ctrl Pts',(-8.03980047697088,93.0398004769709,126.289598468403));
#138=CARTESIAN_POINT('Ctrl Pts',(-8.03980047697088,85.0000000000001,126.289598468403));
#139=CARTESIAN_POINT('Ctrl Pts',(-8.03980047697088,76.9601995230292,126.289598468403));
#140=CARTESIAN_POINT('Ctrl Pts',(0.,76.9601995230292,126.289598468403));
#141=CARTESIAN_POINT('Ctrl Pts',(8.03980047697088,76.9601995230292,126.289598468403));
#142=CARTESIAN_POINT('Ctrl Pts',(8.03980047697088,85.0000000000001,126.289598468403));
#143=CARTESIAN_POINT('Ctrl Pts',(10.5427190227525,85.0000000000001,106.113420667118));
#144=CARTESIAN_POINT('Ctrl Pts',(10.5427190227525,95.5427190227525,106.113420667118));
#145=CARTESIAN_POINT('Ctrl Pts',(0.,95.5427190227526,106.113420667118));
#146=CARTESIAN_POINT('Ctrl Pts',(-10.5427190227525,95.5427190227525,106.113420667118));
#147=CARTESIAN_POINT('Ctrl Pts',(-10.5427190227525,85.0000000000001,106.113420667118));
#148=CARTESIAN_POINT('Ctrl Pts',(-10.5427190227525,74.4572809772476,106.113420667118));
#149=CARTESIAN_POINT('Ctrl Pts',(0.,74.4572809772476,106.113420667118));
#150=CARTESIAN_POINT('Ctrl Pts',(10.5427190227525,74.4572809772476,106.113420667118));
#151=CARTESIAN_POINT('Ctrl Pts',(10.5427190227525,85.0000000000001,106.113420667118));
#152=CARTESIAN_POINT('Ctrl Pts',(14.7663427201889,85.0000000000001,87.1007878370058));
#153=CARTESIAN_POINT('Ctrl Pts',(14.7663427201889,99.766342720189,87.1007878370058));
#154=CARTESIAN_POINT('Ctrl Pts',(0.,99.766342720189,87.1007878370058));
#155=CARTESIAN_POINT('Ctrl Pts',(-14.7663427201889,99.766342720189,87.1007878370058));
#156=CARTESIAN_POINT('Ctrl Pts',(-14.7663427201889,85.0000000000001,87.1007878370058));
#157=CARTESIAN_POINT('Ctrl Pts',(-14.7663427201889,70.2336572798111,87.1007878370058));
#158=CARTESIAN_POINT('Ctrl Pts',(0.,70.2336572798111,87.1007878370058));
#159=CARTESIAN_POINT('Ctrl Pts',(14.7663427201889,70.2336572798111,87.1007878370058));
#160=CARTESIAN_POINT('Ctrl Pts',(14.7663427201889,85.0000000000001,87.1007878370058));
#161=CARTESIAN_POINT('Ctrl Pts',(20.8682405774789,85.0000000000001,69.3582485212164));
#162=CARTESIAN_POINT('Ctrl Pts',(20.8682405774789,105.868240577479,69.3582485212164));
#163=CARTESIAN_POINT('Ctrl Pts',(0.,105.868240577479,69.3582485212164));
#164=CARTESIAN_POINT('Ctrl Pts',(-20.8682405774789,105.868240577479,69.3582485212164));
#165=CARTESIAN_POINT('Ctrl Pts',(-20.8682405774789,85.0000000000001,69.3582485212164));
#166=CARTESIAN_POINT('Ctrl Pts',(-20.8682405774789,64.1317594225211,69.3582485212164));
#167=CARTESIAN_POINT('Ctrl Pts',(0.,64.1317594225211,69.3582485212164));
#168=CARTESIAN_POINT('Ctrl Pts',(20.8682405774789,64.1317594225211,69.3582485212164));
#169=CARTESIAN_POINT('Ctrl Pts',(20.8682405774789,85.0000000000001,69.3582485212164));
#170=CARTESIAN_POINT('Ctrl Pts',(28.9631968325547,85.0000000000001,52.9634200981182));
#171=CARTESIAN_POINT('Ctrl Pts',(28.9631968325547,113.963196832555,52.9634200981182));
#172=CARTESIAN_POINT('Ctrl Pts',(0.,113.963196832555,52.9634200981182));
#173=CARTESIAN_POINT('Ctrl Pts',(-28.9631968325547,113.963196832555,52.9634200981182));
#174=CARTESIAN_POINT('Ctrl Pts',(-28.9631968325547,85.0000000000001,52.9634200981182));
#175=CARTESIAN_POINT('Ctrl Pts',(-28.9631968325547,56.0368031674454,52.9634200981182));
#176=CARTESIAN_POINT('Ctrl Pts',(0.,56.0368031674454,52.9634200981182));
#177=CARTESIAN_POINT('Ctrl Pts',(28.9631968325547,56.0368031674454,52.9634200981182));
#178=CARTESIAN_POINT('Ctrl Pts',(28.9631968325547,85.0000000000001,52.9634200981182));
#179=CARTESIAN_POINT('Ctrl Pts',(39.0153303821556,85.,37.8920396791986));
#180=CARTESIAN_POINT('Ctrl Pts',(39.0153303821556,124.015330382156,37.8920396791986));
#181=CARTESIAN_POINT('Ctrl Pts',(0.,124.015330382156,37.8920396791986));
#182=CARTESIAN_POINT('Ctrl Pts',(-39.0153303821556,124.015330382156,37.8920396791986));
#183=CARTESIAN_POINT('Ctrl Pts',(-39.0153303821556,85.,37.8920396791986));
#184=CARTESIAN_POINT('Ctrl Pts',(-39.0153303821556,45.9846696178444,37.8920396791986));
#185=CARTESIAN_POINT('Ctrl Pts',(0.,45.9846696178444,37.8920396791986));
#186=CARTESIAN_POINT('Ctrl Pts',(39.0153303821556,45.9846696178444,37.8920396791986));
#187=CARTESIAN_POINT('Ctrl Pts',(39.0153303821556,85.,37.8920396791986));
#188=CARTESIAN_POINT('Ctrl Pts',(50.8944244835477,85.,24.0560543891454));
#189=CARTESIAN_POINT('Ctrl Pts',(50.8944244835477,135.894424483548,24.0560543891454));
#190=CARTESIAN_POINT('Ctrl Pts',(0.,135.894424483548,24.0560543891454));
#191=CARTESIAN_POINT('Ctrl Pts',(-50.8944244835477,135.894424483548,24.0560543891454));
#192=CARTESIAN_POINT('Ctrl Pts',(-50.8944244835477,85.,24.0560543891454));
#193=CARTESIAN_POINT('Ctrl Pts',(-50.8944244835477,34.1055755164524,24.0560543891455));
#194=CARTESIAN_POINT('Ctrl Pts',(0.,34.1055755164524,24.0560543891455));
#195=CARTESIAN_POINT('Ctrl Pts',(50.8944244835477,34.1055755164524,24.0560543891455));
#196=CARTESIAN_POINT('Ctrl Pts',(50.8944244835477,85.,24.0560543891454));
#197=CARTESIAN_POINT('Ctrl Pts',(61.748307604342,85.,13.9005504338298));
#198=CARTESIAN_POINT('Ctrl Pts',(61.748307604342,146.748307604342,13.9005504338298));
#199=CARTESIAN_POINT('Ctrl Pts',(0.,146.748307604342,13.9005504338298));
#200=CARTESIAN_POINT('Ctrl Pts',(-61.748307604342,146.748307604342,13.9005504338298));
#201=CARTESIAN_POINT('Ctrl Pts',(-61.748307604342,85.,13.9005504338298));
#202=CARTESIAN_POINT('Ctrl Pts',(-61.748307604342,23.251692395658,13.9005504338298));
#203=CARTESIAN_POINT('Ctrl Pts',(0.,23.251692395658,13.9005504338298));
#204=CARTESIAN_POINT('Ctrl Pts',(61.748307604342,23.251692395658,13.9005504338298));
#205=CARTESIAN_POINT('Ctrl Pts',(61.748307604342,85.,13.9005504338298));
#206=CARTESIAN_POINT('Ctrl Pts',(70.601454999789,85.,6.76587562942533));
#207=CARTESIAN_POINT('Ctrl Pts',(70.601454999789,155.601454999789,6.76587562942533));
#208=CARTESIAN_POINT('Ctrl Pts',(0.,155.601454999789,6.76587562942533));
#209=CARTESIAN_POINT('Ctrl Pts',(-70.601454999789,155.601454999789,6.76587562942533));
#210=CARTESIAN_POINT('Ctrl Pts',(-70.601454999789,85.,6.76587562942533));
#211=CARTESIAN_POINT('Ctrl Pts',(-70.601454999789,14.3985450002111,6.76587562942533));
#212=CARTESIAN_POINT('Ctrl Pts',(0.,14.398545000211,6.76587562942533));
#213=CARTESIAN_POINT('Ctrl Pts',(70.601454999789,14.3985450002111,6.76587562942533));
#214=CARTESIAN_POINT('Ctrl Pts',(70.601454999789,85.,6.76587562942533));
#215=CARTESIAN_POINT('Ctrl Pts',(76.8152094434211,85.,2.22016841996147));
#216=CARTESIAN_POINT('Ctrl Pts',(76.8152094434211,161.815209443421,2.22016841996147));
#217=CARTESIAN_POINT('Ctrl Pts',(0.,161.815209443421,2.22016841996147));
#218=CARTESIAN_POINT('Ctrl Pts',(-76.8152094434211,161.815209443421,2.22016841996147));
#219=CARTESIAN_POINT('Ctrl Pts',(-76.8152094434211,85.,2.22016841996147));
#220=CARTESIAN_POINT('Ctrl Pts',(-76.8152094434211,8.18479055657895,2.22016841996147));
#221=CARTESIAN_POINT('Ctrl Pts',(0.,8.18479055657893,2.22016841996147));
#222=CARTESIAN_POINT('Ctrl Pts',(76.8152094434211,8.18479055657895,2.22016841996147));
#223=CARTESIAN_POINT('Ctrl Pts',(76.8152094434211,85.,2.22016841996147));
#224=CARTESIAN_POINT('Ctrl Pts',(80.,85.,7.105427357601E-14));
#225=CARTESIAN_POINT('Ctrl Pts',(80.,165.,7.105427357601E-14));
#226=CARTESIAN_POINT('Ctrl Pts',(0.,165.,7.105427357601E-14));
#227=CARTESIAN_POINT('Ctrl Pts',(-80.,165.,7.105427357601E-14));
#228=CARTESIAN_POINT('Ctrl Pts',(-80.,85.,7.105427357601E-14));
#229=CARTESIAN_POINT('Ctrl Pts',(-80.,5.00000000000005,7.105427357601E-14));
#230=CARTESIAN_POINT('Ctrl Pts',(0.,5.00000000000004,7.105427357601E-14));
#231=CARTESIAN_POINT('Ctrl Pts',(80.,5.00000000000005,7.105427357601E-14));
#232=CARTESIAN_POINT('Ctrl Pts',(80.,85.,7.105427357601E-14));
#233=CARTESIAN_POINT('',(80.,85.,7.105427357601E-14));
#234=CARTESIAN_POINT('',(8.,85.0000000000001,170.));
#235=CARTESIAN_POINT('Ctrl Pts',(80.,85.,7.105427357601E-14));
#236=CARTESIAN_POINT('Ctrl Pts',(76.8152094434211,85.,2.22016841996147));
#237=CARTESIAN_POINT('Ctrl Pts',(70.601454999789,85.,6.76587562942533));
#238=CARTESIAN_POINT('Ctrl Pts',(61.748307604342,85.,13.9005504338298));
#239=CARTESIAN_POINT('Ctrl Pts',(50.8944244835477,85.,24.0560543891454));
#240=CARTESIAN_POINT('Ctrl Pts',(39.0153303821556,85.,37.8920396791986));
#241=CARTESIAN_POINT('Ctrl Pts',(28.9631968325547,85.0000000000001,52.9634200981182));
#242=CARTESIAN_POINT('Ctrl Pts',(20.8682405774789,85.0000000000001,69.3582485212164));
#243=CARTESIAN_POINT('Ctrl Pts',(14.7663427201889,85.0000000000001,87.1007878370058));
#244=CARTESIAN_POINT('Ctrl Pts',(10.5427190227525,85.0000000000001,106.113420667118));
#245=CARTESIAN_POINT('Ctrl Pts',(8.03980047697088,85.0000000000001,126.289598468403));
#246=CARTESIAN_POINT('Ctrl Pts',(7.29346892852169,85.0000000000001,143.279853160392));
#247=CARTESIAN_POINT('Ctrl Pts',(7.39412762571645,85.0000000000001,156.469113227083));
#248=CARTESIAN_POINT('Ctrl Pts',(7.74992451603107,85.0000000000001,165.457166883947));
#249=CARTESIAN_POINT('Ctrl Pts',(8.,85.0000000000001,170.));
#250=CARTESIAN_POINT('Origin',(0.,85.0000000000001,170.));
#251=CARTESIAN_POINT('Origin',(0.,85.,7.105427357601E-14));
#252=CARTESIAN_POINT('Origin',(85.,85.,7.105427357601E-14));
#253=CARTESIAN_POINT('',(85.,85.,7.105427357601E-14));
#254=CARTESIAN_POINT('Origin',(0.,85.,7.105427357601E-14));
#255=CARTESIAN_POINT('Ctrl Pts',(10.9999999701977,85.0000000000001,170.));
#256=CARTESIAN_POINT('Ctrl Pts',(10.9999999701977,95.9999999701978,170.));
#257=CARTESIAN_POINT('Ctrl Pts',(0.,95.9999999701978,170.));
#258=CARTESIAN_POINT('Ctrl Pts',(-10.9999999701977,95.9999999701978,170.));
#259=CARTESIAN_POINT('Ctrl Pts',(-10.9999999701977,85.0000000000001,170.));
#260=CARTESIAN_POINT('Ctrl Pts',(-10.9999999701977,74.0000000298024,170.));
#261=CARTESIAN_POINT('Ctrl Pts',(0.,74.0000000298024,170.));
#262=CARTESIAN_POINT('Ctrl Pts',(10.9999999701977,74.0000000298024,170.));
#263=CARTESIAN_POINT('Ctrl Pts',(10.9999999701977,85.0000000000001,170.));
#264=CARTESIAN_POINT('Ctrl Pts',(10.8594469676946,85.0000000000001,165.461915677948));
#265=CARTESIAN_POINT('Ctrl Pts',(10.8594469676946,95.8594469676947,165.461915677948));
#266=CARTESIAN_POINT('Ctrl Pts',(0.,95.8594469676947,165.461915677948));
#267=CARTESIAN_POINT('Ctrl Pts',(-10.8594469676946,95.8594469676947,165.461915677948));
#268=CARTESIAN_POINT('Ctrl Pts',(-10.8594469676946,85.0000000000001,165.461915677948));
#269=CARTESIAN_POINT('Ctrl Pts',(-10.8594469676946,74.1405530323055,165.461915677948));
#270=CARTESIAN_POINT('Ctrl Pts',(0.,74.1405530323055,165.461915677948));
#271=CARTESIAN_POINT('Ctrl Pts',(10.8594469676946,74.1405530323055,165.461915677948));
#272=CARTESIAN_POINT('Ctrl Pts',(10.8594469676946,85.0000000000001,165.461915677948));
#273=CARTESIAN_POINT('Ctrl Pts',(10.7167113889357,85.0000000000001,156.482922018212));
#274=CARTESIAN_POINT('Ctrl Pts',(10.7167113889357,95.7167113889358,156.482922018212));
#275=CARTESIAN_POINT('Ctrl Pts',(0.,95.7167113889358,156.482922018212));
#276=CARTESIAN_POINT('Ctrl Pts',(-10.7167113889357,95.7167113889358,156.482922018212));
#277=CARTESIAN_POINT('Ctrl Pts',(-10.7167113889357,85.0000000000001,156.482922018212));
#278=CARTESIAN_POINT('Ctrl Pts',(-10.7167113889357,74.2832886110643,156.482922018212));
#279=CARTESIAN_POINT('Ctrl Pts',(0.,74.2832886110643,156.482922018212));
#280=CARTESIAN_POINT('Ctrl Pts',(10.7167113889357,74.2832886110643,156.482922018212));
#281=CARTESIAN_POINT('Ctrl Pts',(10.7167113889357,85.0000000000001,156.482922018212));
#282=CARTESIAN_POINT('Ctrl Pts',(10.9176946539902,85.0000000000001,143.305939173607));
#283=CARTESIAN_POINT('Ctrl Pts',(10.9176946539902,95.9176946539903,143.305939173607));
#284=CARTESIAN_POINT('Ctrl Pts',(0.,95.9176946539903,143.305939173607));
#285=CARTESIAN_POINT('Ctrl Pts',(-10.9176946539902,95.9176946539903,143.305939173607));
#286=CARTESIAN_POINT('Ctrl Pts',(-10.9176946539902,85.0000000000001,143.305939173607));
#287=CARTESIAN_POINT('Ctrl Pts',(-10.9176946539902,74.0823053460098,143.305939173607));
#288=CARTESIAN_POINT('Ctrl Pts',(0.,74.0823053460098,143.305939173607));
#289=CARTESIAN_POINT('Ctrl Pts',(10.9176946539902,74.0823053460098,143.305939173607));
#290=CARTESIAN_POINT('Ctrl Pts',(10.9176946539902,85.0000000000001,143.305939173607));
#291=CARTESIAN_POINT('Ctrl Pts',(12.0297166433284,85.0000000000001,126.329385375633));
#292=CARTESIAN_POINT('Ctrl Pts',(12.0297166433284,97.0297166433285,126.329385375633));
#293=CARTESIAN_POINT('Ctrl Pts',(0.,97.0297166433285,126.329385375633));
#294=CARTESIAN_POINT('Ctrl Pts',(-12.0297166433284,97.0297166433285,126.329385375633));
#295=CARTESIAN_POINT('Ctrl Pts',(-12.0297166433284,85.0000000000001,126.329385375633));
#296=CARTESIAN_POINT('Ctrl Pts',(-12.0297166433284,72.9702833566717,126.329385375633));
#297=CARTESIAN_POINT('Ctrl Pts',(0.,72.9702833566717,126.329385375633));
#298=CARTESIAN_POINT('Ctrl Pts',(12.0297166433284,72.9702833566717,126.329385375633));
#299=CARTESIAN_POINT('Ctrl Pts',(12.0297166433284,85.0000000000001,126.329385375633));
#300=CARTESIAN_POINT('Ctrl Pts',(14.9247123036765,85.0000000000001,106.165604367946));
#301=CARTESIAN_POINT('Ctrl Pts',(14.9247123036765,99.9247123036766,106.165604367946));
#302=CARTESIAN_POINT('Ctrl Pts',(0.,99.9247123036766,106.165604367946));
#303=CARTESIAN_POINT('Ctrl Pts',(-14.9247123036765,99.9247123036766,106.165604367946));
#304=CARTESIAN_POINT('Ctrl Pts',(-14.9247123036765,85.0000000000001,106.165604367946));
#305=CARTESIAN_POINT('Ctrl Pts',(-14.9247123036765,70.0752876963235,106.165604367946));
#306=CARTESIAN_POINT('Ctrl Pts',(0.,70.0752876963235,106.165604367946));
#307=CARTESIAN_POINT('Ctrl Pts',(14.9247123036765,70.0752876963235,106.165604367946));
#308=CARTESIAN_POINT('Ctrl Pts',(14.9247123036765,85.0000000000001,106.165604367946));
#309=CARTESIAN_POINT('Ctrl Pts',(19.4692747718356,85.0000000000001,87.1602835393147));
#310=CARTESIAN_POINT('Ctrl Pts',(19.4692747718356,104.469274771836,87.1602835393147));
#311=CARTESIAN_POINT('Ctrl Pts',(0.,104.469274771836,87.1602835393147));
#312=CARTESIAN_POINT('Ctrl Pts',(-19.4692747718356,104.469274771836,87.1602835393147));
#313=CARTESIAN_POINT('Ctrl Pts',(-19.4692747718356,85.0000000000001,87.1602835393147));
#314=CARTESIAN_POINT('Ctrl Pts',(-19.4692747718356,65.5307252281645,87.1602835393147));
#315=CARTESIAN_POINT('Ctrl Pts',(0.,65.5307252281644,87.1602835393147));
#316=CARTESIAN_POINT('Ctrl Pts',(19.4692747718356,65.5307252281645,87.1602835393147));
#317=CARTESIAN_POINT('Ctrl Pts',(19.4692747718356,85.0000000000001,87.1602835393147));
#318=CARTESIAN_POINT('Ctrl Pts',(25.8147046430837,85.0000000000001,69.4196784920396));
#319=CARTESIAN_POINT('Ctrl Pts',(25.8147046430837,110.814704643084,69.4196784920396));
#320=CARTESIAN_POINT('Ctrl Pts',(0.,110.814704643084,69.4196784920396));
#321=CARTESIAN_POINT('Ctrl Pts',(-25.8147046430837,110.814704643084,69.4196784920396));
#322=CARTESIAN_POINT('Ctrl Pts',(-25.8147046430837,85.0000000000001,69.4196784920396));
#323=CARTESIAN_POINT('Ctrl Pts',(-25.8147046430837,59.1852953569163,69.4196784920396));
#324=CARTESIAN_POINT('Ctrl Pts',(0.,59.1852953569163,69.4196784920396));
#325=CARTESIAN_POINT('Ctrl Pts',(25.8147046430837,59.1852953569163,69.4196784920396));
#326=CARTESIAN_POINT('Ctrl Pts',(25.8147046430837,85.0000000000001,69.4196784920396));
#327=CARTESIAN_POINT('Ctrl Pts',(34.0715449616997,85.0000000000001,53.0214215561787));
#328=CARTESIAN_POINT('Ctrl Pts',(34.0715449616997,119.0715449617,53.0214215561787));
#329=CARTESIAN_POINT('Ctrl Pts',(0.,119.0715449617,53.0214215561787));
#330=CARTESIAN_POINT('Ctrl Pts',(-34.0715449616997,119.0715449617,53.0214215561787));
#331=CARTESIAN_POINT('Ctrl Pts',(-34.0715449616997,85.0000000000001,53.0214215561787));
#332=CARTESIAN_POINT('Ctrl Pts',(-34.0715449616997,50.9284550383004,53.0214215561787));
#333=CARTESIAN_POINT('Ctrl Pts',(0.,50.9284550383004,53.0214215561787));
#334=CARTESIAN_POINT('Ctrl Pts',(34.0715449616997,50.9284550383004,53.0214215561787));
#335=CARTESIAN_POINT('Ctrl Pts',(34.0715449616997,85.0000000000001,53.0214215561787));
#336=CARTESIAN_POINT('Ctrl Pts',(44.2060427387095,85.,37.9418086335104));
#337=CARTESIAN_POINT('Ctrl Pts',(44.2060427387095,129.20604273871,37.9418086335104));
#338=CARTESIAN_POINT('Ctrl Pts',(0.,129.20604273871,37.9418086335104));
#339=CARTESIAN_POINT('Ctrl Pts',(-44.2060427387095,129.20604273871,37.9418086335104));
#340=CARTESIAN_POINT('Ctrl Pts',(-44.2060427387095,85.,37.9418086335104));
#341=CARTESIAN_POINT('Ctrl Pts',(-44.2060427387095,40.7939572612906,37.9418086335104));
#342=CARTESIAN_POINT('Ctrl Pts',(0.,40.7939572612905,37.9418086335104));
#343=CARTESIAN_POINT('Ctrl Pts',(44.2060427387095,40.7939572612906,37.9418086335104));
#344=CARTESIAN_POINT('Ctrl Pts',(44.2060427387095,85.,37.9418086335104));
#345=CARTESIAN_POINT('Ctrl Pts',(56.093536373878,85.,24.093292193963));
#346=CARTESIAN_POINT('Ctrl Pts',(56.0935363738779,141.093536373878,24.093292193963));
#347=CARTESIAN_POINT('Ctrl Pts',(0.,141.093536373878,24.093292193963));
#348=CARTESIAN_POINT('Ctrl Pts',(-56.0935363738779,141.093536373878,24.093292193963));
#349=CARTESIAN_POINT('Ctrl Pts',(-56.093536373878,85.,24.093292193963));
#350=CARTESIAN_POINT('Ctrl Pts',(-56.0935363738779,28.9064636261221,24.093292193963));
#351=CARTESIAN_POINT('Ctrl Pts',(0.,28.9064636261221,24.093292193963));
#352=CARTESIAN_POINT('Ctrl Pts',(56.0935363738779,28.9064636261221,24.093292193963));
#353=CARTESIAN_POINT('Ctrl Pts',(56.093536373878,85.,24.093292193963));
#354=CARTESIAN_POINT('Ctrl Pts',(66.8995918456084,85.,13.9246783416245));
#355=CARTESIAN_POINT('Ctrl Pts',(66.8995918456083,151.899591845608,13.9246783416245));
#356=CARTESIAN_POINT('Ctrl Pts',(0.,151.899591845608,13.9246783416245));
#357=CARTESIAN_POINT('Ctrl Pts',(-66.8995918456083,151.899591845608,13.9246783416245));
#358=CARTESIAN_POINT('Ctrl Pts',(-66.8995918456084,85.,13.9246783416245));
#359=CARTESIAN_POINT('Ctrl Pts',(-66.8995918456083,18.1004081543917,13.9246783416245));
#360=CARTESIAN_POINT('Ctrl Pts',(0.,18.1004081543917,13.9246783416245));
#361=CARTESIAN_POINT('Ctrl Pts',(66.8995918456083,18.1004081543917,13.9246783416245));
#362=CARTESIAN_POINT('Ctrl Pts',(66.8995918456084,85.,13.9246783416245));
#363=CARTESIAN_POINT('Ctrl Pts',(75.6881025961274,85.,6.77855680040022));
#364=CARTESIAN_POINT('Ctrl Pts',(75.6881025961274,160.688102596127,6.77855680040022));
#365=CARTESIAN_POINT('Ctrl Pts',(0.,160.688102596127,6.77855680040022));
#366=CARTESIAN_POINT('Ctrl Pts',(-75.6881025961274,160.688102596127,6.77855680040022));
#367=CARTESIAN_POINT('Ctrl Pts',(-75.6881025961274,85.,6.77855680040022));
#368=CARTESIAN_POINT('Ctrl Pts',(-75.6881025961274,9.31189740387262,6.77855680040022));
#369=CARTESIAN_POINT('Ctrl Pts',(0.,9.31189740387261,6.77855680040022));
#370=CARTESIAN_POINT('Ctrl Pts',(75.6881025961274,9.31189740387262,6.77855680040022));
#371=CARTESIAN_POINT('Ctrl Pts',(75.6881025961274,85.,6.77855680040022));
#372=CARTESIAN_POINT('Ctrl Pts',(81.8461882647463,85.,2.22451305840142));
#373=CARTESIAN_POINT('Ctrl Pts',(81.8461882647463,166.846188264746,2.22451305840139));
#374=CARTESIAN_POINT('Ctrl Pts',(0.,166.846188264746,2.22451305840139));
#375=CARTESIAN_POINT('Ctrl Pts',(-81.8461882647463,166.846188264746,2.22451305840139));
#376=CARTESIAN_POINT('Ctrl Pts',(-81.8461882647463,85.,2.22451305840142));
#377=CARTESIAN_POINT('Ctrl Pts',(-81.8461882647463,3.15381173525376,2.22451305840146));
#378=CARTESIAN_POINT('Ctrl Pts',(0.,3.15381173525374,2.22451305840146));
#379=CARTESIAN_POINT('Ctrl Pts',(81.8461882647463,3.15381173525376,2.22451305840146));
#380=CARTESIAN_POINT('Ctrl Pts',(81.8461882647463,85.,2.22451305840142));
#381=CARTESIAN_POINT('Ctrl Pts',(85.,85.,7.105427357601E-14));
#382=CARTESIAN_POINT('Ctrl Pts',(85.,170.,3.5527136788005E-14));
#383=CARTESIAN_POINT('Ctrl Pts',(0.,170.,3.5527136788005E-14));
#384=CARTESIAN_POINT('Ctrl Pts',(-85.,170.,3.5527136788005E-14));
#385=CARTESIAN_POINT('Ctrl Pts',(-85.,85.,7.105427357601E-14));
#386=CARTESIAN_POINT('Ctrl Pts',(-85.,5.32907051820075E-14,1.06581410364015E-13));
#387=CARTESIAN_POINT('Ctrl Pts',(0.,3.5527136788005E-14,1.06581410364015E-13));
#388=CARTESIAN_POINT('Ctrl Pts',(85.,5.32907051820075E-14,1.06581410364015E-13));
#389=CARTESIAN_POINT('Ctrl Pts',(85.,85.,7.105427357601E-14));
#390=CARTESIAN_POINT('',(10.9999999701977,85.0000000000001,170.));
#391=CARTESIAN_POINT('Ctrl Pts',(85.,85.,7.105427357601E-14));
#392=CARTESIAN_POINT('Ctrl Pts',(81.8461882647463,85.,2.22451305840142));
#393=CARTESIAN_POINT('Ctrl Pts',(75.6881025961274,85.,6.77855680040022));
#394=CARTESIAN_POINT('Ctrl Pts',(66.8995918456084,85.,13.9246783416245));
#395=CARTESIAN_POINT('Ctrl Pts',(56.093536373878,85.,24.093292193963));
#396=CARTESIAN_POINT('Ctrl Pts',(44.2060427387095,85.,37.9418086335104));
#397=CARTESIAN_POINT('Ctrl Pts',(34.0715449616997,85.0000000000001,53.0214215561787));
#398=CARTESIAN_POINT('Ctrl Pts',(25.8147046430837,85.0000000000001,69.4196784920396));
#399=CARTESIAN_POINT('Ctrl Pts',(19.4692747718356,85.0000000000001,87.1602835393147));
#400=CARTESIAN_POINT('Ctrl Pts',(14.9247123036765,85.0000000000001,106.165604367946));
#401=CARTESIAN_POINT('Ctrl Pts',(12.0297166433284,85.0000000000001,126.329385375633));
#402=CARTESIAN_POINT('Ctrl Pts',(10.9176946539902,85.0000000000001,143.305939173607));
#403=CARTESIAN_POINT('Ctrl Pts',(10.7167113889357,85.0000000000001,156.482922018212));
#404=CARTESIAN_POINT('Ctrl Pts',(10.8594469676946,85.0000000000001,165.461915677948));
#405=CARTESIAN_POINT('Ctrl Pts',(10.9999999701977,85.0000000000001,170.));
#406=CARTESIAN_POINT('Origin',(0.,85.0000000000001,170.));
#407=CARTESIAN_POINT('Origin',(0.,85.0000000000001,170.));
#408=UNCERTAINTY_MEASURE_WITH_UNIT(LENGTH_MEASURE(0.01),#412,
'DISTANCE_ACCURACY_VALUE',
'Maximum model space distance between geometric entities at asserted c
onnectivities');
#409=UNCERTAINTY_MEASURE_WITH_UNIT(LENGTH_MEASURE(0.01),#412,
'DISTANCE_ACCURACY_VALUE',
'Maximum model space distance between geometric entities at asserted c
onnectivities');
#410=(
GEOMETRIC_REPRESENTATION_CONTEXT(3)
GLOBAL_UNCERTAINTY_ASSIGNED_CONTEXT((#408))
GLOBAL_UNIT_ASSIGNED_CONTEXT((#412,#414,#415))
REPRESENTATION_CONTEXT('','3D')
);
#411=(
GEOMETRIC_REPRESENTATION_CONTEXT(3)
GLOBAL_UNCERTAINTY_ASSIGNED_CONTEXT((#409))
GLOBAL_UNIT_ASSIGNED_CONTEXT((#412,#414,#415))
REPRESENTATION_CONTEXT('','3D')
);
#412=(
LENGTH_UNIT()
NAMED_UNIT(*)
SI_UNIT(.MILLI.,.METRE.)
);
#413=(
LENGTH_UNIT()
NAMED_UNIT(*)
SI_UNIT($,.METRE.)
);
#414=(
NAMED_UNIT(*)
PLANE_ANGLE_UNIT()
SI_UNIT($,.RADIAN.)
);
#415=(
NAMED_UNIT(*)
SI_UNIT($,.STERADIAN.)
SOLID_ANGLE_UNIT()
);
#416=SHAPE_DEFINITION_REPRESENTATION(#417,#418);
#417=PRODUCT_DEFINITION_SHAPE('',$,#420);
#418=SHAPE_REPRESENTATION('',(#76),#410);
#419=PRODUCT_DEFINITION_CONTEXT('part definition',#424,'design');
#420=PRODUCT_DEFINITION('2026-02-14-14-06-01-764','Speaker',#421,#419);
#421=PRODUCT_DEFINITION_FORMATION('',$,#426);
#422=PRODUCT_RELATED_PRODUCT_CATEGORY('Speaker','Speaker',(#426));
#423=APPLICATION_PROTOCOL_DEFINITION('international standard',
'automotive_design',2009,#424);
#424=APPLICATION_CONTEXT(
'Core Data for Automotive Mechanical Design Process');
#425=PRODUCT_CONTEXT('part definition',#424,'mechanical');
#426=PRODUCT('2026-02-14-14-06-01-764','Speaker',$,(#425));
#427=PRESENTATION_STYLE_ASSIGNMENT((#428));
#428=SURFACE_STYLE_USAGE(.BOTH.,#429);
#429=SURFACE_SIDE_STYLE('',(#430));
#430=SURFACE_STYLE_FILL_AREA(#431);
#431=FILL_AREA_STYLE('Steel - Satin',(#432));
#432=FILL_AREA_STYLE_COLOUR('Steel - Satin',#433);
#433=COLOUR_RGB('Steel - Satin',0.627450980392157,0.627450980392157,0.627450980392157);
ENDSEC;
END-ISO-10303-21;
