ISO-10303-21;
HEADER;
/* Generated by software containing ST-Developer
 * from STEP Tools, Inc. (www.steptools.com) 
 */

FILE_DESCRIPTION(
/* description */ (''),
/* implementation_level */ '2;1');

FILE_NAME(
/* name */ 'Top.step',
/* time_stamp */ '2026-08-18T21:37:21+02:00',
/* author */ (''),
/* organization */ (''),
/* preprocessor_version */ 'ST-DEVELOPER v20.1',
/* originating_system */ 'Autodesk Translation Framework v15.8.0.0',
/* authorisation */ '');

FILE_SCHEMA (('AUTOMOTIVE_DESIGN { 1 0 10303 214 3 1 1 }'));
ENDSEC;

DATA;
#10=MECHANICAL_DESIGN_GEOMETRIC_PRESENTATION_REPRESENTATION('',(#13,#14,
#15),#1314);
#11=SHAPE_REPRESENTATION_RELATIONSHIP('SRR','None',#1321,#12);
#12=ADVANCED_BREP_SHAPE_REPRESENTATION('',(#16,#17,#18),#1313);
#13=STYLED_ITEM('',(#1330),#16);
#14=STYLED_ITEM('',(#1330),#17);
#15=STYLED_ITEM('',(#1330),#18);
#16=MANIFOLD_SOLID_BREP('Body1',#658);
#17=MANIFOLD_SOLID_BREP('Body2',#659);
#18=MANIFOLD_SOLID_BREP('Body3',#660);
#19=B_SPLINE_SURFACE_WITH_KNOTS('',3,3,((#1055,#1056,#1057,#1058,#1059,
#1060,#1061),(#1062,#1063,#1064,#1065,#1066,#1067,#1068),(#1069,#1070,#1071,
#1072,#1073,#1074,#1075),(#1076,#1077,#1078,#1079,#1080,#1081,#1082),(#1083,
#1084,#1085,#1086,#1087,#1088,#1089)),.UNSPECIFIED.,.F.,.F.,.F.,(4,1,4),
(4,1,1,1,4),(0.,0.571428571428571,1.),(0.,0.224399475256414,0.673198425769241,
1.12199737628207,1.5707963267949),.UNSPECIFIED.);
#20=B_SPLINE_SURFACE_WITH_KNOTS('',3,3,((#1095,#1096,#1097,#1098,#1099,
#1100),(#1101,#1102,#1103,#1104,#1105,#1106),(#1107,#1108,#1109,#1110,#1111,
#1112),(#1113,#1114,#1115,#1116,#1117,#1118),(#1119,#1120,#1121,#1122,#1123,
#1124)),.UNSPECIFIED.,.F.,.F.,.F.,(4,1,4),(4,1,1,4),(0.,0.571428571428571,
1.),(0.,0.224399475256414,0.673198425769241,1.5707963267949),
 .UNSPECIFIED.);
#21=B_SPLINE_SURFACE_WITH_KNOTS('',3,3,((#1130,#1131,#1132,#1133,#1134,
#1135),(#1136,#1137,#1138,#1139,#1140,#1141),(#1142,#1143,#1144,#1145,#1146,
#1147),(#1148,#1149,#1150,#1151,#1152,#1153),(#1154,#1155,#1156,#1157,#1158,
#1159)),.UNSPECIFIED.,.F.,.F.,.F.,(4,1,4),(4,1,1,4),(0.,0.571428571428571,
1.),(0.,0.224399475256414,0.673198425769241,1.5707963267949),
 .UNSPECIFIED.);
#22=B_SPLINE_SURFACE_WITH_KNOTS('',3,3,((#1165,#1166,#1167,#1168,#1169,
#1170,#1171),(#1172,#1173,#1174,#1175,#1176,#1177,#1178),(#1179,#1180,#1181,
#1182,#1183,#1184,#1185),(#1186,#1187,#1188,#1189,#1190,#1191,#1192),(#1193,
#1194,#1195,#1196,#1197,#1198,#1199)),.UNSPECIFIED.,.F.,.F.,.F.,(4,1,4),
(4,1,1,1,4),(0.,0.571428571428571,1.),(0.,0.224399475256414,0.673198425769241,
1.12199737628207,1.5707963267949),.UNSPECIFIED.);
#23=FACE_BOUND('',#97,.T.);
#24=FACE_BOUND('',#101,.T.);
#25=FACE_BOUND('',#102,.T.);
#26=FACE_BOUND('',#119,.T.);
#27=FACE_BOUND('',#120,.T.);
#28=FACE_BOUND('',#127,.T.);
#29=PLANE('',#690);
#30=PLANE('',#695);
#31=PLANE('',#715);
#32=PLANE('',#718);
#33=PLANE('',#723);
#34=PLANE('',#724);
#35=PLANE('',#727);
#36=PLANE('',#731);
#37=PLANE('',#735);
#38=PLANE('',#736);
#39=PLANE('',#737);
#40=PLANE('',#738);
#41=PLANE('',#739);
#42=PLANE('',#740);
#43=PLANE('',#741);
#44=PLANE('',#742);
#45=PLANE('',#743);
#46=PLANE('',#744);
#47=PLANE('',#745);
#48=PLANE('',#746);
#49=(
BOUNDED_SURFACE()
B_SPLINE_SURFACE(2,2,((#966,#967,#968),(#969,#970,#971),(#972,#973,#974),
(#975,#976,#977),(#978,#979,#980),(#981,#982,#983),(#984,#985,#986),(#987,
#988,#989),(#990,#991,#992)),.UNSPECIFIED.,.F.,.F.,.F.)
B_SPLINE_SURFACE_WITH_KNOTS((3,2,2,2,3),(3,3),(-2.98307899882785,-1.49153949941393,
0.,1.49153949941393,2.98307899882785),(1.57079312346274,2.53072741539178),
 .UNSPECIFIED.)
GEOMETRIC_REPRESENTATION_ITEM()
RATIONAL_B_SPLINE_SURFACE(((1.,0.887010093609993,1.),(0.734565816055298,
0.651567293261911,0.734565816055298),(1.,0.887010093609993,1.),(0.734565816055297,
0.65156729326191,0.734565816055297),(1.,0.887010093609993,1.),(0.734565816055297,
0.65156729326191,0.734565816055297),(1.,0.887010093609993,1.),(0.734565816055298,
0.651567293261911,0.734565816055298),(1.,0.887010093609993,1.)))
REPRESENTATION_ITEM('')
SURFACE()
);
#50=(
BOUNDED_SURFACE()
B_SPLINE_SURFACE(2,2,((#1013,#1014,#1015),(#1016,#1017,#1018),(#1019,#1020,
#1021),(#1022,#1023,#1024),(#1025,#1026,#1027),(#1028,#1029,#1030),(#1031,
#1032,#1033),(#1034,#1035,#1036),(#1037,#1038,#1039)),.UNSPECIFIED.,.F.,
 .F.,.F.)
B_SPLINE_SURFACE_WITH_KNOTS((3,2,2,2,3),(3,3),(-2.38058221700619,-1.19029110850309,
0.,1.19029110850309,2.38058221700619),(1.57079531116442,2.53072741539178),
 .UNSPECIFIED.)
GEOMETRIC_REPRESENTATION_ITEM()
RATIONAL_B_SPLINE_SURFACE(((1.,0.887010598695126,1.),(0.828066905635031,
0.73450412172695,0.828066905635031),(1.,0.887010598695126,1.),(0.828066905635036,
0.734504121726954,0.828066905635036),(1.,0.887010598695126,1.),(0.828066905635036,
0.734504121726954,0.828066905635036),(1.,0.887010598695126,1.),(0.828066905635031,
0.73450412172695,0.828066905635031),(1.,0.887010598695126,1.)))
REPRESENTATION_ITEM('')
SURFACE()
);
#51=FACE_OUTER_BOUND('',#92,.T.);
#52=FACE_OUTER_BOUND('',#93,.T.);
#53=FACE_OUTER_BOUND('',#94,.T.);
#54=FACE_OUTER_BOUND('',#95,.T.);
#55=FACE_OUTER_BOUND('',#96,.T.);
#56=FACE_OUTER_BOUND('',#98,.T.);
#57=FACE_OUTER_BOUND('',#99,.T.);
#58=FACE_OUTER_BOUND('',#100,.T.);
#59=FACE_OUTER_BOUND('',#103,.T.);
#60=FACE_OUTER_BOUND('',#104,.T.);
#61=FACE_OUTER_BOUND('',#105,.T.);
#62=FACE_OUTER_BOUND('',#106,.T.);
#63=FACE_OUTER_BOUND('',#107,.T.);
#64=FACE_OUTER_BOUND('',#108,.T.);
#65=FACE_OUTER_BOUND('',#109,.T.);
#66=FACE_OUTER_BOUND('',#110,.T.);
#67=FACE_OUTER_BOUND('',#111,.T.);
#68=FACE_OUTER_BOUND('',#112,.T.);
#69=FACE_OUTER_BOUND('',#113,.T.);
#70=FACE_OUTER_BOUND('',#114,.T.);
#71=FACE_OUTER_BOUND('',#115,.T.);
#72=FACE_OUTER_BOUND('',#116,.T.);
#73=FACE_OUTER_BOUND('',#117,.T.);
#74=FACE_OUTER_BOUND('',#118,.T.);
#75=FACE_OUTER_BOUND('',#121,.T.);
#76=FACE_OUTER_BOUND('',#122,.T.);
#77=FACE_OUTER_BOUND('',#123,.T.);
#78=FACE_OUTER_BOUND('',#124,.T.);
#79=FACE_OUTER_BOUND('',#125,.T.);
#80=FACE_OUTER_BOUND('',#126,.T.);
#81=FACE_OUTER_BOUND('',#128,.T.);
#82=FACE_OUTER_BOUND('',#129,.T.);
#83=FACE_OUTER_BOUND('',#130,.T.);
#84=FACE_OUTER_BOUND('',#131,.T.);
#85=FACE_OUTER_BOUND('',#132,.T.);
#86=FACE_OUTER_BOUND('',#133,.T.);
#87=FACE_OUTER_BOUND('',#134,.T.);
#88=FACE_OUTER_BOUND('',#135,.T.);
#89=FACE_OUTER_BOUND('',#136,.T.);
#90=FACE_OUTER_BOUND('',#137,.T.);
#91=FACE_OUTER_BOUND('',#138,.T.);
#92=EDGE_LOOP('',(#424,#425,#426,#427,#428,#429,#430));
#93=EDGE_LOOP('',(#431,#432,#433,#434,#435,#436));
#94=EDGE_LOOP('',(#437,#438,#439,#440,#441));
#95=EDGE_LOOP('',(#442,#443,#444,#445,#446,#447,#448));
#96=EDGE_LOOP('',(#449));
#97=EDGE_LOOP('',(#450));
#98=EDGE_LOOP('',(#451,#452,#453,#454,#455,#456));
#99=EDGE_LOOP('',(#457,#458,#459,#460,#461));
#100=EDGE_LOOP('',(#462,#463,#464,#465));
#101=EDGE_LOOP('',(#466));
#102=EDGE_LOOP('',(#467));
#103=EDGE_LOOP('',(#468,#469,#470,#471));
#104=EDGE_LOOP('',(#472,#473,#474));
#105=EDGE_LOOP('',(#475,#476,#477));
#106=EDGE_LOOP('',(#478,#479,#480));
#107=EDGE_LOOP('',(#481,#482,#483));
#108=EDGE_LOOP('',(#484,#485,#486,#487));
#109=EDGE_LOOP('',(#488,#489,#490,#491));
#110=EDGE_LOOP('',(#492,#493,#494,#495));
#111=EDGE_LOOP('',(#496,#497,#498,#499));
#112=EDGE_LOOP('',(#500,#501,#502,#503));
#113=EDGE_LOOP('',(#504,#505,#506,#507));
#114=EDGE_LOOP('',(#508,#509,#510,#511));
#115=EDGE_LOOP('',(#512,#513,#514,#515));
#116=EDGE_LOOP('',(#516,#517,#518,#519));
#117=EDGE_LOOP('',(#520,#521,#522,#523));
#118=EDGE_LOOP('',(#524,#525,#526,#527,#528,#529,#530,#531));
#119=EDGE_LOOP('',(#532));
#120=EDGE_LOOP('',(#533));
#121=EDGE_LOOP('',(#534,#535,#536,#537));
#122=EDGE_LOOP('',(#538,#539,#540,#541));
#123=EDGE_LOOP('',(#542,#543,#544,#545));
#124=EDGE_LOOP('',(#546));
#125=EDGE_LOOP('',(#547,#548,#549,#550));
#126=EDGE_LOOP('',(#551));
#127=EDGE_LOOP('',(#552));
#128=EDGE_LOOP('',(#553));
#129=EDGE_LOOP('',(#554,#555,#556,#557));
#130=EDGE_LOOP('',(#558,#559,#560,#561));
#131=EDGE_LOOP('',(#562,#563,#564,#565));
#132=EDGE_LOOP('',(#566,#567,#568,#569));
#133=EDGE_LOOP('',(#570,#571,#572,#573,#574,#575,#576,#577));
#134=EDGE_LOOP('',(#578,#579,#580,#581));
#135=EDGE_LOOP('',(#582,#583,#584,#585));
#136=EDGE_LOOP('',(#586,#587,#588,#589,#590,#591,#592,#593));
#137=EDGE_LOOP('',(#594,#595,#596,#597));
#138=EDGE_LOOP('',(#598,#599,#600,#601));
#139=ELLIPSE('',#678,6.20060070776488,5.5);
#140=ELLIPSE('',#688,8.45536460149757,7.5);
#141=ELLIPSE('',#699,5.8309518948453,5.);
#142=ELLIPSE('',#700,5.8309518948453,5.);
#143=ELLIPSE('',#702,5.8309518948453,5.);
#144=ELLIPSE('',#703,5.8309518948453,5.);
#145=ELLIPSE('',#705,5.8309518948453,5.);
#146=ELLIPSE('',#706,5.8309518948453,5.);
#147=ELLIPSE('',#708,5.8309518948453,5.);
#148=ELLIPSE('',#709,5.8309518948453,5.);
#149=LINE('',#952,#200);
#150=LINE('',#963,#201);
#151=LINE('',#997,#202);
#152=LINE('',#1011,#203);
#153=LINE('',#1043,#204);
#154=LINE('',#1045,#205);
#155=LINE('',#1047,#206);
#156=LINE('',#1048,#207);
#157=LINE('',#1053,#208);
#158=LINE('',#1206,#209);
#159=LINE('',#1208,#210);
#160=LINE('',#1210,#211);
#161=LINE('',#1212,#212);
#162=LINE('',#1215,#213);
#163=LINE('',#1217,#214);
#164=LINE('',#1218,#215);
#165=LINE('',#1221,#216);
#166=LINE('',#1225,#217);
#167=LINE('',#1226,#218);
#168=LINE('',#1229,#219);
#169=LINE('',#1234,#220);
#170=LINE('',#1237,#221);
#171=LINE('',#1238,#222);
#172=LINE('',#1241,#223);
#173=LINE('',#1244,#224);
#174=LINE('',#1250,#225);
#175=LINE('',#1257,#226);
#176=LINE('',#1264,#227);
#177=LINE('',#1266,#228);
#178=LINE('',#1268,#229);
#179=LINE('',#1269,#230);
#180=LINE('',#1272,#231);
#181=LINE('',#1274,#232);
#182=LINE('',#1275,#233);
#183=LINE('',#1278,#234);
#184=LINE('',#1280,#235);
#185=LINE('',#1281,#236);
#186=LINE('',#1283,#237);
#187=LINE('',#1286,#238);
#188=LINE('',#1288,#239);
#189=LINE('',#1290,#240);
#190=LINE('',#1292,#241);
#191=LINE('',#1293,#242);
#192=LINE('',#1297,#243);
#193=LINE('',#1298,#244);
#194=LINE('',#1299,#245);
#195=LINE('',#1302,#246);
#196=LINE('',#1303,#247);
#197=LINE('',#1306,#248);
#198=LINE('',#1307,#249);
#199=LINE('',#1309,#250);
#200=VECTOR('',#753,5.5);
#201=VECTOR('',#766,5.5);
#202=VECTOR('',#775,7.5);
#203=VECTOR('',#792,7.5);
#204=VECTOR('',#797,10.);
#205=VECTOR('',#798,10.);
#206=VECTOR('',#799,10.);
#207=VECTOR('',#800,10.);
#208=VECTOR('',#805,5.);
#209=VECTOR('',#834,10.);
#210=VECTOR('',#837,10.);
#211=VECTOR('',#840,10.);
#212=VECTOR('',#843,10.);
#213=VECTOR('',#846,10.);
#214=VECTOR('',#847,10.);
#215=VECTOR('',#848,10.);
#216=VECTOR('',#851,10.);
#217=VECTOR('',#856,10.);
#218=VECTOR('',#857,10.);
#219=VECTOR('',#860,10.);
#220=VECTOR('',#867,10.);
#221=VECTOR('',#870,10.);
#222=VECTOR('',#871,10.);
#223=VECTOR('',#874,10.);
#224=VECTOR('',#879,10.);
#225=VECTOR('',#886,1.25);
#226=VECTOR('',#895,2.5);
#227=VECTOR('',#904,10.);
#228=VECTOR('',#905,10.);
#229=VECTOR('',#906,10.);
#230=VECTOR('',#907,10.);
#231=VECTOR('',#910,10.);
#232=VECTOR('',#911,10.);
#233=VECTOR('',#912,10.);
#234=VECTOR('',#915,10.);
#235=VECTOR('',#916,10.);
#236=VECTOR('',#917,10.);
#237=VECTOR('',#920,10.);
#238=VECTOR('',#923,10.);
#239=VECTOR('',#924,10.);
#240=VECTOR('',#925,10.);
#241=VECTOR('',#926,10.);
#242=VECTOR('',#927,10.);
#243=VECTOR('',#930,10.);
#244=VECTOR('',#931,10.);
#245=VECTOR('',#932,10.);
#246=VECTOR('',#935,10.);
#247=VECTOR('',#936,10.);
#248=VECTOR('',#939,10.);
#249=VECTOR('',#940,10.);
#250=VECTOR('',#943,10.);
#251=CIRCLE('',#675,5.5);
#252=CIRCLE('',#676,5.5);
#253=CIRCLE('',#677,5.5);
#254=CIRCLE('',#679,5.5);
#255=CIRCLE('',#681,5.5);
#256=CIRCLE('',#682,5.5);
#257=CIRCLE('',#683,5.5);
#258=CIRCLE('',#685,7.5);
#259=CIRCLE('',#686,7.5);
#260=CIRCLE('',#687,7.5);
#261=CIRCLE('',#689,7.5);
#262=CIRCLE('',#692,7.5);
#263=CIRCLE('',#693,7.5);
#264=CIRCLE('',#694,7.5);
#265=CIRCLE('',#696,5.);
#266=CIRCLE('',#698,5.);
#267=CIRCLE('',#701,2.);
#268=CIRCLE('',#704,2.);
#269=CIRCLE('',#707,2.);
#270=CIRCLE('',#710,1.99999999999999);
#271=CIRCLE('',#717,2.);
#272=CIRCLE('',#720,2.);
#273=CIRCLE('',#722,2.);
#274=CIRCLE('',#725,2.);
#275=CIRCLE('',#729,1.25);
#276=CIRCLE('',#730,1.25);
#277=CIRCLE('',#733,2.5);
#278=CIRCLE('',#734,2.5);
#279=VERTEX_POINT('',#948);
#280=VERTEX_POINT('',#949);
#281=VERTEX_POINT('',#951);
#282=VERTEX_POINT('',#954);
#283=VERTEX_POINT('',#956);
#284=VERTEX_POINT('',#960);
#285=VERTEX_POINT('',#962);
#286=VERTEX_POINT('',#994);
#287=VERTEX_POINT('',#996);
#288=VERTEX_POINT('',#998);
#289=VERTEX_POINT('',#1000);
#290=VERTEX_POINT('',#1002);
#291=VERTEX_POINT('',#1007);
#292=VERTEX_POINT('',#1010);
#293=VERTEX_POINT('',#1041);
#294=VERTEX_POINT('',#1042);
#295=VERTEX_POINT('',#1044);
#296=VERTEX_POINT('',#1046);
#297=VERTEX_POINT('',#1049);
#298=VERTEX_POINT('',#1052);
#299=VERTEX_POINT('',#1090);
#300=VERTEX_POINT('',#1092);
#301=VERTEX_POINT('',#1125);
#302=VERTEX_POINT('',#1127);
#303=VERTEX_POINT('',#1160);
#304=VERTEX_POINT('',#1162);
#305=VERTEX_POINT('',#1200);
#306=VERTEX_POINT('',#1202);
#307=VERTEX_POINT('',#1214);
#308=VERTEX_POINT('',#1216);
#309=VERTEX_POINT('',#1220);
#310=VERTEX_POINT('',#1224);
#311=VERTEX_POINT('',#1228);
#312=VERTEX_POINT('',#1232);
#313=VERTEX_POINT('',#1236);
#314=VERTEX_POINT('',#1240);
#315=VERTEX_POINT('',#1247);
#316=VERTEX_POINT('',#1249);
#317=VERTEX_POINT('',#1254);
#318=VERTEX_POINT('',#1256);
#319=VERTEX_POINT('',#1262);
#320=VERTEX_POINT('',#1263);
#321=VERTEX_POINT('',#1265);
#322=VERTEX_POINT('',#1267);
#323=VERTEX_POINT('',#1271);
#324=VERTEX_POINT('',#1273);
#325=VERTEX_POINT('',#1277);
#326=VERTEX_POINT('',#1279);
#327=VERTEX_POINT('',#1285);
#328=VERTEX_POINT('',#1287);
#329=VERTEX_POINT('',#1289);
#330=VERTEX_POINT('',#1291);
#331=VERTEX_POINT('',#1295);
#332=VERTEX_POINT('',#1296);
#333=VERTEX_POINT('',#1301);
#334=VERTEX_POINT('',#1305);
#335=EDGE_CURVE('',#279,#280,#251,.T.);
#336=EDGE_CURVE('',#279,#281,#149,.T.);
#337=EDGE_CURVE('',#281,#281,#252,.T.);
#338=EDGE_CURVE('',#282,#279,#253,.T.);
#339=EDGE_CURVE('',#282,#283,#139,.T.);
#340=EDGE_CURVE('',#280,#283,#254,.T.);
#341=EDGE_CURVE('',#284,#284,#255,.T.);
#342=EDGE_CURVE('',#284,#285,#150,.T.);
#343=EDGE_CURVE('',#285,#283,#256,.T.);
#344=EDGE_CURVE('',#282,#285,#257,.T.);
#345=EDGE_CURVE('',#286,#286,#258,.T.);
#346=EDGE_CURVE('',#286,#287,#151,.T.);
#347=EDGE_CURVE('',#287,#288,#259,.T.);
#348=EDGE_CURVE('',#288,#289,#260,.T.);
#349=EDGE_CURVE('',#290,#289,#140,.T.);
#350=EDGE_CURVE('',#290,#287,#261,.T.);
#351=EDGE_CURVE('',#290,#291,#262,.T.);
#352=EDGE_CURVE('',#291,#289,#263,.T.);
#353=EDGE_CURVE('',#291,#292,#152,.T.);
#354=EDGE_CURVE('',#292,#292,#264,.T.);
#355=EDGE_CURVE('',#293,#294,#153,.T.);
#356=EDGE_CURVE('',#295,#293,#154,.T.);
#357=EDGE_CURVE('',#296,#295,#155,.T.);
#358=EDGE_CURVE('',#294,#296,#156,.T.);
#359=EDGE_CURVE('',#297,#297,#265,.T.);
#360=EDGE_CURVE('',#297,#298,#157,.T.);
#361=EDGE_CURVE('',#298,#298,#266,.T.);
#362=EDGE_CURVE('',#299,#294,#141,.T.);
#363=EDGE_CURVE('',#294,#300,#142,.T.);
#364=EDGE_CURVE('',#300,#299,#267,.T.);
#365=EDGE_CURVE('',#301,#296,#143,.T.);
#366=EDGE_CURVE('',#296,#302,#144,.T.);
#367=EDGE_CURVE('',#302,#301,#268,.T.);
#368=EDGE_CURVE('',#303,#295,#145,.T.);
#369=EDGE_CURVE('',#295,#304,#146,.T.);
#370=EDGE_CURVE('',#304,#303,#269,.T.);
#371=EDGE_CURVE('',#305,#293,#147,.T.);
#372=EDGE_CURVE('',#293,#306,#148,.T.);
#373=EDGE_CURVE('',#306,#305,#270,.T.);
#374=EDGE_CURVE('',#299,#306,#158,.T.);
#375=EDGE_CURVE('',#305,#304,#159,.T.);
#376=EDGE_CURVE('',#303,#302,#160,.T.);
#377=EDGE_CURVE('',#301,#300,#161,.T.);
#378=EDGE_CURVE('',#307,#303,#162,.T.);
#379=EDGE_CURVE('',#308,#307,#163,.T.);
#380=EDGE_CURVE('',#302,#308,#164,.T.);
#381=EDGE_CURVE('',#304,#309,#165,.T.);
#382=EDGE_CURVE('',#309,#307,#271,.T.);
#383=EDGE_CURVE('',#310,#305,#166,.T.);
#384=EDGE_CURVE('',#309,#310,#167,.T.);
#385=EDGE_CURVE('',#306,#311,#168,.T.);
#386=EDGE_CURVE('',#311,#310,#272,.T.);
#387=EDGE_CURVE('',#308,#312,#273,.T.);
#388=EDGE_CURVE('',#312,#301,#169,.T.);
#389=EDGE_CURVE('',#313,#312,#170,.T.);
#390=EDGE_CURVE('',#300,#313,#171,.T.);
#391=EDGE_CURVE('',#311,#314,#172,.T.);
#392=EDGE_CURVE('',#313,#314,#274,.T.);
#393=EDGE_CURVE('',#314,#299,#173,.T.);
#394=EDGE_CURVE('',#315,#315,#275,.T.);
#395=EDGE_CURVE('',#315,#316,#174,.T.);
#396=EDGE_CURVE('',#316,#316,#276,.T.);
#397=EDGE_CURVE('',#317,#317,#277,.T.);
#398=EDGE_CURVE('',#317,#318,#175,.T.);
#399=EDGE_CURVE('',#318,#318,#278,.T.);
#400=EDGE_CURVE('',#319,#320,#176,.T.);
#401=EDGE_CURVE('',#319,#321,#177,.T.);
#402=EDGE_CURVE('',#321,#322,#178,.T.);
#403=EDGE_CURVE('',#320,#322,#179,.T.);
#404=EDGE_CURVE('',#323,#319,#180,.T.);
#405=EDGE_CURVE('',#323,#324,#181,.T.);
#406=EDGE_CURVE('',#324,#321,#182,.T.);
#407=EDGE_CURVE('',#325,#323,#183,.T.);
#408=EDGE_CURVE('',#326,#325,#184,.T.);
#409=EDGE_CURVE('',#326,#324,#185,.T.);
#410=EDGE_CURVE('',#322,#326,#186,.T.);
#411=EDGE_CURVE('',#320,#327,#187,.T.);
#412=EDGE_CURVE('',#327,#328,#188,.T.);
#413=EDGE_CURVE('',#328,#329,#189,.T.);
#414=EDGE_CURVE('',#329,#330,#190,.T.);
#415=EDGE_CURVE('',#330,#325,#191,.T.);
#416=EDGE_CURVE('',#331,#332,#192,.T.);
#417=EDGE_CURVE('',#331,#329,#193,.T.);
#418=EDGE_CURVE('',#332,#328,#194,.T.);
#419=EDGE_CURVE('',#332,#333,#195,.T.);
#420=EDGE_CURVE('',#333,#327,#196,.T.);
#421=EDGE_CURVE('',#334,#330,#197,.T.);
#422=EDGE_CURVE('',#333,#334,#198,.T.);
#423=EDGE_CURVE('',#334,#331,#199,.T.);
#424=ORIENTED_EDGE('',*,*,#335,.F.);
#425=ORIENTED_EDGE('',*,*,#336,.T.);
#426=ORIENTED_EDGE('',*,*,#337,.F.);
#427=ORIENTED_EDGE('',*,*,#336,.F.);
#428=ORIENTED_EDGE('',*,*,#338,.F.);
#429=ORIENTED_EDGE('',*,*,#339,.T.);
#430=ORIENTED_EDGE('',*,*,#340,.F.);
#431=ORIENTED_EDGE('',*,*,#341,.F.);
#432=ORIENTED_EDGE('',*,*,#342,.T.);
#433=ORIENTED_EDGE('',*,*,#343,.T.);
#434=ORIENTED_EDGE('',*,*,#339,.F.);
#435=ORIENTED_EDGE('',*,*,#344,.T.);
#436=ORIENTED_EDGE('',*,*,#342,.F.);
#437=ORIENTED_EDGE('',*,*,#343,.F.);
#438=ORIENTED_EDGE('',*,*,#344,.F.);
#439=ORIENTED_EDGE('',*,*,#338,.T.);
#440=ORIENTED_EDGE('',*,*,#335,.T.);
#441=ORIENTED_EDGE('',*,*,#340,.T.);
#442=ORIENTED_EDGE('',*,*,#345,.F.);
#443=ORIENTED_EDGE('',*,*,#346,.T.);
#444=ORIENTED_EDGE('',*,*,#347,.T.);
#445=ORIENTED_EDGE('',*,*,#348,.T.);
#446=ORIENTED_EDGE('',*,*,#349,.F.);
#447=ORIENTED_EDGE('',*,*,#350,.T.);
#448=ORIENTED_EDGE('',*,*,#346,.F.);
#449=ORIENTED_EDGE('',*,*,#345,.T.);
#450=ORIENTED_EDGE('',*,*,#337,.T.);
#451=ORIENTED_EDGE('',*,*,#351,.F.);
#452=ORIENTED_EDGE('',*,*,#349,.T.);
#453=ORIENTED_EDGE('',*,*,#352,.F.);
#454=ORIENTED_EDGE('',*,*,#353,.T.);
#455=ORIENTED_EDGE('',*,*,#354,.F.);
#456=ORIENTED_EDGE('',*,*,#353,.F.);
#457=ORIENTED_EDGE('',*,*,#351,.T.);
#458=ORIENTED_EDGE('',*,*,#352,.T.);
#459=ORIENTED_EDGE('',*,*,#348,.F.);
#460=ORIENTED_EDGE('',*,*,#347,.F.);
#461=ORIENTED_EDGE('',*,*,#350,.F.);
#462=ORIENTED_EDGE('',*,*,#355,.F.);
#463=ORIENTED_EDGE('',*,*,#356,.F.);
#464=ORIENTED_EDGE('',*,*,#357,.F.);
#465=ORIENTED_EDGE('',*,*,#358,.F.);
#466=ORIENTED_EDGE('',*,*,#359,.T.);
#467=ORIENTED_EDGE('',*,*,#354,.T.);
#468=ORIENTED_EDGE('',*,*,#359,.F.);
#469=ORIENTED_EDGE('',*,*,#360,.T.);
#470=ORIENTED_EDGE('',*,*,#361,.F.);
#471=ORIENTED_EDGE('',*,*,#360,.F.);
#472=ORIENTED_EDGE('',*,*,#362,.T.);
#473=ORIENTED_EDGE('',*,*,#363,.T.);
#474=ORIENTED_EDGE('',*,*,#364,.T.);
#475=ORIENTED_EDGE('',*,*,#365,.T.);
#476=ORIENTED_EDGE('',*,*,#366,.T.);
#477=ORIENTED_EDGE('',*,*,#367,.T.);
#478=ORIENTED_EDGE('',*,*,#368,.T.);
#479=ORIENTED_EDGE('',*,*,#369,.T.);
#480=ORIENTED_EDGE('',*,*,#370,.T.);
#481=ORIENTED_EDGE('',*,*,#371,.T.);
#482=ORIENTED_EDGE('',*,*,#372,.T.);
#483=ORIENTED_EDGE('',*,*,#373,.T.);
#484=ORIENTED_EDGE('',*,*,#362,.F.);
#485=ORIENTED_EDGE('',*,*,#374,.T.);
#486=ORIENTED_EDGE('',*,*,#372,.F.);
#487=ORIENTED_EDGE('',*,*,#355,.T.);
#488=ORIENTED_EDGE('',*,*,#369,.F.);
#489=ORIENTED_EDGE('',*,*,#356,.T.);
#490=ORIENTED_EDGE('',*,*,#371,.F.);
#491=ORIENTED_EDGE('',*,*,#375,.T.);
#492=ORIENTED_EDGE('',*,*,#366,.F.);
#493=ORIENTED_EDGE('',*,*,#357,.T.);
#494=ORIENTED_EDGE('',*,*,#368,.F.);
#495=ORIENTED_EDGE('',*,*,#376,.T.);
#496=ORIENTED_EDGE('',*,*,#363,.F.);
#497=ORIENTED_EDGE('',*,*,#358,.T.);
#498=ORIENTED_EDGE('',*,*,#365,.F.);
#499=ORIENTED_EDGE('',*,*,#377,.T.);
#500=ORIENTED_EDGE('',*,*,#376,.F.);
#501=ORIENTED_EDGE('',*,*,#378,.F.);
#502=ORIENTED_EDGE('',*,*,#379,.F.);
#503=ORIENTED_EDGE('',*,*,#380,.F.);
#504=ORIENTED_EDGE('',*,*,#370,.F.);
#505=ORIENTED_EDGE('',*,*,#381,.T.);
#506=ORIENTED_EDGE('',*,*,#382,.T.);
#507=ORIENTED_EDGE('',*,*,#378,.T.);
#508=ORIENTED_EDGE('',*,*,#375,.F.);
#509=ORIENTED_EDGE('',*,*,#383,.F.);
#510=ORIENTED_EDGE('',*,*,#384,.F.);
#511=ORIENTED_EDGE('',*,*,#381,.F.);
#512=ORIENTED_EDGE('',*,*,#373,.F.);
#513=ORIENTED_EDGE('',*,*,#385,.T.);
#514=ORIENTED_EDGE('',*,*,#386,.T.);
#515=ORIENTED_EDGE('',*,*,#383,.T.);
#516=ORIENTED_EDGE('',*,*,#367,.F.);
#517=ORIENTED_EDGE('',*,*,#380,.T.);
#518=ORIENTED_EDGE('',*,*,#387,.T.);
#519=ORIENTED_EDGE('',*,*,#388,.T.);
#520=ORIENTED_EDGE('',*,*,#377,.F.);
#521=ORIENTED_EDGE('',*,*,#388,.F.);
#522=ORIENTED_EDGE('',*,*,#389,.F.);
#523=ORIENTED_EDGE('',*,*,#390,.F.);
#524=ORIENTED_EDGE('',*,*,#387,.F.);
#525=ORIENTED_EDGE('',*,*,#379,.T.);
#526=ORIENTED_EDGE('',*,*,#382,.F.);
#527=ORIENTED_EDGE('',*,*,#384,.T.);
#528=ORIENTED_EDGE('',*,*,#386,.F.);
#529=ORIENTED_EDGE('',*,*,#391,.T.);
#530=ORIENTED_EDGE('',*,*,#392,.F.);
#531=ORIENTED_EDGE('',*,*,#389,.T.);
#532=ORIENTED_EDGE('',*,*,#341,.T.);
#533=ORIENTED_EDGE('',*,*,#361,.T.);
#534=ORIENTED_EDGE('',*,*,#364,.F.);
#535=ORIENTED_EDGE('',*,*,#390,.T.);
#536=ORIENTED_EDGE('',*,*,#392,.T.);
#537=ORIENTED_EDGE('',*,*,#393,.T.);
#538=ORIENTED_EDGE('',*,*,#374,.F.);
#539=ORIENTED_EDGE('',*,*,#393,.F.);
#540=ORIENTED_EDGE('',*,*,#391,.F.);
#541=ORIENTED_EDGE('',*,*,#385,.F.);
#542=ORIENTED_EDGE('',*,*,#394,.F.);
#543=ORIENTED_EDGE('',*,*,#395,.T.);
#544=ORIENTED_EDGE('',*,*,#396,.T.);
#545=ORIENTED_EDGE('',*,*,#395,.F.);
#546=ORIENTED_EDGE('',*,*,#396,.F.);
#547=ORIENTED_EDGE('',*,*,#397,.F.);
#548=ORIENTED_EDGE('',*,*,#398,.T.);
#549=ORIENTED_EDGE('',*,*,#399,.T.);
#550=ORIENTED_EDGE('',*,*,#398,.F.);
#551=ORIENTED_EDGE('',*,*,#397,.T.);
#552=ORIENTED_EDGE('',*,*,#394,.T.);
#553=ORIENTED_EDGE('',*,*,#399,.F.);
#554=ORIENTED_EDGE('',*,*,#400,.F.);
#555=ORIENTED_EDGE('',*,*,#401,.T.);
#556=ORIENTED_EDGE('',*,*,#402,.T.);
#557=ORIENTED_EDGE('',*,*,#403,.F.);
#558=ORIENTED_EDGE('',*,*,#404,.F.);
#559=ORIENTED_EDGE('',*,*,#405,.T.);
#560=ORIENTED_EDGE('',*,*,#406,.T.);
#561=ORIENTED_EDGE('',*,*,#401,.F.);
#562=ORIENTED_EDGE('',*,*,#407,.F.);
#563=ORIENTED_EDGE('',*,*,#408,.F.);
#564=ORIENTED_EDGE('',*,*,#409,.T.);
#565=ORIENTED_EDGE('',*,*,#405,.F.);
#566=ORIENTED_EDGE('',*,*,#409,.F.);
#567=ORIENTED_EDGE('',*,*,#410,.F.);
#568=ORIENTED_EDGE('',*,*,#402,.F.);
#569=ORIENTED_EDGE('',*,*,#406,.F.);
#570=ORIENTED_EDGE('',*,*,#407,.T.);
#571=ORIENTED_EDGE('',*,*,#404,.T.);
#572=ORIENTED_EDGE('',*,*,#400,.T.);
#573=ORIENTED_EDGE('',*,*,#411,.T.);
#574=ORIENTED_EDGE('',*,*,#412,.T.);
#575=ORIENTED_EDGE('',*,*,#413,.T.);
#576=ORIENTED_EDGE('',*,*,#414,.T.);
#577=ORIENTED_EDGE('',*,*,#415,.T.);
#578=ORIENTED_EDGE('',*,*,#416,.F.);
#579=ORIENTED_EDGE('',*,*,#417,.T.);
#580=ORIENTED_EDGE('',*,*,#413,.F.);
#581=ORIENTED_EDGE('',*,*,#418,.F.);
#582=ORIENTED_EDGE('',*,*,#419,.F.);
#583=ORIENTED_EDGE('',*,*,#418,.T.);
#584=ORIENTED_EDGE('',*,*,#412,.F.);
#585=ORIENTED_EDGE('',*,*,#420,.F.);
#586=ORIENTED_EDGE('',*,*,#408,.T.);
#587=ORIENTED_EDGE('',*,*,#415,.F.);
#588=ORIENTED_EDGE('',*,*,#421,.F.);
#589=ORIENTED_EDGE('',*,*,#422,.F.);
#590=ORIENTED_EDGE('',*,*,#420,.T.);
#591=ORIENTED_EDGE('',*,*,#411,.F.);
#592=ORIENTED_EDGE('',*,*,#403,.T.);
#593=ORIENTED_EDGE('',*,*,#410,.T.);
#594=ORIENTED_EDGE('',*,*,#423,.F.);
#595=ORIENTED_EDGE('',*,*,#421,.T.);
#596=ORIENTED_EDGE('',*,*,#414,.F.);
#597=ORIENTED_EDGE('',*,*,#417,.F.);
#598=ORIENTED_EDGE('',*,*,#423,.T.);
#599=ORIENTED_EDGE('',*,*,#416,.T.);
#600=ORIENTED_EDGE('',*,*,#419,.T.);
#601=ORIENTED_EDGE('',*,*,#422,.T.);
#602=CYLINDRICAL_SURFACE('',#674,5.5);
#603=CYLINDRICAL_SURFACE('',#680,5.5);
#604=CYLINDRICAL_SURFACE('',#684,7.5);
#605=CYLINDRICAL_SURFACE('',#691,7.5);
#606=CYLINDRICAL_SURFACE('',#697,5.);
#607=CYLINDRICAL_SURFACE('',#711,5.);
#608=CYLINDRICAL_SURFACE('',#712,5.);
#609=CYLINDRICAL_SURFACE('',#713,5.);
#610=CYLINDRICAL_SURFACE('',#714,5.);
#611=CYLINDRICAL_SURFACE('',#716,2.);
#612=CYLINDRICAL_SURFACE('',#719,2.);
#613=CYLINDRICAL_SURFACE('',#721,2.);
#614=CYLINDRICAL_SURFACE('',#726,2.);
#615=CYLINDRICAL_SURFACE('',#728,1.25);
#616=CYLINDRICAL_SURFACE('',#732,2.5);
#617=ADVANCED_FACE('',(#51),#602,.F.);
#618=ADVANCED_FACE('',(#52),#603,.F.);
#619=ADVANCED_FACE('',(#53),#49,.T.);
#620=ADVANCED_FACE('',(#54),#604,.T.);
#621=ADVANCED_FACE('',(#55,#23),#29,.T.);
#622=ADVANCED_FACE('',(#56),#605,.T.);
#623=ADVANCED_FACE('',(#57),#50,.F.);
#624=ADVANCED_FACE('',(#58,#24,#25),#30,.T.);
#625=ADVANCED_FACE('',(#59),#606,.F.);
#626=ADVANCED_FACE('',(#60),#19,.F.);
#627=ADVANCED_FACE('',(#61),#20,.F.);
#628=ADVANCED_FACE('',(#62),#21,.F.);
#629=ADVANCED_FACE('',(#63),#22,.F.);
#630=ADVANCED_FACE('',(#64),#607,.T.);
#631=ADVANCED_FACE('',(#65),#608,.T.);
#632=ADVANCED_FACE('',(#66),#609,.T.);
#633=ADVANCED_FACE('',(#67),#610,.T.);
#634=ADVANCED_FACE('',(#68),#31,.T.);
#635=ADVANCED_FACE('',(#69),#611,.T.);
#636=ADVANCED_FACE('',(#70),#32,.T.);
#637=ADVANCED_FACE('',(#71),#612,.T.);
#638=ADVANCED_FACE('',(#72),#613,.T.);
#639=ADVANCED_FACE('',(#73),#33,.T.);
#640=ADVANCED_FACE('',(#74,#26,#27),#34,.F.);
#641=ADVANCED_FACE('',(#75),#614,.T.);
#642=ADVANCED_FACE('',(#76),#35,.T.);
#643=ADVANCED_FACE('',(#77),#615,.F.);
#644=ADVANCED_FACE('',(#78),#36,.T.);
#645=ADVANCED_FACE('',(#79),#616,.T.);
#646=ADVANCED_FACE('',(#80,#28),#37,.T.);
#647=ADVANCED_FACE('',(#81),#38,.F.);
#648=ADVANCED_FACE('',(#82),#39,.F.);
#649=ADVANCED_FACE('',(#83),#40,.F.);
#650=ADVANCED_FACE('',(#84),#41,.F.);
#651=ADVANCED_FACE('',(#85),#42,.F.);
#652=ADVANCED_FACE('',(#86),#43,.T.);
#653=ADVANCED_FACE('',(#87),#44,.T.);
#654=ADVANCED_FACE('',(#88),#45,.T.);
#655=ADVANCED_FACE('',(#89),#46,.T.);
#656=ADVANCED_FACE('',(#90),#47,.T.);
#657=ADVANCED_FACE('',(#91),#48,.F.);
#658=CLOSED_SHELL('',(#617,#618,#619,#620,#621,#622,#623,#624,#625,#626,
#627,#628,#629,#630,#631,#632,#633,#634,#635,#636,#637,#638,#639,#640,#641,
#642));
#659=CLOSED_SHELL('',(#643,#644,#645,#646,#647));
#660=CLOSED_SHELL('',(#648,#649,#650,#651,#652,#653,#654,#655,#656,#657));
#661=DERIVED_UNIT_ELEMENT(#663,1.);
#662=DERIVED_UNIT_ELEMENT(#1316,-3.);
#663=(
MASS_UNIT()
NAMED_UNIT(*)
SI_UNIT(.KILO.,.GRAM.)
);
#664=DERIVED_UNIT((#661,#662));
#665=MEASURE_REPRESENTATION_ITEM('density measure',
POSITIVE_RATIO_MEASURE(7850.),#664);
#666=PROPERTY_DEFINITION_REPRESENTATION(#671,#668);
#667=PROPERTY_DEFINITION_REPRESENTATION(#672,#669);
#668=REPRESENTATION('material name',(#670),#1313);
#669=REPRESENTATION('density',(#665),#1313);
#670=DESCRIPTIVE_REPRESENTATION_ITEM('Steel','Steel');
#671=PROPERTY_DEFINITION('material property','material name',#1323);
#672=PROPERTY_DEFINITION('material property','density of part',#1323);
#673=AXIS2_PLACEMENT_3D('',#946,#747,#748);
#674=AXIS2_PLACEMENT_3D('',#947,#749,#750);
#675=AXIS2_PLACEMENT_3D('',#950,#751,#752);
#676=AXIS2_PLACEMENT_3D('',#953,#754,#755);
#677=AXIS2_PLACEMENT_3D('',#955,#756,#757);
#678=AXIS2_PLACEMENT_3D('',#957,#758,#759);
#679=AXIS2_PLACEMENT_3D('',#958,#760,#761);
#680=AXIS2_PLACEMENT_3D('',#959,#762,#763);
#681=AXIS2_PLACEMENT_3D('',#961,#764,#765);
#682=AXIS2_PLACEMENT_3D('',#964,#767,#768);
#683=AXIS2_PLACEMENT_3D('',#965,#769,#770);
#684=AXIS2_PLACEMENT_3D('',#993,#771,#772);
#685=AXIS2_PLACEMENT_3D('',#995,#773,#774);
#686=AXIS2_PLACEMENT_3D('',#999,#776,#777);
#687=AXIS2_PLACEMENT_3D('',#1001,#778,#779);
#688=AXIS2_PLACEMENT_3D('',#1003,#780,#781);
#689=AXIS2_PLACEMENT_3D('',#1004,#782,#783);
#690=AXIS2_PLACEMENT_3D('',#1005,#784,#785);
#691=AXIS2_PLACEMENT_3D('',#1006,#786,#787);
#692=AXIS2_PLACEMENT_3D('',#1008,#788,#789);
#693=AXIS2_PLACEMENT_3D('',#1009,#790,#791);
#694=AXIS2_PLACEMENT_3D('',#1012,#793,#794);
#695=AXIS2_PLACEMENT_3D('',#1040,#795,#796);
#696=AXIS2_PLACEMENT_3D('',#1050,#801,#802);
#697=AXIS2_PLACEMENT_3D('',#1051,#803,#804);
#698=AXIS2_PLACEMENT_3D('',#1054,#806,#807);
#699=AXIS2_PLACEMENT_3D('',#1091,#808,#809);
#700=AXIS2_PLACEMENT_3D('',#1093,#810,#811);
#701=AXIS2_PLACEMENT_3D('',#1094,#812,#813);
#702=AXIS2_PLACEMENT_3D('',#1126,#814,#815);
#703=AXIS2_PLACEMENT_3D('',#1128,#816,#817);
#704=AXIS2_PLACEMENT_3D('',#1129,#818,#819);
#705=AXIS2_PLACEMENT_3D('',#1161,#820,#821);
#706=AXIS2_PLACEMENT_3D('',#1163,#822,#823);
#707=AXIS2_PLACEMENT_3D('',#1164,#824,#825);
#708=AXIS2_PLACEMENT_3D('',#1201,#826,#827);
#709=AXIS2_PLACEMENT_3D('',#1203,#828,#829);
#710=AXIS2_PLACEMENT_3D('',#1204,#830,#831);
#711=AXIS2_PLACEMENT_3D('',#1205,#832,#833);
#712=AXIS2_PLACEMENT_3D('',#1207,#835,#836);
#713=AXIS2_PLACEMENT_3D('',#1209,#838,#839);
#714=AXIS2_PLACEMENT_3D('',#1211,#841,#842);
#715=AXIS2_PLACEMENT_3D('',#1213,#844,#845);
#716=AXIS2_PLACEMENT_3D('',#1219,#849,#850);
#717=AXIS2_PLACEMENT_3D('',#1222,#852,#853);
#718=AXIS2_PLACEMENT_3D('',#1223,#854,#855);
#719=AXIS2_PLACEMENT_3D('',#1227,#858,#859);
#720=AXIS2_PLACEMENT_3D('',#1230,#861,#862);
#721=AXIS2_PLACEMENT_3D('',#1231,#863,#864);
#722=AXIS2_PLACEMENT_3D('',#1233,#865,#866);
#723=AXIS2_PLACEMENT_3D('',#1235,#868,#869);
#724=AXIS2_PLACEMENT_3D('',#1239,#872,#873);
#725=AXIS2_PLACEMENT_3D('',#1242,#875,#876);
#726=AXIS2_PLACEMENT_3D('',#1243,#877,#878);
#727=AXIS2_PLACEMENT_3D('',#1245,#880,#881);
#728=AXIS2_PLACEMENT_3D('',#1246,#882,#883);
#729=AXIS2_PLACEMENT_3D('',#1248,#884,#885);
#730=AXIS2_PLACEMENT_3D('',#1251,#887,#888);
#731=AXIS2_PLACEMENT_3D('',#1252,#889,#890);
#732=AXIS2_PLACEMENT_3D('',#1253,#891,#892);
#733=AXIS2_PLACEMENT_3D('',#1255,#893,#894);
#734=AXIS2_PLACEMENT_3D('',#1258,#896,#897);
#735=AXIS2_PLACEMENT_3D('',#1259,#898,#899);
#736=AXIS2_PLACEMENT_3D('',#1260,#900,#901);
#737=AXIS2_PLACEMENT_3D('',#1261,#902,#903);
#738=AXIS2_PLACEMENT_3D('',#1270,#908,#909);
#739=AXIS2_PLACEMENT_3D('',#1276,#913,#914);
#740=AXIS2_PLACEMENT_3D('',#1282,#918,#919);
#741=AXIS2_PLACEMENT_3D('',#1284,#921,#922);
#742=AXIS2_PLACEMENT_3D('',#1294,#928,#929);
#743=AXIS2_PLACEMENT_3D('',#1300,#933,#934);
#744=AXIS2_PLACEMENT_3D('',#1304,#937,#938);
#745=AXIS2_PLACEMENT_3D('',#1308,#941,#942);
#746=AXIS2_PLACEMENT_3D('',#1310,#944,#945);
#747=DIRECTION('axis',(0.,0.,1.));
#748=DIRECTION('refdir',(1.,0.,0.));
#749=DIRECTION('center_axis',(0.,-0.819152044288991,0.573576436351047));
#750=DIRECTION('ref_axis',(-1.,0.,0.));
#751=DIRECTION('center_axis',(0.,-0.819152044288991,0.573576436351047));
#752=DIRECTION('ref_axis',(-1.,0.,0.));
#753=DIRECTION('',(0.,-0.819152044288991,0.573576436351047));
#754=DIRECTION('center_axis',(0.,0.819152044288991,-0.573576436351047));
#755=DIRECTION('ref_axis',(-1.,0.,0.));
#756=DIRECTION('center_axis',(0.,-0.819152044288991,0.573576436351047));
#757=DIRECTION('ref_axis',(-1.,0.,0.));
#758=DIRECTION('center_axis',(0.,0.461748613235034,-0.887010833178222));
#759=DIRECTION('ref_axis',(0.,-0.887010833178221,-0.461748613235034));
#760=DIRECTION('center_axis',(0.,-0.819152044288991,0.573576436351047));
#761=DIRECTION('ref_axis',(-1.,0.,0.));
#762=DIRECTION('center_axis',(0.,0.,1.));
#763=DIRECTION('ref_axis',(-1.,0.,0.));
#764=DIRECTION('center_axis',(0.,0.,1.));
#765=DIRECTION('ref_axis',(-1.,0.,0.));
#766=DIRECTION('',(0.,0.,1.));
#767=DIRECTION('center_axis',(0.,0.,1.));
#768=DIRECTION('ref_axis',(-1.,0.,0.));
#769=DIRECTION('center_axis',(0.,0.,1.));
#770=DIRECTION('ref_axis',(-1.,0.,0.));
#771=DIRECTION('center_axis',(0.,-0.819152044288991,0.573576436351047));
#772=DIRECTION('ref_axis',(-1.,0.,0.));
#773=DIRECTION('center_axis',(0.,-0.819152044288991,0.573576436351047));
#774=DIRECTION('ref_axis',(-1.,0.,0.));
#775=DIRECTION('',(0.,0.819152044288991,-0.573576436351047));
#776=DIRECTION('center_axis',(0.,-0.819152044288991,0.573576436351047));
#777=DIRECTION('ref_axis',(-1.,0.,0.));
#778=DIRECTION('center_axis',(0.,-0.819152044288991,0.573576436351047));
#779=DIRECTION('ref_axis',(-1.,0.,0.));
#780=DIRECTION('center_axis',(0.,0.461748613235034,-0.887010833178222));
#781=DIRECTION('ref_axis',(0.,-0.887010833178222,-0.461748613235034));
#782=DIRECTION('center_axis',(0.,-0.819152044288991,0.573576436351047));
#783=DIRECTION('ref_axis',(-1.,0.,0.));
#784=DIRECTION('center_axis',(0.,-0.819152044288991,0.573576436351047));
#785=DIRECTION('ref_axis',(1.,0.,0.));
#786=DIRECTION('center_axis',(0.,0.,1.));
#787=DIRECTION('ref_axis',(-1.,0.,0.));
#788=DIRECTION('center_axis',(0.,0.,1.));
#789=DIRECTION('ref_axis',(-1.,0.,0.));
#790=DIRECTION('center_axis',(0.,0.,1.));
#791=DIRECTION('ref_axis',(-1.,0.,0.));
#792=DIRECTION('',(0.,0.,-1.));
#793=DIRECTION('center_axis',(0.,0.,-1.));
#794=DIRECTION('ref_axis',(-1.,0.,0.));
#795=DIRECTION('center_axis',(0.,0.,1.));
#796=DIRECTION('ref_axis',(1.,0.,0.));
#797=DIRECTION('',(-1.,0.,0.));
#798=DIRECTION('',(0.,-1.,0.));
#799=DIRECTION('',(1.,0.,0.));
#800=DIRECTION('',(0.,1.,0.));
#801=DIRECTION('center_axis',(0.,0.,-1.));
#802=DIRECTION('ref_axis',(-1.,0.,0.));
#803=DIRECTION('center_axis',(0.,0.,-1.));
#804=DIRECTION('ref_axis',(-1.,0.,0.));
#805=DIRECTION('',(0.,0.,-1.));
#806=DIRECTION('center_axis',(0.,0.,1.));
#807=DIRECTION('ref_axis',(-1.,0.,0.));
#808=DIRECTION('center_axis',(-0.857492925712544,0.514495755427526,0.));
#809=DIRECTION('ref_axis',(-0.514495755427526,-0.857492925712544,0.));
#810=DIRECTION('center_axis',(0.514495755427527,-0.857492925712544,0.));
#811=DIRECTION('ref_axis',(-0.857492925712544,-0.514495755427527,0.));
#812=DIRECTION('center_axis',(0.,0.,1.));
#813=DIRECTION('ref_axis',(-1.,0.,0.));
#814=DIRECTION('center_axis',(0.514495755427526,0.857492925712544,0.));
#815=DIRECTION('ref_axis',(-0.857492925712544,0.514495755427526,0.));
#816=DIRECTION('center_axis',(-0.857492925712545,-0.514495755427525,0.));
#817=DIRECTION('ref_axis',(-0.514495755427525,0.857492925712545,0.));
#818=DIRECTION('center_axis',(0.,0.,1.));
#819=DIRECTION('ref_axis',(0.,1.,0.));
#820=DIRECTION('center_axis',(0.857492925712544,-0.514495755427526,0.));
#821=DIRECTION('ref_axis',(0.514495755427526,0.857492925712544,0.));
#822=DIRECTION('center_axis',(-0.514495755427525,0.857492925712545,0.));
#823=DIRECTION('ref_axis',(0.857492925712545,0.514495755427525,0.));
#824=DIRECTION('center_axis',(0.,0.,1.));
#825=DIRECTION('ref_axis',(1.,0.,0.));
#826=DIRECTION('center_axis',(-0.514495755427527,-0.857492925712544,0.));
#827=DIRECTION('ref_axis',(0.857492925712544,-0.514495755427527,0.));
#828=DIRECTION('center_axis',(0.857492925712545,0.514495755427525,0.));
#829=DIRECTION('ref_axis',(0.514495755427525,-0.857492925712545,0.));
#830=DIRECTION('center_axis',(0.,0.,1.));
#831=DIRECTION('ref_axis',(0.,-1.,0.));
#832=DIRECTION('center_axis',(1.,0.,0.));
#833=DIRECTION('ref_axis',(0.,-0.707106781186547,0.707106781186547));
#834=DIRECTION('',(1.,0.,0.));
#835=DIRECTION('center_axis',(0.,1.,0.));
#836=DIRECTION('ref_axis',(0.707106781186547,0.,0.707106781186547));
#837=DIRECTION('',(0.,1.,0.));
#838=DIRECTION('center_axis',(-1.,0.,0.));
#839=DIRECTION('ref_axis',(0.,0.707106781186547,0.707106781186547));
#840=DIRECTION('',(-1.,0.,0.));
#841=DIRECTION('center_axis',(0.,-1.,0.));
#842=DIRECTION('ref_axis',(-0.707106781186547,0.,0.707106781186547));
#843=DIRECTION('',(0.,-1.,0.));
#844=DIRECTION('center_axis',(0.,1.,0.));
#845=DIRECTION('ref_axis',(-1.,0.,0.));
#846=DIRECTION('',(0.,0.,1.));
#847=DIRECTION('',(1.,0.,0.));
#848=DIRECTION('',(0.,0.,-1.));
#849=DIRECTION('center_axis',(0.,0.,1.));
#850=DIRECTION('ref_axis',(0.707106781186548,0.707106781186548,0.));
#851=DIRECTION('',(0.,0.,-1.));
#852=DIRECTION('center_axis',(0.,0.,1.));
#853=DIRECTION('ref_axis',(0.707106781186548,0.707106781186548,0.));
#854=DIRECTION('center_axis',(1.,0.,0.));
#855=DIRECTION('ref_axis',(0.,1.,0.));
#856=DIRECTION('',(0.,0.,1.));
#857=DIRECTION('',(0.,-1.,0.));
#858=DIRECTION('center_axis',(0.,0.,1.));
#859=DIRECTION('ref_axis',(0.707106781186548,-0.707106781186548,0.));
#860=DIRECTION('',(0.,0.,-1.));
#861=DIRECTION('center_axis',(0.,0.,1.));
#862=DIRECTION('ref_axis',(0.707106781186548,-0.707106781186548,0.));
#863=DIRECTION('center_axis',(0.,0.,1.));
#864=DIRECTION('ref_axis',(-0.707106781186548,0.707106781186548,0.));
#865=DIRECTION('center_axis',(0.,0.,1.));
#866=DIRECTION('ref_axis',(-0.707106781186548,0.707106781186548,0.));
#867=DIRECTION('',(0.,0.,1.));
#868=DIRECTION('center_axis',(-1.,0.,0.));
#869=DIRECTION('ref_axis',(0.,-1.,0.));
#870=DIRECTION('',(0.,1.,0.));
#871=DIRECTION('',(0.,0.,-1.));
#872=DIRECTION('center_axis',(0.,0.,1.));
#873=DIRECTION('ref_axis',(1.,0.,0.));
#874=DIRECTION('',(-1.,0.,0.));
#875=DIRECTION('center_axis',(0.,0.,1.));
#876=DIRECTION('ref_axis',(-0.707106781186548,-0.707106781186548,0.));
#877=DIRECTION('center_axis',(0.,0.,1.));
#878=DIRECTION('ref_axis',(-0.707106781186548,-0.707106781186548,0.));
#879=DIRECTION('',(0.,0.,1.));
#880=DIRECTION('center_axis',(0.,-1.,0.));
#881=DIRECTION('ref_axis',(1.,0.,0.));
#882=DIRECTION('center_axis',(0.,0.,-1.));
#883=DIRECTION('ref_axis',(-1.,0.,0.));
#884=DIRECTION('center_axis',(0.,0.,-1.));
#885=DIRECTION('ref_axis',(-1.,0.,0.));
#886=DIRECTION('',(0.,0.,-1.));
#887=DIRECTION('center_axis',(0.,0.,-1.));
#888=DIRECTION('ref_axis',(-1.,0.,0.));
#889=DIRECTION('center_axis',(0.,0.,1.));
#890=DIRECTION('ref_axis',(-1.,0.,0.));
#891=DIRECTION('center_axis',(0.,0.,1.));
#892=DIRECTION('ref_axis',(-1.,0.,0.));
#893=DIRECTION('center_axis',(0.,0.,1.));
#894=DIRECTION('ref_axis',(-1.,0.,0.));
#895=DIRECTION('',(0.,0.,-1.));
#896=DIRECTION('center_axis',(0.,0.,1.));
#897=DIRECTION('ref_axis',(-1.,0.,0.));
#898=DIRECTION('center_axis',(0.,0.,1.));
#899=DIRECTION('ref_axis',(-1.,0.,0.));
#900=DIRECTION('center_axis',(0.,0.,1.));
#901=DIRECTION('ref_axis',(-1.,0.,0.));
#902=DIRECTION('center_axis',(0.,1.,0.));
#903=DIRECTION('ref_axis',(1.,0.,0.));
#904=DIRECTION('',(1.,0.,0.));
#905=DIRECTION('',(0.,0.,-1.));
#906=DIRECTION('',(1.,0.,0.));
#907=DIRECTION('',(0.,0.,-1.));
#908=DIRECTION('center_axis',(-1.,0.,0.));
#909=DIRECTION('ref_axis',(0.,1.,0.));
#910=DIRECTION('',(0.,1.,0.));
#911=DIRECTION('',(0.,0.,-1.));
#912=DIRECTION('',(0.,1.,0.));
#913=DIRECTION('center_axis',(0.,-1.,0.));
#914=DIRECTION('ref_axis',(-1.,0.,0.));
#915=DIRECTION('',(-1.,0.,0.));
#916=DIRECTION('',(0.,0.,1.));
#917=DIRECTION('',(-1.,0.,0.));
#918=DIRECTION('center_axis',(0.,0.,-1.));
#919=DIRECTION('ref_axis',(-1.,0.,0.));
#920=DIRECTION('',(0.,-1.,0.));
#921=DIRECTION('center_axis',(0.,0.,1.));
#922=DIRECTION('ref_axis',(1.,0.,0.));
#923=DIRECTION('',(0.,1.,0.));
#924=DIRECTION('',(-1.,0.,0.));
#925=DIRECTION('',(0.,-1.,0.));
#926=DIRECTION('',(1.,0.,0.));
#927=DIRECTION('',(0.,1.,0.));
#928=DIRECTION('center_axis',(-1.,0.,0.));
#929=DIRECTION('ref_axis',(0.,-1.,0.));
#930=DIRECTION('',(0.,1.,0.));
#931=DIRECTION('',(0.,0.,1.));
#932=DIRECTION('',(0.,0.,1.));
#933=DIRECTION('center_axis',(0.,1.,0.));
#934=DIRECTION('ref_axis',(-1.,0.,0.));
#935=DIRECTION('',(1.,0.,0.));
#936=DIRECTION('',(0.,0.,1.));
#937=DIRECTION('center_axis',(1.,0.,0.));
#938=DIRECTION('ref_axis',(0.,1.,0.));
#939=DIRECTION('',(0.,0.,1.));
#940=DIRECTION('',(0.,-1.,0.));
#941=DIRECTION('center_axis',(0.,-1.,0.));
#942=DIRECTION('ref_axis',(1.,0.,0.));
#943=DIRECTION('',(-1.,0.,0.));
#944=DIRECTION('center_axis',(0.,0.,1.));
#945=DIRECTION('ref_axis',(-1.,0.,0.));
#946=CARTESIAN_POINT('',(0.,0.,0.));
#947=CARTESIAN_POINT('Origin',(-55.,27.6840743299607,18.448852857099));
#948=CARTESIAN_POINT('',(-49.5,27.6840743299607,18.448852857099));
#949=CARTESIAN_POINT('',(-60.5,27.6840743299607,18.448852857099));
#950=CARTESIAN_POINT('Origin',(-55.,27.6840743299607,18.448852857099));
#951=CARTESIAN_POINT('',(-49.5,19.4925538870708,24.1846172206095));
#952=CARTESIAN_POINT('',(-49.5,27.6840743299607,18.448852857099));
#953=CARTESIAN_POINT('Origin',(-55.,19.4925538870708,24.1846172206095));
#954=CARTESIAN_POINT('',(-54.1318213117089,24.5689539764919,14.));
#955=CARTESIAN_POINT('Origin',(-55.,27.6840743299607,18.448852857099));
#956=CARTESIAN_POINT('',(-55.8681786882911,24.5689539764919,14.));
#957=CARTESIAN_POINT('Origin',(-55.,30.0000004470348,16.827223931987));
#958=CARTESIAN_POINT('Origin',(-55.,27.6840743299607,18.448852857099));
#959=CARTESIAN_POINT('Origin',(-55.,30.0000004470348,6.));
#960=CARTESIAN_POINT('',(-49.5,30.0000004470348,0.));
#961=CARTESIAN_POINT('Origin',(-55.,30.0000004470348,0.));
#962=CARTESIAN_POINT('',(-49.5,30.0000004470348,14.));
#963=CARTESIAN_POINT('',(-49.5,30.0000004470348,6.));
#964=CARTESIAN_POINT('Origin',(-55.,30.0000004470348,14.));
#965=CARTESIAN_POINT('Origin',(-55.,30.0000004470348,14.));
#966=CARTESIAN_POINT('Ctrl Pts',(-55.8681786882911,24.5689539764919,14.000000089407));
#967=CARTESIAN_POINT('Ctrl Pts',(-55.8681786882911,24.5689539764919,14.000000089407));
#968=CARTESIAN_POINT('Ctrl Pts',(-55.8681786882911,24.5689539764919,14.000000089407));
#969=CARTESIAN_POINT('Ctrl Pts',(-60.8849767827722,25.3709130856044,13.9999975204656));
#970=CARTESIAN_POINT('Ctrl Pts',(-60.8849767827722,25.3709144229159,14.4174726411102));
#971=CARTESIAN_POINT('Ctrl Pts',(-60.8849767827722,25.0289388243983,14.6569265330761));
#972=CARTESIAN_POINT('Ctrl Pts',(-60.4827345179202,30.4354567662916,13.9999812970499));
#973=CARTESIAN_POINT('Ctrl Pts',(-60.4827345179202,30.4354665490117,17.053901293849));
#974=CARTESIAN_POINT('Ctrl Pts',(-60.4827345179202,27.9338417405259,18.8055578425231));
#975=CARTESIAN_POINT('Ctrl Pts',(-60.0804922530681,35.5000004469788,13.9999650736343));
#976=CARTESIAN_POINT('Ctrl Pts',(-60.0804922530681,35.5000186751075,19.6903299465877));
#977=CARTESIAN_POINT('Ctrl Pts',(-60.0804922530681,30.8387446566536,22.9541891519702));
#978=CARTESIAN_POINT('Ctrl Pts',(-55.,35.5000004469788,13.9999650736343));
#979=CARTESIAN_POINT('Ctrl Pts',(-55.,35.5000186751075,19.6903299465877));
#980=CARTESIAN_POINT('Ctrl Pts',(-55.,30.8387446566536,22.9541891519702));
#981=CARTESIAN_POINT('Ctrl Pts',(-49.9195077469319,35.5000004469788,13.9999650736343));
#982=CARTESIAN_POINT('Ctrl Pts',(-49.9195077469319,35.5000186751075,19.6903299465877));
#983=CARTESIAN_POINT('Ctrl Pts',(-49.9195077469319,30.8387446566536,22.9541891519702));
#984=CARTESIAN_POINT('Ctrl Pts',(-49.5172654820798,30.4354567662916,13.9999812970499));
#985=CARTESIAN_POINT('Ctrl Pts',(-49.5172654820798,30.4354665490117,17.053901293849));
#986=CARTESIAN_POINT('Ctrl Pts',(-49.5172654820798,27.9338417405259,18.8055578425231));
#987=CARTESIAN_POINT('Ctrl Pts',(-49.1150232172278,25.3709130856044,13.9999975204656));
#988=CARTESIAN_POINT('Ctrl Pts',(-49.1150232172278,25.3709144229159,14.4174726411102));
#989=CARTESIAN_POINT('Ctrl Pts',(-49.1150232172278,25.0289388243983,14.6569265330761));
#990=CARTESIAN_POINT('Ctrl Pts',(-54.1318213117089,24.5689539764919,14.000000089407));
#991=CARTESIAN_POINT('Ctrl Pts',(-54.1318213117089,24.5689539764919,14.000000089407));
#992=CARTESIAN_POINT('Ctrl Pts',(-54.1318213117089,24.5689539764919,14.000000089407));
#993=CARTESIAN_POINT('Origin',(-55.,27.6840743299607,18.448852857099));
#994=CARTESIAN_POINT('',(-47.5,19.4925538870708,24.1846172206095));
#995=CARTESIAN_POINT('Origin',(-55.,19.4925538870708,24.1846172206095));
#996=CARTESIAN_POINT('',(-47.5,27.6840743299607,18.448852857099));
#997=CARTESIAN_POINT('',(-47.5,27.6840743299607,18.448852857099));
#998=CARTESIAN_POINT('',(-62.5,27.6840743299607,18.448852857099));
#999=CARTESIAN_POINT('Origin',(-55.,27.6840743299607,18.448852857099));
#1000=CARTESIAN_POINT('',(-60.1724012059007,24.5689539764919,14.));
#1001=CARTESIAN_POINT('Origin',(-55.,27.6840743299607,18.448852857099));
#1002=CARTESIAN_POINT('',(-49.8275987940993,24.5689539764919,14.));
#1003=CARTESIAN_POINT('Origin',(-55.,30.0000004470348,16.827223931987));
#1004=CARTESIAN_POINT('Origin',(-55.,27.6840743299607,18.448852857099));
#1005=CARTESIAN_POINT('Origin',(-55.,19.4925538870708,24.1846172206095));
#1006=CARTESIAN_POINT('Origin',(-55.,30.0000004470348,6.));
#1007=CARTESIAN_POINT('',(-47.5,30.0000004470348,14.));
#1008=CARTESIAN_POINT('Origin',(-55.,30.0000004470348,14.));
#1009=CARTESIAN_POINT('Origin',(-55.,30.0000004470348,14.));
#1010=CARTESIAN_POINT('',(-47.5,30.0000004470348,6.));
#1011=CARTESIAN_POINT('',(-47.5,30.0000004470348,6.));
#1012=CARTESIAN_POINT('Origin',(-55.,30.0000004470348,6.));
#1013=CARTESIAN_POINT('Ctrl Pts',(-60.1724012059007,24.5689539764919,14.000000089407));
#1014=CARTESIAN_POINT('Ctrl Pts',(-60.1724012059007,24.5689539764919,14.000000089407));
#1015=CARTESIAN_POINT('Ctrl Pts',(-60.1724012059007,24.5689539764919,14.000000089407));
#1016=CARTESIAN_POINT('Ctrl Pts',(-63.8494032707175,28.0708444532726,13.9999965327803));
#1017=CARTESIAN_POINT('Ctrl Pts',(-63.8494032707175,28.0708463047376,15.8229675898525));
#1018=CARTESIAN_POINT('Ctrl Pts',(-63.8494032707175,26.5775558366565,16.8685808323395));
#1019=CARTESIAN_POINT('Ctrl Pts',(-61.9635784094484,32.7854224501504,13.9999917445112));
#1020=CARTESIAN_POINT('Ctrl Pts',(-61.9635784094484,32.7854267942336,18.2772198069362));
#1021=CARTESIAN_POINT('Ctrl Pts',(-61.9635784094484,29.2817266830061,20.7305370364439));
#1022=CARTESIAN_POINT('Ctrl Pts',(-60.0777535481793,37.5000004470282,13.9999869562421));
#1023=CARTESIAN_POINT('Ctrl Pts',(-60.0777535481793,37.5000072837295,20.7314720240199));
#1024=CARTESIAN_POINT('Ctrl Pts',(-60.0777535481793,31.9858975293557,24.5924932405482));
#1025=CARTESIAN_POINT('Ctrl Pts',(-55.,37.5000004470282,13.9999869562421));
#1026=CARTESIAN_POINT('Ctrl Pts',(-55.,37.5000072837295,20.7314720240199));
#1027=CARTESIAN_POINT('Ctrl Pts',(-55.,31.9858975293557,24.5924932405482));
#1028=CARTESIAN_POINT('Ctrl Pts',(-49.9222464518207,37.5000004470282,13.9999869562421));
#1029=CARTESIAN_POINT('Ctrl Pts',(-49.9222464518207,37.5000072837295,20.7314720240199));
#1030=CARTESIAN_POINT('Ctrl Pts',(-49.9222464518207,31.9858975293557,24.5924932405482));
#1031=CARTESIAN_POINT('Ctrl Pts',(-48.0364215905516,32.7854224501504,13.9999917445112));
#1032=CARTESIAN_POINT('Ctrl Pts',(-48.0364215905516,32.7854267942336,18.2772198069362));
#1033=CARTESIAN_POINT('Ctrl Pts',(-48.0364215905516,29.2817266830061,20.7305370364439));
#1034=CARTESIAN_POINT('Ctrl Pts',(-46.1505967292825,28.0708444532726,13.9999965327803));
#1035=CARTESIAN_POINT('Ctrl Pts',(-46.1505967292825,28.0708463047376,15.8229675898525));
#1036=CARTESIAN_POINT('Ctrl Pts',(-46.1505967292825,26.5775558366565,16.8685808323395));
#1037=CARTESIAN_POINT('Ctrl Pts',(-49.8275987940993,24.5689539764919,14.000000089407));
#1038=CARTESIAN_POINT('Ctrl Pts',(-49.8275987940993,24.5689539764919,14.000000089407));
#1039=CARTESIAN_POINT('Ctrl Pts',(-49.8275987940993,24.5689539764919,14.000000089407));
#1040=CARTESIAN_POINT('Origin',(3.00000000000001,-28.,6.));
#1041=CARTESIAN_POINT('',(76.,-101.,6.));
#1042=CARTESIAN_POINT('',(-70.,-101.,6.));
#1043=CARTESIAN_POINT('',(-36.,-101.,6.));
#1044=CARTESIAN_POINT('',(76.,45.,6.));
#1045=CARTESIAN_POINT('',(76.,-67.,6.));
#1046=CARTESIAN_POINT('',(-70.,45.,6.));
#1047=CARTESIAN_POINT('',(42.,45.,6.));
#1048=CARTESIAN_POINT('',(-70.,11.,6.));
#1049=CARTESIAN_POINT('',(8.00000000000001,-28.,6.));
#1050=CARTESIAN_POINT('Origin',(3.00000000000001,-28.,6.));
#1051=CARTESIAN_POINT('Origin',(3.00000000000001,-28.,6.));
#1052=CARTESIAN_POINT('',(8.00000000000001,-28.,0.));
#1053=CARTESIAN_POINT('',(8.00000000000001,-28.,6.));
#1054=CARTESIAN_POINT('Origin',(3.00000000000001,-28.,0.));
#1055=CARTESIAN_POINT('Ctrl Pts',(-73.,-106.,1.));
#1056=CARTESIAN_POINT('Ctrl Pts',(-73.,-106.,1.37399912542736));
#1057=CARTESIAN_POINT('Ctrl Pts',(-72.9248246630036,-105.874707771673,2.49620747080894));
#1058=CARTESIAN_POINT('Ctrl Pts',(-72.4258518893073,-105.043086482179,4.22392798232825));
#1059=CARTESIAN_POINT('Ctrl Pts',(-71.3460550754456,-103.243425125743,5.65838635896109));
#1060=CARTESIAN_POINT('Ctrl Pts',(-70.4487989505128,-101.747998250855,6.));
#1061=CARTESIAN_POINT('Ctrl Pts',(-70.,-101.,6.));
#1062=CARTESIAN_POINT('Ctrl Pts',(-73.5983986006838,-106.,1.));
#1063=CARTESIAN_POINT('Ctrl Pts',(-73.5983986006838,-106.,1.41944551867113));
#1064=CARTESIAN_POINT('Ctrl Pts',(-73.4858027793618,-105.840688839773,2.68281075050522));
#1065=CARTESIAN_POINT('Ctrl Pts',(-72.7998622598721,-104.862591002332,4.44536417675879));
#1066=CARTESIAN_POINT('Ctrl Pts',(-71.5160321542776,-103.07049265719,5.71266274204128));
#1067=CARTESIAN_POINT('Ctrl Pts',(-70.5057892934351,-101.691007907932,6.));
#1068=CARTESIAN_POINT('Ctrl Pts',(-70.,-101.,6.));
#1069=CARTESIAN_POINT('Ctrl Pts',(-74.634374227536,-105.497851191203,1.));
#1070=CARTESIAN_POINT('Ctrl Pts',(-74.634374227536,-105.497851191203,1.4584941692853));
#1071=CARTESIAN_POINT('Ctrl Pts',(-74.4591185274616,-105.328986327931,2.84378013837034));
#1072=CARTESIAN_POINT('Ctrl Pts',(-73.4573501805557,-104.364811825448,4.62312651882743));
#1073=CARTESIAN_POINT('Ctrl Pts',(-71.8158509323522,-102.773324362799,5.75183192382479));
#1074=CARTESIAN_POINT('Ctrl Pts',(-70.6055223935491,-101.591274807819,6.));
#1075=CARTESIAN_POINT('Ctrl Pts',(-70.,-101.,6.));
#1076=CARTESIAN_POINT('Ctrl Pts',(-75.,-104.448798950513,1.));
#1077=CARTESIAN_POINT('Ctrl Pts',(-75.,-104.448798950513,1.40760059161038));
#1078=CARTESIAN_POINT('Ctrl Pts',(-74.8492224514531,-104.345591312384,2.63430917071431));
#1079=CARTESIAN_POINT('Ctrl Pts',(-73.9091479572148,-103.70770398946,4.38907291048231));
#1080=CARTESIAN_POINT('Ctrl Pts',(-72.1146886375054,-102.474434328634,5.69937540652279));
#1081=CARTESIAN_POINT('Ctrl Pts',(-70.705255493663,-101.491541707705,6.));
#1082=CARTESIAN_POINT('Ctrl Pts',(-70.,-101.,6.));
#1083=CARTESIAN_POINT('Ctrl Pts',(-75.,-104.,1.));
#1084=CARTESIAN_POINT('Ctrl Pts',(-75.,-104.,1.37399912542736));
#1085=CARTESIAN_POINT('Ctrl Pts',(-74.8747077716727,-103.924824663004,2.49620747080894));
#1086=CARTESIAN_POINT('Ctrl Pts',(-74.0430864821788,-103.425851889307,4.22392798232825));
#1087=CARTESIAN_POINT('Ctrl Pts',(-72.2434251257426,-102.346055075446,5.65838635896109));
#1088=CARTESIAN_POINT('Ctrl Pts',(-70.7479982508547,-101.448798950513,6.));
#1089=CARTESIAN_POINT('Ctrl Pts',(-70.,-101.,6.));
#1090=CARTESIAN_POINT('',(-73.,-106.,1.));
#1091=CARTESIAN_POINT('Origin',(-70.,-101.,1.));
#1092=CARTESIAN_POINT('',(-75.,-104.,1.));
#1093=CARTESIAN_POINT('Origin',(-70.,-101.,1.));
#1094=CARTESIAN_POINT('Origin',(-73.,-104.,1.));
#1095=CARTESIAN_POINT('Ctrl Pts',(-75.,48.,1.));
#1096=CARTESIAN_POINT('Ctrl Pts',(-75.,48.,1.37399912542736));
#1097=CARTESIAN_POINT('Ctrl Pts',(-74.8725293401997,47.9235176041198,2.49151920949336));
#1098=CARTESIAN_POINT('Ctrl Pts',(-73.7151189143191,47.2290713485914,4.92536463632252));
#1099=CARTESIAN_POINT('Ctrl Pts',(-71.4959965017094,45.8975979010257,6.));
#1100=CARTESIAN_POINT('Ctrl Pts',(-70.,45.,6.));
#1101=CARTESIAN_POINT('Ctrl Pts',(-75.,48.5983986006838,1.));
#1102=CARTESIAN_POINT('Ctrl Pts',(-75.,48.5983986006838,1.41944551867114));
#1103=CARTESIAN_POINT('Ctrl Pts',(-74.8425315007811,48.4858308212111,2.68382642389862));
#1104=CARTESIAN_POINT('Ctrl Pts',(-73.4663844369552,47.524984305918,5.14871088763531));
#1105=CARTESIAN_POINT('Ctrl Pts',(-71.3820158158649,46.0115785868702,6.));
#1106=CARTESIAN_POINT('Ctrl Pts',(-70.,45.,6.));
#1107=CARTESIAN_POINT('Ctrl Pts',(-74.4979166711204,49.6344287722622,1.));
#1108=CARTESIAN_POINT('Ctrl Pts',(-74.4979166711204,49.6344287722622,1.4584941692853));
#1109=CARTESIAN_POINT('Ctrl Pts',(-74.3309615063873,49.461624612871,2.85019700171933));
#1110=CARTESIAN_POINT('Ctrl Pts',(-72.9754566040871,48.0516896542621,5.32259529766818));
#1111=CARTESIAN_POINT('Ctrl Pts',(-71.182549615637,46.2110447870981,6.));
#1112=CARTESIAN_POINT('Ctrl Pts',(-70.,45.,6.));
#1113=CARTESIAN_POINT('Ctrl Pts',(-73.4487989505128,50.,1.));
#1114=CARTESIAN_POINT('Ctrl Pts',(-73.4487989505128,50.,1.40760059161038));
#1115=CARTESIAN_POINT('Ctrl Pts',(-73.3452451920638,49.8500154923669,2.63381837632557));
#1116=CARTESIAN_POINT('Ctrl Pts',(-72.4535258959401,48.5312627202807,5.09261535318645));
#1117=CARTESIAN_POINT('Ctrl Pts',(-70.983083415409,46.410510987326,6.));
#1118=CARTESIAN_POINT('Ctrl Pts',(-70.,45.,6.));
#1119=CARTESIAN_POINT('Ctrl Pts',(-73.,50.,1.));
#1120=CARTESIAN_POINT('Ctrl Pts',(-73.,50.,1.37399912542736));
#1121=CARTESIAN_POINT('Ctrl Pts',(-72.9235176041198,49.8725293401997,2.49151920949336));
#1122=CARTESIAN_POINT('Ctrl Pts',(-72.2290713485914,48.7151189143191,4.92536463632252));
#1123=CARTESIAN_POINT('Ctrl Pts',(-70.8975979010256,46.4959965017094,6.));
#1124=CARTESIAN_POINT('Ctrl Pts',(-70.,45.,6.));
#1125=CARTESIAN_POINT('',(-75.,48.,1.));
#1126=CARTESIAN_POINT('Origin',(-70.,45.,1.));
#1127=CARTESIAN_POINT('',(-73.,50.,1.));
#1128=CARTESIAN_POINT('Origin',(-70.,45.,1.));
#1129=CARTESIAN_POINT('Origin',(-73.,48.,1.));
#1130=CARTESIAN_POINT('Ctrl Pts',(79.,50.,1.));
#1131=CARTESIAN_POINT('Ctrl Pts',(79.,50.,1.37399912542736));
#1132=CARTESIAN_POINT('Ctrl Pts',(78.9235159695343,49.8725266158904,2.49151265143639));
#1133=CARTESIAN_POINT('Ctrl Pts',(78.2290605655302,48.7151009425504,4.92532273927065));
#1134=CARTESIAN_POINT('Ctrl Pts',(76.8975979010257,46.4959965017094,6.));
#1135=CARTESIAN_POINT('Ctrl Pts',(76.,45.,6.));
#1136=CARTESIAN_POINT('Ctrl Pts',(79.5983986006838,50.,1.));
#1137=CARTESIAN_POINT('Ctrl Pts',(79.5983986006838,50.,1.41944551867114));
#1138=CARTESIAN_POINT('Ctrl Pts',(79.4858266110412,49.8425252516348,2.68383961535656));
#1139=CARTESIAN_POINT('Ctrl Pts',(78.5249686163228,48.4663651180798,5.14873982982266));
#1140=CARTESIAN_POINT('Ctrl Pts',(77.0115785868702,46.3820158158649,6.));
#1141=CARTESIAN_POINT('Ctrl Pts',(76.,45.,6.));
#1142=CARTESIAN_POINT('Ctrl Pts',(80.6344208936008,49.4979072129357,1.));
#1143=CARTESIAN_POINT('Ctrl Pts',(80.6344208936008,49.4979072129357,1.4584941692853));
#1144=CARTESIAN_POINT('Ctrl Pts',(80.4616214348115,49.3309572905567,2.8502057646529));
#1145=CARTESIAN_POINT('Ctrl Pts',(79.0517063827557,47.9754715014741,5.32265576009408));
#1146=CARTESIAN_POINT('Ctrl Pts',(77.2110447870981,46.182549615637,6.));
#1147=CARTESIAN_POINT('Ctrl Pts',(76.,45.,6.));
#1148=CARTESIAN_POINT('Ctrl Pts',(81.,48.4487989505128,1.));
#1149=CARTESIAN_POINT('Ctrl Pts',(81.,48.4487989505128,1.40760059161038));
#1150=CARTESIAN_POINT('Ctrl Pts',(80.8500143750834,48.3452456235713,2.63381949686643));
#1151=CARTESIAN_POINT('Ctrl Pts',(79.5312609335752,47.4535275474747,5.09261541365373));
#1152=CARTESIAN_POINT('Ctrl Pts',(77.410510987326,45.983083415409,6.));
#1153=CARTESIAN_POINT('Ctrl Pts',(76.,45.,6.));
#1154=CARTESIAN_POINT('Ctrl Pts',(81.,48.,1.));
#1155=CARTESIAN_POINT('Ctrl Pts',(81.,48.,1.37399912542736));
#1156=CARTESIAN_POINT('Ctrl Pts',(80.8725266158904,47.9235159695342,2.49151265143639));
#1157=CARTESIAN_POINT('Ctrl Pts',(79.7151009425504,47.2290605655302,4.92532273927065));
#1158=CARTESIAN_POINT('Ctrl Pts',(77.4959965017094,45.8975979010257,6.));
#1159=CARTESIAN_POINT('Ctrl Pts',(76.,45.,6.));
#1160=CARTESIAN_POINT('',(79.,50.,1.));
#1161=CARTESIAN_POINT('Origin',(76.,45.,1.));
#1162=CARTESIAN_POINT('',(81.,48.,1.));
#1163=CARTESIAN_POINT('Origin',(76.,45.,1.));
#1164=CARTESIAN_POINT('Origin',(79.,48.,1.));
#1165=CARTESIAN_POINT('Ctrl Pts',(81.,-104.,1.));
#1166=CARTESIAN_POINT('Ctrl Pts',(81.,-104.,1.37399912542736));
#1167=CARTESIAN_POINT('Ctrl Pts',(80.8747079181401,-103.924824750884,2.49620674567252));
#1168=CARTESIAN_POINT('Ctrl Pts',(80.04308664792,-103.425851988752,4.22392687349615));
#1169=CARTESIAN_POINT('Ctrl Pts',(78.2434252440641,-102.346055146439,5.65838429481563));
#1170=CARTESIAN_POINT('Ctrl Pts',(76.7479982508547,-101.448798950513,6.));
#1171=CARTESIAN_POINT('Ctrl Pts',(76.,-101.,6.));
#1172=CARTESIAN_POINT('Ctrl Pts',(81.,-104.598398600684,1.));
#1173=CARTESIAN_POINT('Ctrl Pts',(81.,-104.598398600684,1.41944551867114));
#1174=CARTESIAN_POINT('Ctrl Pts',(80.8406829979185,-104.485799976809,2.68281728798895));
#1175=CARTESIAN_POINT('Ctrl Pts',(79.8625806913017,-103.79985750477,4.4453711675757));
#1176=CARTESIAN_POINT('Ctrl Pts',(78.0704810925996,-102.516026979353,5.7126662818088));
#1177=CARTESIAN_POINT('Ctrl Pts',(76.6910079079325,-101.505789293435,6.));
#1178=CARTESIAN_POINT('Ctrl Pts',(76.,-101.,6.));
#1179=CARTESIAN_POINT('Ctrl Pts',(80.4978463545228,-105.634370198584,1.));
#1180=CARTESIAN_POINT('Ctrl Pts',(80.4978463545228,-105.634370198584,1.4584941692853));
#1181=CARTESIAN_POINT('Ctrl Pts',(80.3289824484701,-105.459114678406,2.84377895336196));
#1182=CARTESIAN_POINT('Ctrl Pts',(79.3648101885727,-104.457347860609,4.6231261126939));
#1183=CARTESIAN_POINT('Ctrl Pts',(77.7733238655253,-102.815849403383,5.75183109998917));
#1184=CARTESIAN_POINT('Ctrl Pts',(76.5912748078185,-101.605522393549,6.));
#1185=CARTESIAN_POINT('Ctrl Pts',(76.,-101.,6.));
#1186=CARTESIAN_POINT('Ctrl Pts',(79.4487989505128,-106.,1.));
#1187=CARTESIAN_POINT('Ctrl Pts',(79.4487989505128,-106.,1.40760059161038));
#1188=CARTESIAN_POINT('Ctrl Pts',(79.3455918169066,-105.849220857127,2.63430958088948));
#1189=CARTESIAN_POINT('Ctrl Pts',(78.7077051787912,-104.909145310458,4.38907350431981));
#1190=CARTESIAN_POINT('Ctrl Pts',(77.4744356346698,-103.114685519567,5.69937503912805));
#1191=CARTESIAN_POINT('Ctrl Pts',(76.4915417077045,-101.705255493663,6.));
#1192=CARTESIAN_POINT('Ctrl Pts',(76.,-101.,6.));
#1193=CARTESIAN_POINT('Ctrl Pts',(79.,-106.,1.));
#1194=CARTESIAN_POINT('Ctrl Pts',(79.,-106.,1.37399912542736));
#1195=CARTESIAN_POINT('Ctrl Pts',(78.9248247508841,-105.87470791814,2.49620674567252));
#1196=CARTESIAN_POINT('Ctrl Pts',(78.425851988752,-105.04308664792,4.22392687349616));
#1197=CARTESIAN_POINT('Ctrl Pts',(77.3460551464385,-103.243425244064,5.65838429481563));
#1198=CARTESIAN_POINT('Ctrl Pts',(76.4487989505128,-101.747998250855,6.));
#1199=CARTESIAN_POINT('Ctrl Pts',(76.,-101.,6.));
#1200=CARTESIAN_POINT('',(81.,-104.,1.));
#1201=CARTESIAN_POINT('Origin',(76.,-101.,1.));
#1202=CARTESIAN_POINT('',(79.,-106.,1.));
#1203=CARTESIAN_POINT('Origin',(76.,-101.,1.));
#1204=CARTESIAN_POINT('Origin',(79.,-104.,1.));
#1205=CARTESIAN_POINT('Origin',(-36.,-101.,1.));
#1206=CARTESIAN_POINT('',(-36.,-106.,1.));
#1207=CARTESIAN_POINT('Origin',(76.,-67.,1.));
#1208=CARTESIAN_POINT('',(81.,-67.,1.));
#1209=CARTESIAN_POINT('Origin',(42.,45.,1.));
#1210=CARTESIAN_POINT('',(42.,50.,1.));
#1211=CARTESIAN_POINT('Origin',(-70.,11.,1.));
#1212=CARTESIAN_POINT('',(-75.,11.,1.));
#1213=CARTESIAN_POINT('Origin',(81.,50.,0.));
#1214=CARTESIAN_POINT('',(79.,50.,0.));
#1215=CARTESIAN_POINT('',(79.,50.,0.));
#1216=CARTESIAN_POINT('',(-73.,50.,0.));
#1217=CARTESIAN_POINT('',(-75.,50.,0.));
#1218=CARTESIAN_POINT('',(-73.,50.,0.));
#1219=CARTESIAN_POINT('Origin',(79.,48.,0.));
#1220=CARTESIAN_POINT('',(81.,48.,0.));
#1221=CARTESIAN_POINT('',(81.,48.,0.));
#1222=CARTESIAN_POINT('Origin',(79.,48.,0.));
#1223=CARTESIAN_POINT('Origin',(81.,-106.,0.));
#1224=CARTESIAN_POINT('',(81.,-104.,0.));
#1225=CARTESIAN_POINT('',(81.,-104.,0.));
#1226=CARTESIAN_POINT('',(81.,50.,0.));
#1227=CARTESIAN_POINT('Origin',(79.,-104.,0.));
#1228=CARTESIAN_POINT('',(79.,-106.,0.));
#1229=CARTESIAN_POINT('',(79.,-106.,0.));
#1230=CARTESIAN_POINT('Origin',(79.,-104.,0.));
#1231=CARTESIAN_POINT('Origin',(-73.,48.,0.));
#1232=CARTESIAN_POINT('',(-75.,48.,0.));
#1233=CARTESIAN_POINT('Origin',(-73.,48.,0.));
#1234=CARTESIAN_POINT('',(-75.,48.,0.));
#1235=CARTESIAN_POINT('Origin',(-75.,50.,0.));
#1236=CARTESIAN_POINT('',(-75.,-104.,0.));
#1237=CARTESIAN_POINT('',(-75.,-106.,0.));
#1238=CARTESIAN_POINT('',(-75.,-104.,0.));
#1239=CARTESIAN_POINT('Origin',(3.00000000000001,-28.,0.));
#1240=CARTESIAN_POINT('',(-73.,-106.,0.));
#1241=CARTESIAN_POINT('',(81.,-106.,0.));
#1242=CARTESIAN_POINT('Origin',(-73.,-104.,0.));
#1243=CARTESIAN_POINT('Origin',(-73.,-104.,0.));
#1244=CARTESIAN_POINT('',(-73.,-106.,0.));
#1245=CARTESIAN_POINT('Origin',(-75.,-106.,0.));
#1246=CARTESIAN_POINT('Origin',(5.00000007450581,55.0000008195639,16.));
#1247=CARTESIAN_POINT('',(6.25000007450581,55.0000008195639,16.));
#1248=CARTESIAN_POINT('Origin',(5.00000007450581,55.0000008195639,16.));
#1249=CARTESIAN_POINT('',(6.25000007450581,55.0000008195639,7.2));
#1250=CARTESIAN_POINT('',(6.25000007450581,55.0000008195639,16.));
#1251=CARTESIAN_POINT('Origin',(5.00000007450581,55.0000008195639,7.2));
#1252=CARTESIAN_POINT('Origin',(5.00000007450581,55.0000008195639,7.2));
#1253=CARTESIAN_POINT('Origin',(5.00000007450581,55.0000008195639,0.));
#1254=CARTESIAN_POINT('',(7.50000007450581,55.0000008195639,16.));
#1255=CARTESIAN_POINT('Origin',(5.00000007450581,55.0000008195639,16.));
#1256=CARTESIAN_POINT('',(7.50000007450581,55.0000008195639,0.));
#1257=CARTESIAN_POINT('',(7.50000007450581,55.0000008195639,0.));
#1258=CARTESIAN_POINT('Origin',(5.00000007450581,55.0000008195639,0.));
#1259=CARTESIAN_POINT('Origin',(5.00000007450581,55.0000008195639,16.));
#1260=CARTESIAN_POINT('Origin',(5.00000007450581,55.0000008195639,0.));
#1261=CARTESIAN_POINT('Origin',(-88.0000016093254,-22.0000003278255,62.));
#1262=CARTESIAN_POINT('',(-88.0000016093254,-22.0000003278255,62.));
#1263=CARTESIAN_POINT('',(-77.0000016093254,-22.0000003278255,62.));
#1264=CARTESIAN_POINT('',(-85.7500016242266,-22.0000003278255,62.));
#1265=CARTESIAN_POINT('',(-88.0000016093254,-22.0000003278255,2.00000000000003));
#1266=CARTESIAN_POINT('',(-88.0000016093254,-22.0000003278255,62.));
#1267=CARTESIAN_POINT('',(-77.0000016093254,-22.0000003278255,2.00000000000003));
#1268=CARTESIAN_POINT('',(-88.0000016093254,-22.0000003278255,2.00000000000003));
#1269=CARTESIAN_POINT('',(-77.0000016391277,-22.0000003278255,31.));
#1270=CARTESIAN_POINT('Origin',(-88.0000016093254,-64.0000003278255,62.));
#1271=CARTESIAN_POINT('',(-88.0000016093254,-64.0000003278255,62.));
#1272=CARTESIAN_POINT('',(-88.0000016093254,-53.5000003129244,62.));
#1273=CARTESIAN_POINT('',(-88.0000016093254,-64.0000003278255,2.00000000000003));
#1274=CARTESIAN_POINT('',(-88.0000016093254,-64.0000003278255,62.));
#1275=CARTESIAN_POINT('',(-88.0000016093254,-64.0000003278255,2.00000000000003));
#1276=CARTESIAN_POINT('Origin',(-77.0000016093254,-64.0000003278255,62.));
#1277=CARTESIAN_POINT('',(-77.0000016093254,-64.0000003278255,62.));
#1278=CARTESIAN_POINT('',(-80.2500016242266,-64.0000003278255,62.));
#1279=CARTESIAN_POINT('',(-77.0000016093254,-64.0000003278255,2.00000000000003));
#1280=CARTESIAN_POINT('',(-77.0000016391277,-64.0000003278255,31.));
#1281=CARTESIAN_POINT('',(-77.0000016093254,-64.0000003278255,2.00000000000003));
#1282=CARTESIAN_POINT('Origin',(-82.5000016093254,-43.0000003278255,2.00000000000003));
#1283=CARTESIAN_POINT('',(-77.0000016391277,-54.5000003129244,2.00000000000003));
#1284=CARTESIAN_POINT('Origin',(-83.5000016391277,-43.0000002980232,62.));
#1285=CARTESIAN_POINT('',(-77.0000016391277,-20.0000002980232,62.));
#1286=CARTESIAN_POINT('',(-77.0000016391277,-20.0000002980232,62.));
#1287=CARTESIAN_POINT('',(-90.0000016391277,-20.0000002980232,62.));
#1288=CARTESIAN_POINT('',(-90.0000016391277,-20.0000002980232,62.));
#1289=CARTESIAN_POINT('',(-90.0000016391277,-66.0000002980232,62.));
#1290=CARTESIAN_POINT('',(-90.0000016391277,-66.0000002980232,62.));
#1291=CARTESIAN_POINT('',(-77.0000016391277,-66.0000002980232,62.));
#1292=CARTESIAN_POINT('',(-77.0000016391277,-66.0000002980232,62.));
#1293=CARTESIAN_POINT('',(-77.0000016391277,-20.0000002980232,62.));
#1294=CARTESIAN_POINT('Origin',(-90.0000016391277,-20.0000002980232,2.22044604925031E-14));
#1295=CARTESIAN_POINT('',(-90.0000016391277,-66.0000002980232,2.22044604925031E-14));
#1296=CARTESIAN_POINT('',(-90.0000016391277,-20.0000002980232,2.22044604925031E-14));
#1297=CARTESIAN_POINT('',(-90.0000016391277,-66.0000002980232,2.22044604925031E-14));
#1298=CARTESIAN_POINT('',(-90.0000016391277,-66.0000002980232,2.22044604925031E-14));
#1299=CARTESIAN_POINT('',(-90.0000016391277,-20.0000002980232,2.22044604925031E-14));
#1300=CARTESIAN_POINT('Origin',(-77.0000016391277,-20.0000002980232,2.22044604925031E-14));
#1301=CARTESIAN_POINT('',(-77.0000016391277,-20.0000002980232,2.22044604925031E-14));
#1302=CARTESIAN_POINT('',(-90.0000016391277,-20.0000002980232,2.22044604925031E-14));
#1303=CARTESIAN_POINT('',(-77.0000016391277,-20.0000002980232,2.22044604925031E-14));
#1304=CARTESIAN_POINT('Origin',(-77.0000016391277,-66.0000002980232,2.22044604925031E-14));
#1305=CARTESIAN_POINT('',(-77.0000016391277,-66.0000002980232,2.22044604925031E-14));
#1306=CARTESIAN_POINT('',(-77.0000016391277,-66.0000002980232,2.22044604925031E-14));
#1307=CARTESIAN_POINT('',(-77.0000016391277,-20.0000002980232,2.22044604925031E-14));
#1308=CARTESIAN_POINT('Origin',(-90.0000016391277,-66.0000002980232,2.22044604925031E-14));
#1309=CARTESIAN_POINT('',(-77.0000016391277,-66.0000002980232,2.22044604925031E-14));
#1310=CARTESIAN_POINT('Origin',(-83.5000016391277,-43.0000002980232,2.22044604925031E-14));
#1311=UNCERTAINTY_MEASURE_WITH_UNIT(LENGTH_MEASURE(0.01),#1315,
'DISTANCE_ACCURACY_VALUE',
'Maximum model space distance between geometric entities at asserted c
onnectivities');
#1312=UNCERTAINTY_MEASURE_WITH_UNIT(LENGTH_MEASURE(0.01),#1315,
'DISTANCE_ACCURACY_VALUE',
'Maximum model space distance between geometric entities at asserted c
onnectivities');
#1313=(
GEOMETRIC_REPRESENTATION_CONTEXT(3)
GLOBAL_UNCERTAINTY_ASSIGNED_CONTEXT((#1311))
GLOBAL_UNIT_ASSIGNED_CONTEXT((#1315,#1317,#1318))
REPRESENTATION_CONTEXT('','3D')
);
#1314=(
GEOMETRIC_REPRESENTATION_CONTEXT(3)
GLOBAL_UNCERTAINTY_ASSIGNED_CONTEXT((#1312))
GLOBAL_UNIT_ASSIGNED_CONTEXT((#1315,#1317,#1318))
REPRESENTATION_CONTEXT('','3D')
);
#1315=(
LENGTH_UNIT()
NAMED_UNIT(*)
SI_UNIT(.MILLI.,.METRE.)
);
#1316=(
LENGTH_UNIT()
NAMED_UNIT(*)
SI_UNIT($,.METRE.)
);
#1317=(
NAMED_UNIT(*)
PLANE_ANGLE_UNIT()
SI_UNIT($,.RADIAN.)
);
#1318=(
NAMED_UNIT(*)
SI_UNIT($,.STERADIAN.)
SOLID_ANGLE_UNIT()
);
#1319=SHAPE_DEFINITION_REPRESENTATION(#1320,#1321);
#1320=PRODUCT_DEFINITION_SHAPE('',$,#1323);
#1321=SHAPE_REPRESENTATION('',(#673),#1313);
#1322=PRODUCT_DEFINITION_CONTEXT('part definition',#1327,'design');
#1323=PRODUCT_DEFINITION('2026-02-08-13-54-52-596','Top',#1324,#1322);
#1324=PRODUCT_DEFINITION_FORMATION('',$,#1329);
#1325=PRODUCT_RELATED_PRODUCT_CATEGORY('Top','Top',(#1329));
#1326=APPLICATION_PROTOCOL_DEFINITION('international standard',
'automotive_design',2009,#1327);
#1327=APPLICATION_CONTEXT(
'Core Data for Automotive Mechanical Design Process');
#1328=PRODUCT_CONTEXT('part definition',#1327,'mechanical');
#1329=PRODUCT('2026-02-08-13-54-52-596','Top',$,(#1328));
#1330=PRESENTATION_STYLE_ASSIGNMENT((#1331));
#1331=SURFACE_STYLE_USAGE(.BOTH.,#1332);
#1332=SURFACE_SIDE_STYLE('',(#1333));
#1333=SURFACE_STYLE_FILL_AREA(#1334);
#1334=FILL_AREA_STYLE('Steel - Satin',(#1335));
#1335=FILL_AREA_STYLE_COLOUR('Steel - Satin',#1336);
#1336=COLOUR_RGB('Steel - Satin',0.627450980392157,0.627450980392157,0.627450980392157);
ENDSEC;
END-ISO-10303-21;
